<svg width="1005" height="271" viewBox="0 0 1005 271" fill="none" xmlns="http://www.w3.org/2000/svg">
<path d="M139.04 242.79V197.63C139.64 197.25 140.38 196.74 141.15 196.29C151.81 190.12 162.45 183.92 173.16 177.83C174.82 176.89 175.5 175.83 175.5 173.92C175.45 148.62 175.45 123.33 175.5 98.03C175.5 96.49 174.97 95.62 173.66 94.86C158.87 86.36 144.11 77.8 129.33 69.28C128.73 68.93 128.03 68.74 127.02 68.33V270.07C126 269.62 125.34 269.39 124.75 269.05C102.61 256.3 80.47 243.55 58.34 230.78C39.74 220.05 21.17 209.28 2.53 198.62C0.689999 197.57 0.0399992 196.42 0.0499992 194.32C0.0999992 154.88 0.09 115.43 0 75.99C0 73.77 0.699998 72.62 2.6 71.53C26.07 58.09 49.49 44.55 72.92 31.04C73.69 30.6 74.48 30.18 75.61 29.57C75.71 30.74 75.84 31.53 75.84 32.33C75.86 45.81 75.84 59.29 75.91 72.77C75.91 74.35 75.3 75.12 74.01 75.86C63.46 81.89 52.96 87.99 42.44 94.07C41.51 94.61 40.58 95.17 39.47 95.82C39.47 96.62 39.47 97.44 39.47 98.26C39.44 122.39 39.41 146.52 39.39 170.65C39.39 170.82 39.41 170.99 39.39 171.15C39.07 173.38 39.97 174.74 41.99 175.88C49.81 180.31 57.51 184.96 65.28 189.47C71.68 193.19 78.13 196.85 84.56 200.51C85.4 200.99 86.29 201.36 87.63 202.01V45.13C87.63 37.72 87.63 30.32 87.63 22.91C87.63 15.45 87.62 8 87.64 0C88.91 0.65 89.69 1.01998 90.44 1.44998C113.45 14.7 136.45 27.95 159.45 41.2C177.04 51.34 194.62 61.5 212.26 71.57C214.09 72.61 214.78 73.76 214.78 75.87C214.75 115.81 214.79 155.76 214.82 195.7C214.82 196.03 214.78 196.37 214.82 196.7C215.07 198.53 214.18 199.54 212.63 200.43C201.28 206.9 189.97 213.45 178.66 219.98C166.41 227.05 154.15 234.12 141.9 241.19C141.12 241.64 140.33 242.06 139.05 242.77L139.04 242.79Z" fill="white" style="fill:white;fill-opacity:1;"/>
<path d="M651.289 116.311V92.2813C652.009 92.2313 652.729 92.1413 653.439 92.1413C685.919 92.1413 718.399 92.1413 750.889 92.1113C752.559 92.1113 753.929 92.5113 755.199 93.6513C758.289 96.4313 761.549 99.0313 764.609 101.851C767.519 104.541 769.679 107.841 770.879 111.631C771.529 113.661 772.019 115.831 772.039 117.941C772.169 130.751 772.149 143.561 772.189 156.371C772.189 159.111 772.409 161.851 772.289 164.581C772.129 168.071 770.789 171.211 768.839 174.081C766.049 178.181 762.629 181.681 758.589 184.561C753.899 187.911 748.629 189.521 742.889 189.451C734.399 189.351 725.899 189.051 717.409 189.041C696.419 189.011 675.429 189.111 654.449 189.151C653.459 189.151 652.479 189.151 651.319 189.151V130.601C659.129 130.411 666.969 130.551 675.079 130.511V164.591C676.959 164.721 678.599 164.921 680.239 164.921C699.309 164.941 718.389 164.941 737.459 164.921C738.449 164.921 739.459 164.811 740.439 164.641C744.999 163.841 747.399 161.151 747.729 156.501C747.779 155.751 747.789 155.001 747.789 154.261C747.789 144.691 747.719 135.121 747.839 125.551C747.869 122.941 746.869 121.341 744.659 120.171C740.619 118.031 736.309 116.831 731.779 116.581C728.129 116.381 724.459 116.401 720.789 116.401C698.389 116.401 675.979 116.421 653.579 116.421C652.849 116.421 652.119 116.331 651.289 116.281V116.311Z" fill="white" style="fill:white;fill-opacity:1;"/>
<path d="M501.69 92.3103C502.75 92.2503 503.48 92.1803 504.21 92.1803C512.87 92.1803 521.53 92.2803 530.19 92.1803C533.09 92.1503 535.26 93.1803 537.26 95.1903C555.91 113.97 574.61 132.72 593.29 151.47C595.23 153.42 597.14 155.39 599.12 157.3C599.92 158.07 600.87 158.7 602.17 159.72V92.9803C604.2 92.4003 621.35 92.2103 625.98 92.6603C626.53 94.3803 626.75 185.31 626.19 189.47C625.86 189.54 625.47 189.7 625.09 189.7C618.76 189.67 612.43 189.68 606.1 189.57C596.68 189.4 588.81 185.69 582.48 178.81C567.03 162.02 550.48 146.31 534.32 130.21C532.69 128.59 530.89 127.16 528.67 125.2V188.7H504.22C503.37 156.57 502.53 124.52 501.68 92.3303L501.69 92.3103Z" fill="white" style="fill:white;fill-opacity:1;"/>
<path d="M303.906 92.4102C304.606 92.3402 305.096 92.2402 305.586 92.2402C313.166 92.2502 320.746 92.3202 328.326 92.2702C330.396 92.2602 331.946 92.9802 333.386 94.4402C342.926 104.09 352.526 113.68 362.106 123.29C362.806 124 363.496 124.73 364.276 125.35C365.806 126.57 366.986 126.54 368.536 125.28C369.176 124.76 369.746 124.14 370.336 123.55C379.786 114.17 389.256 104.8 398.686 95.4002C400.476 93.6202 402.566 92.4302 405.076 92.4002C411.806 92.3202 418.546 92.3702 425.276 92.3702C425.826 94.1202 426.056 184 425.526 188.58C423.726 189.07 406.846 189.25 401.846 188.79C401.746 185.63 401.816 182.42 401.806 179.22C401.796 175.89 401.806 172.56 401.806 169.23V129.7C400.926 130.4 400.406 130.76 399.956 131.19C394.396 136.58 388.776 141.91 383.336 147.41C380.896 149.88 378.216 151.2 374.706 151.1C370.046 150.97 365.376 151.08 360.716 151C358.896 150.97 357.056 150.81 355.256 150.52C352.306 150.05 349.766 148.76 347.676 146.53C334.266 132.29 320.836 118.07 307.386 103.87C306.016 102.42 305.186 100.77 304.886 98.8202C304.566 96.7102 304.246 94.5902 303.906 92.3802V92.4102Z" fill="white" style="fill:white;fill-opacity:1;"/>
<path d="M875.901 188.851H848.531C861.731 156.661 874.831 124.701 887.981 92.6211H930.391C943.601 124.591 956.831 156.601 970.171 188.851H942.941C942.611 188.121 942.221 187.311 941.871 186.481C934.301 168.471 926.711 150.471 919.171 132.451C917.131 127.581 914.451 123.111 911.401 118.831C911.021 118.291 910.621 117.741 910.131 117.301C908.761 116.051 907.391 116.181 906.331 117.701C905.861 118.371 905.521 119.151 905.191 119.911C896.271 140.511 887.351 161.111 878.471 181.721C877.491 184.001 876.781 186.401 875.901 188.851Z" fill="white" style="fill:white;fill-opacity:1;"/>
<path d="M1004.36 92.541V188.401C1002.66 188.961 984.243 189.121 980.883 188.581V92.541H1004.36Z" fill="white" style="fill:white;fill-opacity:1;"/>
<path d="M477.251 188.741H454.031V92.5215H477.161C477.651 94.3715 477.771 185.731 477.251 188.741Z" fill="white" style="fill:white;fill-opacity:1;"/>
<path d="M329.547 188.921H305.117V121.971C306.647 122.461 307.837 123.311 308.887 124.361C314.717 130.181 320.497 136.051 326.387 141.801C329.327 144.671 330.597 147.971 330.467 152.081C330.137 162.801 330.007 173.531 329.787 184.251C329.757 185.741 329.637 187.221 329.537 188.931L329.547 188.921Z" fill="white" style="fill:white;fill-opacity:1;"/>
</svg>
