<svg width="215" height="271" viewBox="0 0 215 271" fill="none" xmlns="http://www.w3.org/2000/svg">
<path d="M139.04 242.79V197.63C139.64 197.25 140.38 196.74 141.15 196.29C151.81 190.12 162.45 183.92 173.16 177.83C174.82 176.89 175.5 175.83 175.5 173.92C175.45 148.62 175.45 123.33 175.5 98.03C175.5 96.49 174.97 95.62 173.66 94.86C158.87 86.36 144.11 77.8 129.33 69.28C128.73 68.93 128.03 68.74 127.02 68.33V270.07C126 269.62 125.34 269.39 124.75 269.05C102.61 256.3 80.47 243.55 58.34 230.78C39.74 220.05 21.17 209.28 2.53 198.62C0.689999 197.57 0.0399992 196.42 0.0499992 194.32C0.0999992 154.88 0.09 115.43 0 75.99C0 73.77 0.699998 72.62 2.6 71.53C26.07 58.09 49.49 44.55 72.92 31.04C73.69 30.6 74.48 30.18 75.61 29.57C75.71 30.74 75.84 31.53 75.84 32.33C75.86 45.81 75.84 59.29 75.91 72.77C75.91 74.35 75.3 75.12 74.01 75.86C63.46 81.89 52.96 87.99 42.44 94.07C41.51 94.61 40.58 95.17 39.47 95.82C39.47 96.62 39.47 97.44 39.47 98.26C39.44 122.39 39.41 146.52 39.39 170.65C39.39 170.82 39.41 170.99 39.39 171.15C39.07 173.38 39.97 174.74 41.99 175.88C49.81 180.31 57.51 184.96 65.28 189.47C71.68 193.19 78.13 196.85 84.56 200.51C85.4 200.99 86.29 201.36 87.63 202.01V45.13C87.63 37.72 87.63 30.32 87.63 22.91C87.63 15.45 87.62 8 87.64 0C88.91 0.65 89.69 1.01998 90.44 1.44998C113.45 14.7 136.45 27.95 159.45 41.2C177.04 51.34 194.62 61.5 212.26 71.57C214.09 72.61 214.78 73.76 214.78 75.87C214.75 115.81 214.79 155.76 214.82 195.7C214.82 196.03 214.78 196.37 214.82 196.7C215.07 198.53 214.18 199.54 212.63 200.43C201.28 206.9 189.97 213.45 178.66 219.98C166.41 227.05 154.15 234.12 141.9 241.19C141.12 241.64 140.33 242.06 139.05 242.77L139.04 242.79Z" fill="white"/>
</svg>
