<svg width="133" height="36" viewBox="0 0 133 36" fill="none" xmlns="http://www.w3.org/2000/svg">
<g opacity="0.56">
<g clip-path="url(#clip0_5828_3151)">
<path d="M127.392 32.2865C127.36 32.8016 127.252 33.3255 127.311 33.8301C127.501 35.4711 126.548 35.5497 125.276 35.5748C123.937 35.6012 123.427 35.2158 123.483 33.8117C123.584 31.2953 123.394 28.765 123.545 26.2536C123.652 24.4784 123.057 23.8433 121.319 24.049C120.527 24.1427 119.608 24.218 118.925 23.9087C118.15 23.5581 118.571 22.5844 118.538 21.8798C118.495 20.9773 119.196 21.0509 119.782 21.0468C123.266 21.023 126.754 21.0831 130.235 20.9587C131.782 20.9034 132.389 21.4821 132.339 22.9423C132.175 23.3634 132.01 23.7839 131.845 24.2045C130.956 24.051 130.068 23.9775 129.183 24.2323C127.98 23.9339 127.19 24.0558 127.278 25.6433C127.399 27.8532 127.362 30.0717 127.392 32.2865Z" fill="white" style="fill:white;fill-opacity:1;"/>
<path d="M11.5957 20.6227C11.7371 20.6424 11.8785 20.6621 12.0199 20.6818C12.3284 20.7768 12.6369 20.8718 12.9455 20.9668C13.4621 21.4561 14.0898 21.7188 14.7755 21.8637C15.3122 22.2814 15.8487 22.699 16.3852 23.1166C16.3852 23.1166 16.3212 23.0511 16.3222 23.0509C16.696 23.6058 17.0689 24.1608 17.4417 24.7159C17.4784 24.8535 17.515 24.9911 17.5517 25.1289C17.5362 25.8208 17.5052 26.5442 16.5191 26.3906C15.4453 26.2234 14.3019 26.8921 13.3274 25.6011C11.1066 22.6592 7.22013 22.9673 5.3063 26.0843C3.88078 29.9679 5.22715 32.254 8.96823 32.3022C10.396 32.2506 12.1644 32.9258 13.0302 31.3844C13.7309 30.1371 14.6158 29.8026 15.8297 29.7243C18.0456 29.7841 17.7288 30.9566 16.9588 32.312C15.3717 35.1056 11.0951 36.7019 7.08525 35.6988C5.89958 35.4022 4.28954 36.0174 3.50152 34.4808C3.52145 34.0748 3.2207 33.9776 2.92064 33.8798C2.92064 33.8798 2.86721 33.8303 2.86735 33.8309C2.74223 33.7062 2.61697 33.581 2.49171 33.4558C2.49171 33.4558 2.43351 33.3933 2.43365 33.3939C2.15308 32.9931 1.87236 32.5918 1.59165 32.1905C1.59165 32.1905 1.50329 32.0853 1.50273 32.0846C0.14173 29.2954 0.667694 26.5627 1.74602 23.8473C2.079 23.4973 2.41229 23.1465 2.74509 22.7958C5.39294 20.8417 8.42495 20.4497 11.5957 20.6227Z" fill="white" style="fill:white;fill-opacity:1;"/>
<path d="M1.83374 11.8615C3.50359 8.46771 5.20872 5.09058 6.82227 1.67027C7.31995 0.615289 7.85029 0.0512046 9.14643 0.105098C10.3777 0.156284 11.166 0.341157 11.7276 1.62045C13.427 5.49194 15.2889 9.29217 17.0872 13.1192C16.9983 13.6034 17.6908 14.4348 16.7423 14.5157C15.4572 14.6254 13.9865 15.1277 13.0246 13.6665C12.5973 10.5734 10.1719 11.9995 8.51931 11.6728C6.34096 11.242 5.18544 12.2044 4.87374 14.3294C3.39289 14.6969 1.86005 15.7311 0.54357 13.9918C0.543699 13.9917 0.452756 14.0027 0.453126 14.0037C0.671066 13.8441 0.888636 13.6836 1.10621 13.523C1.50857 13.0392 1.89948 12.5503 1.83374 11.8615ZM9.07537 4.72116C8.70114 5.94979 7.24248 6.85603 7.98323 8.2035C8.36294 8.89421 9.39473 8.88581 9.89643 8.26222C10.9901 6.90282 9.35884 5.92752 9.07537 4.72116Z" fill="white" style="fill:white;fill-opacity:1;"/>
<path d="M20.1719 35.3458C22.2301 31.0239 24.3496 26.7294 26.307 22.3623C26.8545 21.1408 27.6029 21.0189 28.7214 21.0063C29.8939 20.993 30.5975 21.3077 31.1149 22.4573C33.0232 26.6973 35.0463 30.8857 37.0261 35.0933C36.9004 35.2577 36.7747 35.4222 36.649 35.5867C34.599 35.6028 32.3628 35.9967 31.8536 33.055C31.7666 32.553 31.2867 32.432 30.8049 32.4342C29.3187 32.4411 27.8325 32.4425 26.3464 32.4403C25.694 32.4394 25.174 32.6243 25.0041 33.3374C24.426 35.7644 22.7429 36.1103 20.6353 35.6578C20.4808 35.5538 20.3263 35.4498 20.1719 35.3458ZM28.4005 25.2576C27.9677 26.2957 27.7088 27.1201 27.2968 27.8591C26.6019 29.1053 26.6946 29.5847 28.3233 29.6016C30.0785 29.6198 30.4015 29.14 29.5415 27.6622C29.1447 26.9804 28.8585 26.2341 28.4005 25.2576Z" fill="white" style="fill:white;fill-opacity:1;"/>
<path d="M38.4576 14.8019C37.9991 14.5835 37.537 14.5965 37.0733 14.7803C36.7796 14.6943 36.485 14.6084 36.1904 14.5225C36.1331 13.7451 36.0758 12.9676 36.0185 12.1897C36.1714 9.14163 36.1953 6.0944 35.9861 3.04798C35.9784 2.90426 35.9707 2.76055 35.963 2.61794C35.9545 2.28705 35.946 1.95506 35.9375 1.62307C36.0444 0.279717 36.8746 0.103948 38.0491 0.113072C42.4788 0.147476 46.9092 0.0840283 51.3403 0.0572213C60.8998 0.151554 70.4583 0.260766 80.0161 0C80.3092 0.00425529 80.6024 0.00851057 80.8952 0.0127249C91.4643 0.0576373 102.034 0.0960099 112.603 0.160603C113.411 0.165533 114.485 -0.238146 114.705 1.14087C114.945 2.64285 114.468 3.22142 112.816 3.2044C104.998 3.12384 97.1794 3.17605 89.3609 3.17713C73.4792 3.17932 57.5975 3.16926 41.7159 3.2179C41.1202 3.21972 40.0276 2.50001 39.9083 4.15079C39.7879 5.81747 40.4166 5.87868 41.7792 5.8765C65.162 5.83919 88.5448 5.85189 111.928 5.89879C112.676 5.90029 113.94 5.15925 114.055 6.93029C114.154 8.47129 113.702 8.9616 112.102 8.94469C104.433 8.86365 96.7622 8.9093 89.092 8.91208C73.3797 8.91778 57.6671 8.96349 41.9552 8.88218C40.0052 8.87209 39.4896 9.47878 39.7273 11.2651C39.8637 12.2904 39.7675 13.3466 39.776 14.3887C39.776 14.3886 39.7743 14.389 39.7744 14.3888C39.3355 14.5264 38.8965 14.6642 38.4576 14.8019Z" fill="white" style="fill:white;fill-opacity:1;"/>
<path d="M107.9 35.9601C105.303 35.6819 102.465 35.891 101.091 32.9191C100.76 32.2027 99.947 31.0655 101.088 30.6549C102.043 30.3112 103.435 29.9614 104.352 31.1002C105.959 33.0978 107.838 33.7344 110.135 32.9602C110.91 32.6989 111.775 32.4249 111.738 31.3811C111.701 30.335 110.888 30.0911 110.032 29.9888C108.925 29.8567 107.811 29.7832 106.71 29.6183C105.686 29.4651 104.648 29.3127 103.666 29.0021C102.255 28.5557 101.145 27.7463 100.967 26.0927C100.792 24.4726 101.37 23.1702 102.612 22.1742C105.189 20.1089 111.015 20.1457 113.554 22.2193C113.782 22.4059 114.019 22.6013 114.188 22.8383C114.747 23.6231 115.515 24.8891 114.721 25.3371C113.844 25.8325 112.184 26.2635 111.337 24.9457C109.974 22.8261 108.029 23.3185 106.153 23.5916C105.448 23.6942 104.731 24.2503 104.769 25.1155C104.806 25.9469 105.577 26.1195 106.236 26.2191C107.997 26.4854 109.771 26.6664 111.531 26.9374C114.197 27.3477 115.649 28.6854 115.755 30.7536C115.871 33.0124 114.63 34.568 112.092 35.4155C110.728 35.8707 109.333 35.9679 107.9 35.9601Z" fill="white" style="fill:white;fill-opacity:1;"/>
<path d="M132.188 14.7236C131.446 14.6963 130.692 14.5679 129.967 14.6641C128.7 14.8323 127.981 14.307 127.672 13.1368C127.355 11.9325 126.616 11.5127 125.384 11.6389C124.355 11.7443 123.299 11.7297 122.268 11.6281C121.012 11.5042 120.387 12.0462 119.962 13.1809C119.483 14.458 117.269 15.1769 116.151 14.5691C115.551 14.243 115.82 13.8621 116.002 13.4703C117.942 9.31015 119.867 5.14283 121.837 0.997099C122.384 -0.153458 125.375 -0.350756 125.959 0.812573C128.237 5.35446 130.407 9.9521 132.178 14.7243C132.179 14.7244 132.188 14.7236 132.188 14.7236ZM122.157 8.46105C123.294 8.69384 124.37 8.67728 125.598 8.4544C125.017 7.14252 124.473 5.91326 123.802 4.39849C123.083 5.96507 122.392 7.09306 122.157 8.46105Z" fill="white" style="fill:white;fill-opacity:1;"/>
<path d="M51.8723 35.6444C51.7611 35.2782 51.65 34.9119 51.5391 34.5455C53.9867 30.8976 55.5717 26.8072 57.3152 22.8231C58.191 20.8218 59.5317 21.0516 61.0691 21.0367C62.0994 21.0267 61.9989 22.075 62.5619 22.4862C62.562 22.4862 62.5505 22.4542 62.5505 22.4542C62.573 22.8527 62.6054 23.2466 63.0231 23.4595C62.9741 23.5879 63.008 23.6885 63.1246 23.7613C63.1008 24.0319 63.1679 24.2461 63.4684 24.3155L63.3964 24.3012C64.3614 27.4916 66.2125 30.2962 67.3491 33.4052C67.5733 34.0186 68.6892 35.0871 67.5701 35.3713C66.502 35.6426 64.9374 36.3307 63.956 34.823C63.4532 34.0505 63.5642 32.6454 62.5124 32.5239C60.6875 32.313 58.8177 32.4666 56.9685 32.5233C56.7599 32.5297 56.4095 32.878 56.3828 33.099C56.0304 36.0182 53.7876 35.5337 51.8723 35.6444ZM57.9541 29.415H61.6561C60.7927 28.0917 60.7679 26.6475 59.5885 25.5686C59.0321 26.8782 58.5508 28.0107 57.9541 29.415Z" fill="white" style="fill:white;fill-opacity:1;"/>
<path d="M81.8359 21.2784C84.7773 20.5078 86.7048 21.2875 88.2175 23.845C89.6554 26.2761 90.1077 26.2734 91.3332 23.8963C92.7391 21.1691 94.693 20.4424 97.5834 21.2838C96.8268 23.1585 95.3372 24.6274 94.02 26.118C92.1252 28.2624 91.1096 30.5257 91.5942 33.3815C91.8657 34.982 91.2869 35.5863 89.5767 35.6081C87.8581 35.6299 87.663 34.7034 87.9188 33.5358C88.8814 29.142 85.5857 26.6756 83.5621 23.6326C83.0432 22.8521 82.4545 22.118 81.8359 21.2784Z" fill="white" style="fill:white;fill-opacity:1;"/>
<path d="M50.9207 23.7478C50.5022 23.9046 50.0836 24.0614 49.6647 24.2182C49.2249 24.1806 48.7815 24.1689 48.347 24.1007C46.5805 23.8232 45.8816 24.417 46.012 26.3336C46.2066 29.1945 46.1044 32.0756 46.1284 34.9481C46.1074 35.1065 46.0864 35.265 46.0654 35.4234C45.9228 35.464 45.7815 35.5339 45.6372 35.5408C42.4026 35.6968 42.4579 35.6943 42.3887 32.4342C42.3312 29.7222 42.7958 26.9899 42.121 24.298C41.0375 23.9943 39.9492 24.0823 38.8597 24.2467C38.5639 24.229 38.2681 24.2113 37.9736 24.1937C37.8415 24.1365 37.7081 24.0792 37.5747 24.0219C37.5318 23.6126 37.4888 23.2034 37.4459 22.7957C37.4303 21.6162 37.725 20.9482 39.1957 21.001C43.0989 21.1409 47.0089 21.0938 50.9162 21.1211C50.9177 21.9967 50.9192 22.8722 50.9207 23.7478Z" fill="white" style="fill:white;fill-opacity:1;"/>
<path d="M76.9612 35.523C73.3146 35.577 71.4894 33.8081 71.4856 30.2165C71.484 27.6848 71.5938 25.1476 71.4592 22.6232C71.3744 21.0318 72.1875 21.0504 73.346 21.01C74.646 20.9647 75.2117 21.2729 75.156 22.7186C75.0529 25.3949 75.2234 28.0817 75.1228 30.7582C75.0694 32.1823 75.6365 32.5737 76.9266 32.5259C78.3389 32.4736 79.7568 32.5827 81.1702 32.5449C82.157 32.5185 82.6865 32.7483 82.6442 33.8973C82.6064 34.9253 82.4956 35.618 81.2043 35.5419C79.7944 35.4588 78.3759 35.523 76.9612 35.523Z" fill="white" style="fill:white;fill-opacity:1;"/>
<path d="M21.0173 0.151747C22.1688 0.170022 23.3203 0.188298 24.4719 0.206574L24.5237 0.111328L24.4672 0.212173C24.5216 0.357391 24.5761 0.502617 24.6306 0.646744C24.6117 3.39352 24.771 6.1578 24.5198 8.88425C24.306 11.2038 25.0793 12.0407 27.3127 11.6732C27.6047 11.6251 27.902 11.6092 28.1969 11.5784C28.4913 11.6126 28.8008 11.7233 29.0779 11.669C31.4274 11.2095 32.1399 12.2894 31.743 14.4472C30.0029 14.5529 28.2627 14.6588 26.5225 14.7648C26.109 14.7723 25.6954 14.7797 25.2834 14.787C23.8273 14.6831 22.3697 14.5794 20.912 14.4757C20.8507 13.5587 20.7894 12.6418 20.7281 11.7253C20.9441 10.9802 20.9 10.2413 20.6719 9.50695C20.9813 7.24894 20.8737 4.98627 20.7475 2.72381C20.8374 1.86674 20.9273 1.00924 21.0173 0.151747Z" fill="white" style="fill:white;fill-opacity:1;"/>
</g>
</g>
<defs>
<clipPath id="clip0_5828_3151">
<rect width="131.891" height="36" fill="white" style="fill:white;fill-opacity:1;" transform="translate(0.453125)"/>
</clipPath>
</defs>
</svg>
