<svg width="73" height="36" viewBox="0 0 73 36" fill="none" xmlns="http://www.w3.org/2000/svg">
<g opacity="0.56">
<path fill-rule="evenodd" clip-rule="evenodd" d="M26.3332 4.01784C26.242 4.27873 26.2442 4.48611 26.3407 4.69682L26.4181 4.86673L31.3448 4.88412L36.2712 4.90118L36.3249 5.04535C36.3772 5.18682 36.3573 5.22396 35.7609 6.10528C35.7109 6.17887 35.5598 6.40464 35.4248 6.607C35.2895 6.80935 35.1388 7.03512 35.0894 7.10871C35.0403 7.18229 34.8893 7.40805 34.7543 7.61041C34.6192 7.81277 34.4682 8.03853 34.4189 8.11212C34.1015 8.5854 33.7895 9.05367 33.6901 9.20584C33.5269 9.45604 33.4619 9.55202 33.2732 9.81794C33.182 9.9467 33.0461 10.1574 32.9718 10.2862C32.8973 10.415 32.7465 10.6407 32.6365 10.7879C32.5266 10.9351 32.3864 11.1458 32.3255 11.2562C32.1823 11.5147 31.4581 12.6128 28.6417 16.8418C25.8281 21.0673 26.002 20.7161 26.5607 21.0449C26.9524 21.2756 26.8308 21.4334 30.1403 16.407C30.6006 15.708 31.0427 15.0307 31.1233 14.9019C31.2037 14.7731 31.3193 14.5925 31.3807 14.5005C31.5205 14.2895 31.9537 13.6406 32.0724 13.4637C32.1215 13.3901 32.2725 13.1643 32.4076 12.962C32.5426 12.7596 32.6936 12.5338 32.7427 12.4603C32.7921 12.3867 32.943 12.1609 33.0781 11.9586C33.2131 11.7562 33.3639 11.5304 33.4132 11.4568C33.4626 11.3833 33.6133 11.1575 33.7486 10.9551C33.8836 10.7528 34.0344 10.527 34.0837 10.4534C34.1331 10.3799 34.2839 10.1541 34.4189 9.95172C34.5541 9.74936 34.7049 9.5236 34.7543 9.45001C34.8036 9.37643 34.9449 9.16571 35.0684 8.98175C35.1917 8.79779 35.4362 8.4215 35.6115 8.14557C35.7868 7.86963 35.9865 7.5686 36.0549 7.47662C36.1237 7.38464 36.3095 7.099 36.468 6.8418C36.6263 6.58458 37.0879 5.87718 37.4936 5.26977C38.0701 4.4065 38.2263 4.12421 38.2096 3.97737L38.1877 3.78906L32.2955 3.80279L26.4034 3.81682L26.3332 4.01784ZM43.2003 3.93858C41.902 4.10413 40.6112 4.51152 39.8197 5.00555C39.6465 5.11358 39.4288 5.23966 39.3356 5.28582C38.7114 5.59421 37.473 6.70666 36.9235 7.45186C36.4382 8.11045 36.3795 8.19507 36.2631 8.40411C35.9362 8.99144 35.6337 9.47677 35.0684 10.3196C34.9449 10.5036 34.8036 10.7143 34.7543 10.7879C34.6356 10.9648 34.2025 11.6137 34.0626 11.8248C34.0013 11.9167 33.886 12.0974 33.8058 12.2261C33.4665 12.7717 31.6915 15.4862 31.1594 16.2733C31.0599 16.4204 30.958 16.586 30.9328 16.6411C30.8913 16.7321 30.7679 16.9249 30.3914 17.4857C30.3207 17.5913 30.1618 17.8285 30.039 18.0124C29.916 18.1964 29.7748 18.4071 29.7257 18.4808C29.2687 19.1618 29.0739 19.461 28.8388 19.8427C28.6884 20.0869 28.485 20.404 28.3863 20.5471C27.8841 21.2769 27.7547 21.2569 32.9951 21.2569H37.5237L37.626 21.0596C37.7584 20.8036 37.7549 20.6208 37.6136 20.3815L37.4989 20.1876L33.7751 20.1705L30.0511 20.1531L30.0291 19.9959C30.0167 19.9097 30.0632 19.7741 30.1329 19.6949C30.2633 19.5461 30.4621 19.2464 30.7961 18.6961C30.9027 18.5202 31.4424 17.6901 31.9956 16.8512C33.0382 15.2702 33.4146 14.6892 33.6613 14.2821C33.785 14.0774 34.0791 13.6309 34.4204 13.1292C34.4702 13.0556 34.5866 12.8827 34.6791 12.7446C35.0318 12.2171 35.1316 12.3495 35.2588 13.5139C35.4465 15.2297 35.9038 16.3137 37.0862 17.8453C37.6933 18.6315 39.0741 19.7558 39.8831 20.1221C39.9699 20.1615 40.147 20.2511 40.2759 20.3207C40.405 20.3906 40.5674 20.4492 40.6367 20.4509C40.7061 20.4529 40.857 20.511 40.9719 20.5807C41.0869 20.6502 41.3417 20.7409 41.5381 20.7816C41.7346 20.8228 41.9549 20.888 42.0279 20.9271C42.5824 21.2231 45.7679 21.2951 46.4136 21.026L46.6318 20.9347L46.5641 20.6111C46.4575 20.1042 46.5162 20.1224 45.1148 20.1645C43.862 20.2023 42.3086 20.0752 42.1211 19.92C42.0805 19.8866 41.9013 19.8263 41.7225 19.7862C41.4011 19.7144 40.8009 19.4685 40.4772 19.2754C40.385 19.2206 40.2056 19.1296 40.0786 19.0728C39.3964 18.7684 38.446 17.9096 37.5162 16.7572C37.2746 16.4579 36.755 15.4421 36.5498 14.8685C35.8586 12.9359 36.1598 10.4524 37.2923 8.74928C37.4767 8.47202 37.6698 8.16362 37.7212 8.06462C37.8347 7.84521 38.9806 6.7428 39.4794 6.37287C40.3004 5.76379 41.8935 5.11926 42.874 4.99884C43.1601 4.96374 43.5985 4.90754 43.8486 4.8741C44.2641 4.81856 45.1337 4.8577 45.9775 4.96975C46.4879 5.03765 46.888 4.22119 46.4189 4.06834C45.6435 3.81616 44.5175 3.77067 43.2003 3.93858ZM38.051 4.08373C38.1043 4.14763 37.9357 4.44697 37.3828 5.27111C36.9762 5.87685 36.6165 6.43306 36.5829 6.50665C36.5498 6.58023 36.466 6.7157 36.3965 6.80768C36.2782 6.96522 35.9839 7.40103 35.5683 8.0352C35.3698 8.33756 35.1434 8.71183 34.9681 9.02657C34.9067 9.13728 34.8076 9.27743 34.7481 9.33863C34.5846 9.50687 34.2443 10.0414 34.243 10.132C34.2423 10.1758 34.1857 10.2511 34.1177 10.2992C34.0026 10.3798 33.9278 10.4922 33.6271 11.0334C33.5658 11.1438 33.4665 11.2843 33.4073 11.3455C33.2436 11.5137 32.9034 12.0482 32.902 12.1388C32.9013 12.1826 32.8447 12.2579 32.7767 12.3061C32.6616 12.3867 32.587 12.4991 32.2862 13.0402C32.2248 13.1506 32.1257 13.2911 32.0663 13.3523C31.9027 13.5205 31.5624 14.055 31.5611 14.1457C31.5604 14.1895 31.5037 14.2647 31.4356 14.3129C31.3673 14.3607 31.2597 14.4905 31.1963 14.6009C30.9818 14.9752 30.7893 15.2805 30.5875 15.5675C30.477 15.725 30.326 15.9508 30.2524 16.0692C30.1785 16.188 30.0276 16.4137 29.917 16.571C29.8065 16.7285 29.6555 16.9546 29.5818 17.0736C29.508 17.1924 29.3897 17.377 29.319 17.4837C29.2482 17.5907 28.7122 18.4012 28.1278 19.2848C26.988 21.0087 26.9056 21.1017 26.6287 20.9757C26.2828 20.8185 26.2377 20.5067 26.5146 20.1842C26.6529 20.0233 27.0675 19.3905 27.0675 19.341C27.0675 19.3155 27.1132 19.247 27.1691 19.1889C27.3012 19.0507 27.738 18.3972 27.738 18.3376C27.738 18.3122 27.7835 18.2436 27.8396 18.1855C27.9717 18.0473 28.4085 17.3937 28.4085 17.3342C28.4085 17.3088 28.454 17.2403 28.51 17.182C28.642 17.0439 29.079 16.3903 29.079 16.3308C29.079 16.3054 29.1245 16.2368 29.1805 16.1786C29.3125 16.0405 29.7493 15.3869 29.7493 15.3274C29.7493 15.3019 29.795 15.2334 29.851 15.1752C29.9831 15.037 30.4199 14.3835 30.4199 14.3239C30.4199 14.2985 30.4669 14.23 30.5241 14.1718C30.6532 14.0406 31.0904 13.3536 31.0904 13.2821C31.0904 13.2533 31.1377 13.177 31.1953 13.1125C31.3431 12.9476 31.6083 12.5579 31.7079 12.3599C31.7538 12.2679 31.8259 12.171 31.8681 12.1442C31.91 12.1174 31.9822 12.0044 32.0284 11.8933C32.0747 11.782 32.1356 11.691 32.1637 11.691C32.1924 11.691 32.2798 11.5632 32.3582 11.4067C32.437 11.2505 32.6211 10.9568 32.7679 10.7545C32.9144 10.5521 33.0344 10.3528 33.0347 10.3109C33.0347 10.2695 33.082 10.1965 33.1393 10.1491C33.2739 10.0377 33.7052 9.39081 33.7052 9.30083C33.7052 9.26304 33.7525 9.19314 33.8098 9.14565C33.9442 9.03426 34.3757 8.38739 34.3757 8.29742C34.3757 8.25962 34.4231 8.18972 34.4803 8.14222C34.6147 8.03084 35.0462 7.38398 35.0462 7.29399C35.0462 7.25621 35.0936 7.18631 35.1508 7.13881C35.2852 7.02743 35.7167 6.38055 35.7167 6.29058C35.7167 6.25278 35.7639 6.18288 35.8213 6.13539C36.1747 5.84273 36.6064 4.89616 36.4357 4.78813C36.3906 4.75936 34.1149 4.73561 31.3784 4.73495L26.4031 4.73395L26.3601 4.5055C26.3367 4.38007 26.3374 4.21451 26.3615 4.13759L26.4061 3.99811H32.193C36.8077 3.99811 37.9943 4.0155 38.051 4.08373ZM45.9621 4.06065C46.554 4.12888 46.5141 4.09075 46.4303 4.51253C46.3492 4.92059 46.2983 4.94968 45.8279 4.85937C45.1554 4.73026 44.0257 4.71288 43.4562 4.82292C43.1637 4.87945 42.7434 4.94567 42.5221 4.97009C42.3009 4.9945 41.9932 5.07177 41.8386 5.14167C41.684 5.2119 41.5012 5.26911 41.4325 5.26911C41.3001 5.26911 39.7403 6.03203 39.6766 6.12802C39.6561 6.15946 39.4579 6.30764 39.2368 6.45782C38.7988 6.75483 37.594 7.94254 37.594 8.07701C37.594 8.12282 37.4633 8.34693 37.3034 8.57536C36.3859 9.88449 35.8826 11.8692 36.114 13.264C36.1569 13.5209 36.2186 13.9065 36.2514 14.1206C36.3527 14.7792 37.1073 16.4759 37.4361 16.784C37.523 16.8656 37.594 16.9646 37.594 17.0041C37.5944 17.3 39.6119 19.036 40.0917 19.1527C40.1932 19.1775 40.2759 19.226 40.2759 19.2607C40.2759 19.2956 40.3893 19.3687 40.5275 19.4237C40.6659 19.4785 40.8845 19.5784 41.0135 19.6462C41.1426 19.7137 41.3678 19.7902 41.514 19.8162C41.6601 19.8423 41.8657 19.9079 41.9706 19.9617C42.0756 20.0161 42.4839 20.1039 42.8782 20.1574C43.2724 20.2109 43.798 20.2875 44.0464 20.328C44.386 20.3837 44.6442 20.3812 45.0857 20.3197C46.0952 20.1789 46.3257 20.1909 46.378 20.3873C46.5265 20.9435 46.5326 20.9121 46.2607 20.9803C45.4622 21.1816 42.7833 21.0997 42.1534 20.8551C41.9874 20.7906 41.6947 20.7167 41.5031 20.6906C41.3112 20.6646 41.1201 20.602 41.0782 20.5518C41.0366 20.5017 40.8316 20.4111 40.6223 20.3505C40.4135 20.2902 40.2062 20.2109 40.1617 20.1746C40.1173 20.1381 39.974 20.0507 39.8433 19.9802C39.7125 19.9097 39.5026 19.7966 39.3768 19.7287C38.8127 19.424 37.5921 18.3777 37.2253 17.8851C37.1516 17.786 37.0157 17.6085 36.9235 17.4908C36.6342 17.1212 36.4543 16.8495 36.4543 16.7827C36.4543 16.7472 36.3805 16.6307 36.2903 16.5237C36.1234 16.3261 36.0436 16.1455 35.7795 15.3702C35.6979 15.131 35.5919 14.8451 35.5441 14.7347C35.4321 14.4771 35.3922 14.1925 35.3221 13.1536C35.2905 12.6887 35.2437 12.274 35.2175 12.2322C35.1545 12.1301 34.6667 12.5151 34.6068 12.7138C34.5823 12.7951 34.5042 12.9218 34.4335 12.9954C34.2517 13.1844 33.9091 13.7159 33.9078 13.8112C33.9071 13.855 33.8504 13.9303 33.7823 13.9784C33.714 14.0263 33.6064 14.156 33.543 14.2664C33.377 14.5557 33.1552 14.9186 33.0069 15.1424C32.9365 15.2494 32.4508 15.9839 31.9276 16.7749C31.4042 17.5659 30.9252 18.3034 30.8631 18.4139C30.801 18.5242 30.661 18.75 30.5516 18.9156C30.4427 19.0812 30.31 19.307 30.2573 19.4173C30.2044 19.5277 30.0984 19.6708 30.0213 19.7353C29.915 19.8243 29.8919 19.8973 29.9251 20.0364C30.0125 20.402 29.8313 20.385 33.8303 20.4033L37.5606 20.4206L37.5826 20.6127C37.5947 20.7184 37.5864 20.8763 37.5646 20.964L37.5244 21.1231H32.9698C28.7675 21.1231 28.4101 21.1144 28.3517 21.0104C28.2837 20.8886 28.38 20.5922 28.5157 20.506C28.5576 20.4793 28.6298 20.3662 28.676 20.2552C28.7223 20.1437 28.7832 20.0527 28.8114 20.0527C28.8398 20.0527 28.9274 19.9251 29.0058 19.7685C29.0846 19.6123 29.2687 19.3187 29.4155 19.1162C29.562 18.9139 29.682 18.7146 29.6823 18.6728C29.6823 18.6312 29.7297 18.5584 29.7869 18.5108C29.9069 18.4116 30.3528 17.757 30.3528 17.68C30.3528 17.652 30.4434 17.5258 30.5539 17.4001C30.6647 17.2746 30.7552 17.1321 30.7552 17.084C30.7552 17.0358 30.8154 16.9419 30.8893 16.8753C30.9629 16.8088 31.0233 16.7191 31.0233 16.6763C31.0233 16.6332 31.1129 16.48 31.2225 16.3355C31.332 16.191 31.4226 16.0451 31.4236 16.0114C31.4245 15.9776 31.4712 15.9023 31.5272 15.8441C31.6593 15.706 32.0961 15.0524 32.0961 14.9929C32.0961 14.9675 32.1417 14.8989 32.1977 14.8407C32.3382 14.6939 32.7666 14.0473 32.7666 13.9818C32.7666 13.9523 32.827 13.8768 32.9006 13.8135C32.9745 13.7507 33.0347 13.6577 33.0347 13.6072C33.0347 13.557 33.1252 13.4018 33.236 13.263C33.3465 13.1242 33.4371 12.9693 33.4371 12.9192C33.4371 12.8693 33.4665 12.8282 33.5028 12.8282C33.539 12.8282 33.6369 12.7051 33.7206 12.5549C33.8045 12.4044 33.9235 12.1907 33.9853 12.0793C34.0472 11.9683 34.1541 11.8127 34.2233 11.7341C34.4173 11.5127 34.7111 11.0565 34.7111 10.9765C34.7111 10.9371 34.7582 10.8655 34.8155 10.818C34.9487 10.708 35.3814 10.0601 35.3814 9.97145C35.3814 9.93433 35.4496 9.82864 35.5324 9.73598C35.6154 9.64367 35.7436 9.46707 35.8172 9.34365C35.891 9.22022 36.0181 9.01286 36.0999 8.88308C36.1817 8.75331 36.2977 8.54293 36.3583 8.41516C36.4785 8.16196 36.5793 8.02248 37.1079 7.37963C37.3017 7.14416 37.46 6.93545 37.46 6.91604C37.46 6.85048 38.058 6.31935 38.5997 5.90393C38.7657 5.77684 38.9619 5.62632 39.0355 5.56946C39.166 5.46878 39.3934 5.33868 39.8737 5.08983C40.0028 5.02294 40.1385 4.9353 40.1754 4.8955C40.2124 4.85536 40.3782 4.78479 40.5442 4.73829C40.7101 4.6918 40.8911 4.61488 40.9464 4.56704C41.0019 4.51922 41.2281 4.44363 41.4493 4.3988C41.6706 4.35398 41.9347 4.27472 42.0364 4.22288C42.4162 4.02821 44.8218 3.92887 45.9621 4.06065Z" fill="white" style="fill:white;fill-opacity:1;"/>
<path d="M4.94531 32.4381V31.8803L7.48249 28.8159H5.02517V28.1477H8.46542V28.7055L5.92824 31.77H8.46542V32.4381H4.94531ZM9.41239 32.4381V28.1477H12.6008V28.822H10.168V29.9375H12.3243V30.6116H10.168V31.7639H12.6315V32.4381H9.41239ZM13.5279 32.4381V28.1477H15.2235C15.7231 28.1477 16.1204 28.2785 16.4153 28.5399C16.7101 28.8015 16.8576 29.1529 16.8576 29.5941C16.8576 30.0559 16.6938 30.4155 16.3661 30.673C16.0426 30.9304 15.633 31.0591 15.1375 31.0591H14.2835V32.4381H13.5279ZM14.2835 30.3787H15.162C15.4446 30.3787 15.6699 30.3072 15.8378 30.1642C16.0057 30.0212 16.0897 29.8333 16.0897 29.6003C16.0897 29.3552 16.0057 29.1673 15.8378 29.0365C15.674 28.9016 15.4487 28.8342 15.162 28.8342H14.2835V30.3787ZM17.6314 32.4381V28.1477H18.3871V29.9314H20.4389V28.1477H21.1946V32.4381H20.4389V30.6301H18.3871V32.4381H17.6314ZM23.5645 32.4381V30.7465L21.8565 28.1477H22.7474L23.9515 30.0478L25.1679 28.1477H26.034L24.3262 30.7281V32.4381H23.5645ZM26.6964 32.4381V28.1477H28.6131C29.1128 28.1477 29.5039 28.2724 29.7865 28.5216C30.069 28.7668 30.2104 29.0977 30.2104 29.5145C30.2104 29.8537 30.1182 30.1335 29.9339 30.3543C29.7496 30.5708 29.4998 30.724 29.1845 30.8139L30.3456 32.4381H29.4548L28.3859 30.9427H27.452V32.4381H26.6964ZM27.452 30.2745H28.5578C28.8281 30.2745 29.0431 30.2091 29.2029 30.0783C29.3626 29.9477 29.4425 29.7699 29.4425 29.5451C29.4425 29.3164 29.3646 29.1407 29.209 29.018C29.0534 28.8954 28.8342 28.8342 28.5517 28.8342H27.452V30.2745ZM32.899 32.5055C32.3298 32.5055 31.8813 32.3442 31.5537 32.0213C31.2301 31.6985 31.0682 31.2307 31.0682 30.6178V28.1477H31.824V30.5871C31.824 30.9793 31.9202 31.2817 32.1126 31.4942C32.3051 31.7068 32.5713 31.8129 32.9113 31.8129C33.2512 31.8129 33.5154 31.7109 33.7038 31.5064C33.8963 31.3022 33.9926 31.0059 33.9926 30.6178V28.1477H34.7482V30.581C34.7482 31.2062 34.5843 31.6843 34.2568 32.0152C33.929 32.342 33.4765 32.5055 32.899 32.5055ZM37.2905 32.4994C36.6064 32.4994 36.0086 32.2705 35.4966 31.8129L35.9512 31.2736C36.3813 31.6455 36.8339 31.8314 37.3089 31.8314C37.5423 31.8314 37.7267 31.7824 37.8617 31.6843C38.0011 31.5821 38.0706 31.4473 38.0706 31.2797C38.0706 31.1203 38.0051 30.9937 37.8741 30.8997C37.743 30.8016 37.485 30.7077 37.1 30.6178C36.6003 30.4993 36.2358 30.3501 36.0064 30.1703C35.7813 29.9865 35.6686 29.7066 35.6686 29.3306C35.6686 28.9628 35.8058 28.6646 36.0803 28.4357C36.3547 28.2029 36.7069 28.0864 37.1369 28.0864C37.7267 28.0864 38.2467 28.2663 38.6973 28.6258L38.2919 29.1958C37.8945 28.9016 37.5055 28.7544 37.1247 28.7544C36.9075 28.7544 36.7355 28.8035 36.6086 28.9016C36.4856 28.9996 36.4242 29.1243 36.4242 29.2754C36.4242 29.443 36.4919 29.5738 36.627 29.6678C36.7662 29.7576 37.0386 29.8516 37.4441 29.9497C37.9192 30.0641 38.2672 30.2174 38.4884 30.4094C38.7136 30.6015 38.8264 30.8712 38.8264 31.2184C38.8264 31.6148 38.685 31.9274 38.4025 32.1563C38.1198 32.385 37.7492 32.4994 37.2905 32.4994ZM43.5532 32.5116C42.9307 32.5116 42.4106 32.2993 41.9929 31.8742C41.5751 31.4452 41.3662 30.9181 41.3662 30.2928C41.3662 29.6718 41.5751 29.1468 41.9929 28.7178C42.4106 28.2887 42.941 28.0742 43.584 28.0742C43.9567 28.0742 44.272 28.1314 44.5301 28.2458C44.7921 28.3602 45.0379 28.5257 45.2673 28.7422L44.782 29.3C44.397 28.9445 43.9956 28.7668 43.5779 28.7668C43.1682 28.7668 42.8284 28.9138 42.5581 29.2081C42.2918 29.5023 42.1587 29.8638 42.1587 30.2928C42.1587 30.7179 42.2939 31.0796 42.5642 31.3778C42.8345 31.6721 43.1723 31.819 43.5779 31.819C43.8235 31.819 44.0406 31.7741 44.229 31.6843C44.4174 31.5903 44.612 31.4493 44.8126 31.2614L45.2979 31.7517C45.0563 32.005 44.8004 32.1951 44.5301 32.3217C44.2598 32.4484 43.9342 32.5116 43.5532 32.5116ZM45.7236 32.4381L47.6157 28.117H48.3161L50.2081 32.4381H49.4095L48.9734 31.4022H46.94L46.4976 32.4381H45.7236ZM47.2164 30.7343H48.697L47.9536 29.018L47.2164 30.7343ZM50.9455 32.4381V28.1477H52.6411C53.1408 28.1477 53.538 28.2785 53.833 28.5399C54.1278 28.8015 54.2752 29.1529 54.2752 29.5941C54.2752 30.0559 54.1114 30.4155 53.7838 30.673C53.4602 30.9304 53.0507 31.0591 52.5552 31.0591H51.7013V32.4381H50.9455ZM51.7013 30.3787H52.5797C52.8624 30.3787 53.0877 30.3072 53.2555 30.1642C53.4233 30.0212 53.5074 29.8333 53.5074 29.6003C53.5074 29.3552 53.4233 29.1673 53.2555 29.0365C53.0916 28.9016 52.8664 28.8342 52.5797 28.8342H51.7013V30.3787ZM55.0921 32.4381V28.1477H55.8478V32.4381H55.0921ZM58.0555 32.4381V28.8464H56.6918V28.1477H60.1811V28.8464H58.8174V32.4381H58.0555ZM60.0619 32.4381L61.9541 28.117H62.6544L64.5466 32.4381H63.748L63.3117 31.4022H61.2783L60.836 32.4381H60.0619ZM61.5547 30.7343H63.0352L62.2919 29.018L61.5547 30.7343ZM65.284 32.4381V28.1477H66.0395V31.7517H68.3003V32.4381H65.284Z" fill="white" style="fill:white;fill-opacity:1;"/>
<path fill-rule="evenodd" clip-rule="evenodd" d="M26.3632 4.13752C26.339 4.21444 26.3384 4.38001 26.3619 4.50543L26.4047 4.73388L31.38 4.73489C34.1165 4.73555 36.3922 4.7593 36.4374 4.78807C36.608 4.8961 36.1764 5.84267 35.823 6.13532C35.7656 6.18282 35.7184 6.25272 35.7184 6.29052C35.7184 6.38049 35.2869 7.02736 35.1525 7.13873C35.0952 7.18624 35.0479 7.25615 35.0479 7.29393C35.0479 7.38391 34.6164 8.03077 34.482 8.14216C34.4247 8.18965 34.3774 8.25956 34.3774 8.29736C34.3774 8.38732 33.946 9.0342 33.8115 9.14557C33.7542 9.19308 33.7069 9.26298 33.7069 9.30077C33.7069 9.39075 33.2755 10.0376 33.1409 10.149C33.0837 10.1965 33.0365 10.2694 33.0365 10.3109C33.0362 10.3527 32.916 10.552 32.7695 10.7544C32.6227 10.9567 32.4387 11.2504 32.3599 11.4066C32.2814 11.5632 32.194 11.6909 32.1656 11.6909C32.1373 11.6909 32.0763 11.7819 32.03 11.8933C31.9838 12.0043 31.9117 12.1174 31.8698 12.1441C31.8276 12.1709 31.7554 12.2679 31.7096 12.3599C31.6099 12.5579 31.3448 12.9475 31.1969 13.1124C31.1393 13.177 31.092 13.2532 31.092 13.282C31.092 13.3536 30.6549 14.0406 30.5258 14.1717C30.4685 14.2299 30.4215 14.2985 30.4215 14.3239C30.4215 14.3834 29.9847 15.037 29.8526 15.1751C29.7967 15.2333 29.751 15.3019 29.751 15.3273C29.751 15.3868 29.3142 16.0404 29.1821 16.1785C29.1262 16.2367 29.0806 16.3053 29.0806 16.3307C29.0806 16.3903 28.6438 17.0439 28.5118 17.1819C28.4557 17.2402 28.4101 17.3087 28.4101 17.3342C28.4101 17.3936 27.9733 18.0472 27.8412 18.1853C27.7851 18.2436 27.7396 18.3121 27.7396 18.3375C27.7396 18.3972 27.3028 19.0506 27.1707 19.1888C27.1148 19.247 27.0691 19.3155 27.0691 19.3409C27.0691 19.3905 26.6545 20.0233 26.5163 20.1841C26.2394 20.5066 26.2844 20.8184 26.6303 20.9756C26.9072 21.1016 26.9897 21.0086 28.1296 19.2848C28.7139 18.4011 29.2498 17.5906 29.3206 17.4836C29.3913 17.3769 29.5097 17.1923 29.5835 17.0736C29.6571 16.9545 29.8081 16.7284 29.9187 16.5709C30.0294 16.4137 30.1802 16.1879 30.254 16.0692C30.3277 15.9508 30.4786 15.725 30.5892 15.5674C30.7909 15.2805 30.9834 14.9751 31.1979 14.6008C31.2613 14.4904 31.3689 14.3607 31.4373 14.3128C31.5053 14.2647 31.5621 14.1894 31.5627 14.1456C31.5641 14.055 31.9044 13.5205 32.0679 13.3522C32.1273 13.291 32.2265 13.1506 32.2879 13.0402C32.5886 12.499 32.6633 12.3866 32.7783 12.306C32.8463 12.2578 32.9029 12.1826 32.9036 12.1388C32.9051 12.0481 33.2452 11.5136 33.4089 11.3454C33.4682 11.2842 33.5675 11.1437 33.6287 11.0333C33.9295 10.4922 34.0043 10.3798 34.1193 10.2992C34.1873 10.251 34.244 10.1757 34.2446 10.1319C34.2459 10.0413 34.5862 9.50681 34.7498 9.33856C34.8092 9.27736 34.9083 9.13721 34.9697 9.0265C35.145 8.71177 35.3715 8.33748 35.5699 8.03513C35.9855 7.40097 36.2798 6.96516 36.3982 6.80762C36.4677 6.71563 36.5514 6.58017 36.5847 6.50659C36.6181 6.433 36.9778 5.87677 37.3845 5.27104C37.9373 4.44691 38.106 4.14755 38.0527 4.08367C37.9961 4.01544 36.8093 3.99805 32.1947 3.99805H26.4077L26.3632 4.13752ZM42.7085 4.07196C42.441 4.10273 42.1393 4.17063 42.038 4.22282C41.9364 4.27465 41.6722 4.35392 41.4511 4.39874C41.2298 4.44356 41.0035 4.51916 40.9481 4.56698C40.8928 4.6148 40.7117 4.69174 40.5459 4.73823C40.3798 4.78473 40.214 4.85529 40.1771 4.89544C40.1402 4.93524 40.0044 5.02287 39.8753 5.08976C39.395 5.3386 39.1676 5.46871 39.0373 5.5694C38.9635 5.62625 38.7674 5.77676 38.6014 5.90387C38.0596 6.31929 37.4616 6.85042 37.4616 6.91598C37.4616 6.93538 37.3034 7.1441 37.1096 7.37955C36.5809 8.02242 36.4801 8.16189 36.3601 8.41508C36.2993 8.54285 36.1833 8.75323 36.1016 8.88302C36.0198 9.0128 35.8927 9.22016 35.819 9.34359C35.7452 9.46701 35.6171 9.64361 35.534 9.73592C35.4512 9.82856 35.383 9.93427 35.383 9.97139C35.383 10.06 34.9504 10.7079 34.8173 10.8179C34.7599 10.8654 34.7127 10.937 34.7127 10.9765C34.7127 11.0564 34.4189 11.5126 34.2249 11.7341C34.1557 11.8127 34.0488 11.9682 33.9869 12.0792C33.9252 12.1906 33.8062 12.4043 33.7224 12.5549C33.6385 12.705 33.5407 12.8281 33.5044 12.8281C33.4682 12.8281 33.4387 12.8693 33.4387 12.9191C33.4387 12.9693 33.3482 13.1241 33.2376 13.2629C33.1269 13.4017 33.0365 13.5569 33.0365 13.6071C33.0365 13.6576 32.9761 13.7506 32.9023 13.8135C32.8286 13.8767 32.7682 13.9523 32.7682 13.9817C32.7682 14.0473 32.3398 14.6938 32.1993 14.8406C32.1434 14.8988 32.0977 14.9674 32.0977 14.9928C32.0977 15.0524 31.6609 15.7059 31.5288 15.8441C31.4729 15.9023 31.4262 15.9775 31.4252 16.0113C31.4242 16.0451 31.3337 16.1909 31.2241 16.3354C31.1145 16.4799 31.025 16.6332 31.025 16.6763C31.025 16.719 30.9646 16.8087 30.8909 16.8752C30.8171 16.9418 30.7568 17.0358 30.7568 17.084C30.7568 17.132 30.6663 17.2746 30.5556 17.4001C30.445 17.5257 30.3545 17.6519 30.3545 17.68C30.3545 17.7569 29.9086 18.4115 29.7886 18.5108C29.7313 18.5583 29.684 18.6312 29.684 18.6728C29.6836 18.7146 29.5636 18.9139 29.4171 19.1162C29.2703 19.3186 29.0863 19.6122 29.0075 19.7685C28.929 19.925 28.8416 20.0527 28.813 20.0527C28.7849 20.0527 28.724 20.1437 28.6776 20.2551C28.6314 20.3661 28.5593 20.4792 28.5174 20.506C28.3817 20.5922 28.2853 20.8886 28.3535 21.0103C28.4118 21.1143 28.7691 21.1231 32.9715 21.1231H37.526L37.5662 20.9639C37.5881 20.8762 37.5963 20.7183 37.5843 20.6126L37.5622 20.4206L33.832 20.4032C29.8329 20.3849 30.0142 20.4019 29.9268 20.0363C29.8935 19.8973 29.9167 19.8243 30.0229 19.7353C30.1001 19.6707 30.206 19.5275 30.259 19.4172C30.3116 19.3069 30.4443 19.0812 30.5533 18.9155C30.6627 18.7499 30.8027 18.5241 30.8648 18.4138C30.9268 18.3034 31.4058 17.5659 31.9292 16.7748C32.4524 15.9839 32.9382 15.2494 33.0085 15.1423C33.1568 14.9186 33.3788 14.5557 33.5446 14.2664C33.608 14.156 33.7156 14.0262 33.784 13.9784C33.852 13.9302 33.9088 13.8549 33.9094 13.8111C33.9108 13.7158 34.2534 13.1843 34.4351 12.9954C34.5058 12.9218 34.5839 12.795 34.6084 12.7137C34.6683 12.5151 35.1561 12.1301 35.2192 12.2321C35.2453 12.2739 35.2923 12.6886 35.3238 13.1536C35.3938 14.1924 35.4337 14.4771 35.5457 14.7346C35.5936 14.845 35.6995 15.131 35.7811 15.3701C36.0453 16.1454 36.1251 16.326 36.2919 16.5237C36.3821 16.6307 36.4559 16.7471 36.4559 16.7826C36.4559 16.8495 36.6358 17.1211 36.9252 17.4907C37.0174 17.6085 37.1532 17.786 37.2269 17.8851C37.5937 18.3777 38.8144 19.424 39.3785 19.7287C39.5043 19.7965 39.7141 19.9097 39.8449 19.9802C39.9756 20.0507 40.1192 20.138 40.1633 20.1745C40.2079 20.2109 40.4151 20.2901 40.624 20.3504C40.8332 20.411 41.0383 20.5015 41.0798 20.5517C41.1219 20.6019 41.3129 20.6645 41.5047 20.6906C41.6964 20.7167 41.989 20.7905 42.155 20.8551C42.785 21.0996 45.4639 21.1815 46.2623 20.9802C46.5343 20.912 46.5281 20.9434 46.3797 20.3872C46.3274 20.1909 46.0968 20.1788 45.0873 20.3197C44.6459 20.3811 44.3877 20.3836 44.048 20.3279C43.7998 20.2875 43.2741 20.2109 42.8798 20.1574C42.4856 20.1039 42.0772 20.016 41.9723 19.9617C41.8673 19.9078 41.6618 19.8423 41.5156 19.8162C41.3695 19.7901 41.1442 19.7136 41.0151 19.6459C40.8862 19.5784 40.6675 19.4785 40.5291 19.4237C40.3909 19.3687 40.2777 19.2955 40.2777 19.2607C40.2777 19.226 40.1948 19.1774 40.0933 19.1527C39.9061 19.1072 39.5907 18.9142 39.1044 18.5486C38.7586 18.2887 37.596 17.098 37.5957 17.0041C37.5957 16.9646 37.5247 16.8655 37.4378 16.7839C37.1089 16.4759 36.3543 14.7791 36.253 14.1205C36.2202 13.9065 36.1585 13.5208 36.1156 13.2639C35.8842 11.8692 36.3876 9.88443 37.305 8.5753C37.4649 8.34685 37.5957 8.12276 37.5957 8.07693C37.5957 7.94247 38.8006 6.75477 39.2384 6.45776C39.4597 6.30758 39.6579 6.1594 39.6782 6.12796C39.7419 6.03196 41.3018 5.26905 41.4342 5.26905C41.5029 5.26905 41.6856 5.21184 41.8402 5.14161C41.9948 5.07171 42.3025 4.99444 42.5238 4.97001C42.7451 4.94561 43.1653 4.87939 43.4578 4.82286C44.0273 4.71281 45.157 4.7302 45.8295 4.85931C46.025 4.89678 46.2251 4.91215 46.2741 4.89342C46.3542 4.86266 46.5339 4.19872 46.4773 4.1412C46.3509 4.01243 43.6491 3.96259 42.7085 4.07196Z" fill="white" style="fill:white;fill-opacity:1;"/>
</g>
</svg>
