<svg width="194" height="37" viewBox="0 0 194 37" fill="none" xmlns="http://www.w3.org/2000/svg">
<g clip-path="url(#clip0_5880_869)">
<path d="M29.2817 1.53117C29.2817 1.47214 29.2582 1.41552 29.2165 1.37378C29.1747 1.33204 29.1181 1.30859 29.0591 1.30859H22.0663C22.0073 1.30859 21.9507 1.33204 21.9089 1.37378C21.8672 1.41552 21.8437 1.47214 21.8438 1.53117V1.56498C21.8437 1.62401 21.8672 1.68062 21.9089 1.72236C21.9507 1.7641 22.0073 1.78755 22.0663 1.78755H29.0591C29.1181 1.78755 29.1747 1.7641 29.2165 1.72236C29.2582 1.68062 29.2817 1.62401 29.2817 1.56498V1.53117Z" stroke="#999B9D" style="stroke:#999B9D;stroke:color(display-p3 0.6000 0.6078 0.6157);stroke-opacity:1;" stroke-width="0.563478"/>
<path d="M127.006 1.58057C127.006 1.54505 126.999 1.50989 126.986 1.4771C126.972 1.4443 126.952 1.41452 126.927 1.38945C126.902 1.36437 126.872 1.3445 126.839 1.33096C126.806 1.31743 126.771 1.31049 126.735 1.31055L101.661 1.35433C101.625 1.35439 101.59 1.36145 101.557 1.3751C101.524 1.38875 101.495 1.40873 101.47 1.43389C101.444 1.45905 101.425 1.4889 101.411 1.52174C101.397 1.55458 101.391 1.58976 101.391 1.62528L101.4 7.17551C101.4 7.21103 101.407 7.24619 101.421 7.27898C101.435 7.31177 101.455 7.34156 101.48 7.36663C101.505 7.3917 101.535 7.41158 101.568 7.42511C101.601 7.43865 101.636 7.44559 101.671 7.44553L126.746 7.40175C126.782 7.40168 126.817 7.39463 126.849 7.38098C126.882 7.36733 126.912 7.34735 126.937 7.32219C126.962 7.29703 126.982 7.26718 126.996 7.23434C127.009 7.2015 127.016 7.16632 127.016 7.1308L127.006 1.58057Z" stroke="#999B9D" style="stroke:#999B9D;stroke:color(display-p3 0.6000 0.6078 0.6157);stroke-opacity:1;" stroke-width="0.563478"/>
<path d="M10.6417 24.8116C9.25737 23.001 8.53894 21.0316 8.48635 18.9035C8.39431 15.3123 8.36895 9.64747 8.41028 1.90903C8.41108 1.85174 8.39457 1.79553 8.3629 1.74777C8.33123 1.70002 8.28588 1.66294 8.23278 1.64138C7.78575 1.46483 7.30586 1.37373 6.79309 1.36809C4.33257 1.34743 2.22516 1.35213 0.470866 1.38218C0.429512 1.38292 0.390103 1.39987 0.361122 1.42938C0.33214 1.45889 0.315905 1.4986 0.315911 1.53996C0.282103 5.09363 0.280223 10.4852 0.310275 17.7146C0.335632 23.4424 2.95862 29.0771 7.8637 32.1763C10.8699 34.0752 14.5437 34.788 18.2092 34.7908C23.1997 34.7908 26.8313 34.7805 29.104 34.7598C29.3689 34.7579 29.5013 34.6246 29.5013 34.3598V28.2883C29.5013 28.2071 29.4719 28.1287 29.4186 28.0676C29.3652 28.0064 29.2915 27.9667 29.2111 27.9558C28.95 27.9183 28.6598 27.8995 28.3405 27.8995C22.7602 27.8788 19.5925 27.8751 18.8374 27.8882C15.851 27.9389 12.5885 27.3557 10.6417 24.8116Z" stroke="#999B9D" style="stroke:#999B9D;stroke:color(display-p3 0.6000 0.6078 0.6157);stroke-opacity:1;" stroke-width="0.563478"/>
<path d="M43.0244 8.54185C43.8321 8.53621 44.6407 8.60101 45.4502 8.73625C49.9637 9.48849 54.0799 11.0465 55.6182 15.7262C55.915 16.6296 56.0633 18.4525 56.0633 21.1948C56.0652 24.1417 56.0615 28.5895 56.0521 34.5379C56.0521 34.5917 56.0734 34.6433 56.1115 34.6814C56.1495 34.7194 56.2011 34.7408 56.2549 34.7408H63.5041C63.5502 34.7408 63.5958 34.7316 63.6384 34.7139C63.681 34.6962 63.7196 34.6702 63.7521 34.6374C63.7846 34.6047 63.8102 34.5659 63.8276 34.5232C63.845 34.4804 63.8538 34.4347 63.8534 34.3886C63.8252 29.7568 63.8215 25.3053 63.8422 21.0342C63.8553 18.4741 63.7332 16.6071 63.4759 15.4332C61.5234 6.51896 52.9276 2.03931 44.3543 1.50682C41.5218 1.33214 38.4678 1.30866 35.1921 1.43639C35.1057 1.44014 35.0625 1.48616 35.0625 1.57444V34.5464C35.0625 34.5949 35.0818 34.6415 35.1161 34.6759C35.1505 34.7102 35.1971 34.7295 35.2456 34.7295H42.8131C42.8774 34.7295 42.939 34.7043 42.9845 34.6594C43.0299 34.6144 43.0554 34.5535 43.0554 34.49C43.0667 28.8721 43.062 21.6624 43.0413 12.8609C43.0395 11.5236 42.9991 10.1205 42.9202 8.65172C42.9194 8.63757 42.9216 8.62341 42.9265 8.6101C42.9314 8.5968 42.9389 8.58463 42.9487 8.57434C42.9584 8.56406 42.9702 8.55587 42.9832 8.55028C42.9962 8.5447 43.0103 8.54182 43.0244 8.54185Z" stroke="#999B9D" style="stroke:#999B9D;stroke:color(display-p3 0.6000 0.6078 0.6157);stroke-opacity:1;" stroke-width="0.563478"/>
<path d="M143.914 1.39063C143.868 1.39041 143.823 1.40116 143.782 1.42198C143.741 1.4428 143.706 1.47309 143.679 1.51031C143.652 1.54754 143.635 1.59062 143.628 1.63597C143.621 1.68131 143.626 1.7276 143.64 1.77098L154.862 34.5175C154.882 34.5744 154.918 34.6238 154.967 34.6587C155.016 34.6936 155.075 34.7122 155.135 34.7119H163.3C163.346 34.7121 163.391 34.7014 163.432 34.6806C163.473 34.6597 163.508 34.6295 163.535 34.5922C163.562 34.555 163.579 34.5119 163.586 34.4666C163.593 34.4212 163.588 34.3749 163.573 34.3316L152.352 1.58503C152.332 1.52809 152.296 1.47871 152.246 1.44383C152.197 1.40895 152.139 1.39034 152.079 1.39063H143.914Z" stroke="#999B9D" style="stroke:#999B9D;stroke:color(display-p3 0.6000 0.6078 0.6157);stroke-opacity:1;" stroke-width="0.563478"/>
<path d="M70.1771 2.00391C69.5141 3.63799 69.4568 5.36224 70.0052 7.17664" stroke="#999B9D" style="stroke:#999B9D;stroke:color(display-p3 0.6000 0.6078 0.6157);stroke-opacity:1;" stroke-width="0.563478"/>
<path d="M70.0037 7.17578C69.643 7.40869 69.7726 7.53171 70.3925 7.54486C73.9574 7.61811 77.528 7.63126 81.1042 7.5843C83.7544 7.54862 85.9341 8.61735 87.6433 10.7905" stroke="#999B9D" style="stroke:#999B9D;stroke:color(display-p3 0.6000 0.6078 0.6157);stroke-opacity:1;" stroke-width="0.563478"/>
<path d="M87.6484 10.7891C88.3979 12.3236 88.9294 13.9201 89.2431 15.5786C89.2966 15.8547 89.4488 16.0829 89.5868 16.3196C89.6319 16.4004 89.6215 16.4727 89.5558 16.5365C89.475 16.6136 89.4318 16.6896 89.4262 16.7647" stroke="#999B9D" style="stroke:#999B9D;stroke:color(display-p3 0.6000 0.6078 0.6157);stroke-opacity:1;" stroke-width="0.563478"/>
<path d="M89.4232 16.7671C89.3368 16.8553 89.3209 16.9483 89.3753 17.046C89.4204 17.1267 89.4899 17.1671 89.5838 17.1671H96.5428C96.6517 17.1671 96.7062 17.1136 96.7062 17.0065V16.9192C96.7062 16.7765 96.6348 16.7051 96.4921 16.7051L89.5219 16.7079" stroke="#999B9D" style="stroke:#999B9D;stroke:color(display-p3 0.6000 0.6078 0.6157);stroke-opacity:1;" stroke-width="0.563478"/>
<path d="M89.5234 16.7078L96.6176 16.6825C96.6533 16.6825 96.6768 16.6656 96.6881 16.6317C96.7012 16.5885 96.6928 16.5519 96.6627 16.5219C96.6517 16.51 96.6443 16.495 96.6413 16.4786C96.6383 16.4622 96.6399 16.445 96.6458 16.4289C97.0459 15.4203 96.9707 14.4173 96.4204 13.4199" stroke="#999B9D" style="stroke:#999B9D;stroke:color(display-p3 0.6000 0.6078 0.6157);stroke-opacity:1;" stroke-width="0.563478"/>
<path d="M96.4139 13.4181C96.0195 9.36388 93.6275 5.14061 89.9846 3.1149C88.1139 2.07623 86.2103 1.55876 84.2738 1.56252C81.2103 1.57003 76.7711 1.57755 70.956 1.58506C70.5409 1.58506 70.1652 1.61229 69.829 1.66676C69.5698 1.70996 69.5576 1.78979 69.7924 1.90624C69.8675 1.94381 69.9943 1.97574 70.1727 2.00203" stroke="#999B9D" style="stroke:#999B9D;stroke:color(display-p3 0.6000 0.6078 0.6157);stroke-opacity:1;" stroke-width="0.563478"/>
<path d="M96.4131 13.4189C95.7312 11.0486 95.1002 9.3957 94.5198 8.46033C93.6088 6.99341 92.8707 5.98666 92.3053 5.44009C89.9875 3.19369 87.1908 2.05452 83.9151 2.02259C79.3434 1.97939 74.7623 1.97282 70.1719 2.00287" stroke="#999B9D" style="stroke:#999B9D;stroke:color(display-p3 0.6000 0.6078 0.6157);stroke-opacity:1;" stroke-width="0.563478"/>
<path d="M89.5205 16.707C89.4886 16.7277 89.4557 16.7474 89.4219 16.7662" stroke="#999B9D" style="stroke:#999B9D;stroke:color(display-p3 0.6000 0.6078 0.6157);stroke-opacity:1;" stroke-width="0.563478"/>
<path d="M87.6475 10.7905C86.5299 8.37694 84.4657 7.17203 81.4549 7.17579C77.6251 7.17767 73.8094 7.17767 70.0078 7.17579" stroke="#999B9D" style="stroke:#999B9D;stroke:color(display-p3 0.6000 0.6078 0.6157);stroke-opacity:1;" stroke-width="0.563478"/>
<path d="M180.554 29.7059C177.768 29.0185 175.891 26.6068 175.897 23.7133C175.905 20.0526 175.904 13.0533 175.894 2.71531C175.894 2.68142 175.881 2.64888 175.856 2.62465C175.832 2.60043 175.799 2.58645 175.765 2.58571C173.843 2.5782 171.736 2.5782 169.442 2.58571C168.868 2.58759 168.377 2.6599 167.972 2.80265C167.9 2.82735 167.838 2.87404 167.794 2.93618C167.75 2.99832 167.726 3.0728 167.727 3.14919C167.745 9.7494 167.758 16.3721 167.763 23.0174C167.765 25.6564 167.913 27.4783 168.206 28.4832C169.44 32.7233 173.415 35.4928 177.779 35.8591C178.549 35.923 179.359 35.9558 180.208 35.9577C184.943 35.9671 189.398 35.9652 193.573 35.9521C193.718 35.9502 193.79 35.8779 193.79 35.7351V30.1173C193.79 30.0565 193.766 29.9981 193.723 29.9549C193.679 29.9116 193.621 29.887 193.559 29.8862C192.506 29.8862 189.074 29.8872 183.264 29.8891C181.955 29.8891 181.052 29.828 180.554 29.7059Z" stroke="#999B9D" style="stroke:#999B9D;stroke:color(display-p3 0.6000 0.6078 0.6157);stroke-opacity:1;" stroke-width="0.563478"/>
<path d="M29.2215 18.9516C29.0665 18.9939 28.827 19.0896 28.6495 19.0896C27.068 19.0821 24.8836 19.0887 22.0963 19.1094C22.0796 19.1098 22.0632 19.1142 22.0485 19.1221C22.0338 19.13 22.0211 19.1413 22.0115 19.155C22.002 19.1687 21.9957 19.1844 21.9933 19.201C21.9909 19.2175 21.9924 19.2344 21.9977 19.2502L22.0343 19.3573C22.0512 19.408 22.086 19.4334 22.1385 19.4334C24.1746 19.4315 26.2012 19.4202 28.2185 19.3996C28.7049 19.3939 29.1595 19.3009 29.5821 19.1206C29.6147 19.1066 29.6423 19.0832 29.6614 19.0536C29.6805 19.0239 29.6902 18.9894 29.6892 18.9544L29.5849 11.2601C29.5849 11.2056 29.5661 11.1869 29.5286 11.2038C29.5211 11.2075 29.5164 11.2075 29.5145 11.2038C29.5145 11.2015 29.5136 11.1994 29.512 11.1978C29.5104 11.1962 29.5083 11.1953 29.506 11.1953C29.5038 11.1953 29.5016 11.1962 29.5001 11.1978C29.4985 11.1994 29.4976 11.2015 29.4976 11.2038C29.4337 11.8161 29.3999 12.2246 29.3961 12.4293C29.3548 14.5668 29.3342 16.692 29.3342 18.8051C29.3341 18.8385 29.323 18.8709 29.3026 18.8974C29.2823 18.9239 29.2537 18.9429 29.2215 18.9516Z" stroke="#999B9D" style="stroke:#999B9D;stroke:color(display-p3 0.6000 0.6078 0.6157);stroke-opacity:1;" stroke-width="0.563478"/>
<path d="M110.861 28.6389C110.878 28.3478 110.958 28.0801 111.101 27.836C114.518 21.9786 120.257 20.2487 126.726 20.1896C126.804 20.1888 126.879 20.1573 126.934 20.1019C126.988 20.0465 127.019 19.9717 127.019 19.8937V13.2926C127.019 13.2806 127.017 13.2688 127.012 13.2578C127.007 13.2468 127 13.2369 126.992 13.2288C126.983 13.2206 126.973 13.2143 126.961 13.2102C126.95 13.2062 126.938 13.2045 126.926 13.2053C124.546 13.3151 122.362 13.4081 120.072 13.9152C118.441 14.274 117.387 14.536 116.908 14.7013C109.017 17.4267 104.167 22.8642 102.359 31.014C102.084 32.2499 101.939 33.4163 101.922 34.5132C101.92 34.6428 101.985 34.7076 102.116 34.7076H126.909C126.941 34.7076 126.971 34.6951 126.993 34.6729C127.015 34.6507 127.028 34.6206 127.028 34.5893V28.8559C127.028 28.8379 127.021 28.8207 127.008 28.8081C126.995 28.7954 126.978 28.7883 126.96 28.7883H111C110.9 28.7883 110.854 28.7385 110.861 28.6389Z" stroke="#999B9D" style="stroke:#999B9D;stroke:color(display-p3 0.6000 0.6078 0.6157);stroke-opacity:1;" stroke-width="0.563478"/>
<path d="M77.4689 23.9655C82.4754 24.329 87.7749 26.535 89.1554 31.8091C89.3526 32.5614 89.4907 33.832 89.5301 34.7843C89.5339 34.8838 89.5865 34.9336 89.6879 34.9336H96.6609C96.6983 34.9336 96.7341 34.9188 96.7606 34.8924C96.787 34.8659 96.8018 34.8301 96.8018 34.7927C96.7323 28.7278 94.3713 24.1195 89.7189 20.9678C85.9802 18.4322 80.923 17.0516 76.5955 16.9615C74.8412 16.9258 72.5769 16.9201 69.8028 16.9446C69.7051 16.9446 69.6562 16.9934 69.6562 17.0911V34.6152C69.6562 34.82 69.7596 34.9223 69.9662 34.9223H77.1392C77.1938 34.9223 77.2461 34.901 77.2847 34.8629C77.3232 34.8249 77.3449 34.7733 77.3449 34.7195V24.081C77.3449 24.0651 77.3481 24.0494 77.3544 24.0348C77.3608 24.0202 77.37 24.007 77.3817 23.9962C77.3933 23.9854 77.4071 23.977 77.4221 23.9717C77.4371 23.9665 77.453 23.9643 77.4689 23.9655Z" stroke="#999B9D" style="stroke:#999B9D;stroke:color(display-p3 0.6000 0.6078 0.6157);stroke-opacity:1;" stroke-width="0.563478"/>
<path d="M143.06 26.4855C143.113 26.4347 143.481 26.1746 144.165 25.705C144.195 25.6846 144.217 25.6551 144.229 25.621C144.241 25.5869 144.241 25.5501 144.229 25.5163L142.116 19.3575C142.098 19.3042 142.069 19.2555 142.03 19.2146C141.992 19.1737 141.945 19.1416 141.893 19.1205C141.84 19.0993 141.784 19.0897 141.728 19.0922C141.672 19.0947 141.617 19.1092 141.567 19.1349C135.417 22.281 132.301 27.3786 132.219 34.4277C132.217 34.6418 132.322 34.7489 132.534 34.7489H139.592C139.624 34.7489 139.656 34.7424 139.686 34.7299C139.716 34.7175 139.743 34.6991 139.766 34.6761C139.789 34.653 139.807 34.6257 139.819 34.5956C139.831 34.5655 139.837 34.5334 139.837 34.5009C139.771 31.2534 140.846 28.5816 143.06 26.4855Z" stroke="#999B9D" style="stroke:#999B9D;stroke:color(display-p3 0.6000 0.6078 0.6157);stroke-opacity:1;" stroke-width="0.563478"/>
<path d="M29.039 1.3125H22.0462C21.9233 1.3125 21.8237 1.41215 21.8237 1.53507V1.56888C21.8237 1.69181 21.7067 19.2197 21.8297 19.2197H29.3222C29.3222 19.2197 29.2616 1.69181 29.2616 1.56888V1.53507C29.2616 1.41215 29.1619 1.3125 29.039 1.3125Z" fill="#999B9D" style="fill:#999B9D;fill:color(display-p3 0.6000 0.6078 0.6157);fill-opacity:1;"/>
<path d="M126.72 1.31709L101.645 1.36086C101.496 1.36112 101.375 1.48242 101.375 1.6318L101.385 7.18205C101.385 7.33142 101.507 7.45231 101.656 7.45205L126.731 7.40828C126.88 7.40802 127.001 7.28672 127.001 7.13734L126.991 1.58709C126.991 1.43771 126.87 1.31683 126.72 1.31709Z" fill="#999B9D" style="fill:#999B9D;fill:color(display-p3 0.6000 0.6078 0.6157);fill-opacity:1;"/>
<path d="M10.626 24.8136C12.5728 27.3577 15.8354 27.9409 18.8218 27.8902C19.5769 27.877 22.7446 27.8808 28.3249 27.9014C28.6442 27.9014 28.9344 27.9202 29.1955 27.9578C29.2759 27.9687 29.3496 28.0084 29.403 28.0695C29.4563 28.1307 29.4857 28.2091 29.4856 28.2902V34.3617C29.4856 34.6265 29.3532 34.7599 29.0884 34.7618C26.8157 34.7824 23.1841 34.7928 18.1935 34.7928C14.5281 34.7899 10.8542 34.0771 7.84808 32.1782C2.943 29.0791 0.320007 23.4443 0.29465 17.7166C0.264598 10.4871 0.266478 5.09558 0.300286 1.54191C0.30028 1.50055 0.316515 1.46084 0.345497 1.43133C0.374478 1.40182 0.413887 1.38487 0.455241 1.38413C2.20954 1.35408 4.31695 1.34939 6.77747 1.37005C7.29023 1.37568 7.77013 1.46678 8.21716 1.64334C8.27025 1.66489 8.3156 1.70197 8.34727 1.74973C8.37894 1.79748 8.39545 1.85369 8.39465 1.91099C8.35333 9.64942 8.37869 15.3143 8.47072 18.9055C8.52331 21.0336 9.24175 23.0029 10.626 24.8136Z" fill="#999B9D" style="fill:#999B9D;fill:color(display-p3 0.6000 0.6078 0.6157);fill-opacity:1;"/>
<path d="M43.0088 8.5477C42.9946 8.54768 42.9806 8.55056 42.9676 8.55614C42.9546 8.56173 42.9428 8.56992 42.933 8.5802C42.9233 8.59049 42.9157 8.60265 42.9108 8.61596C42.9059 8.62926 42.9038 8.64343 42.9046 8.65758C42.9835 10.1264 43.0238 11.5294 43.0257 12.8668C43.0464 21.6683 43.0511 28.878 43.0398 34.4959C43.0398 34.5594 43.0143 34.6203 42.9688 34.6652C42.9234 34.7101 42.8618 34.7354 42.7975 34.7354H35.23C35.1814 34.7354 35.1349 34.7161 35.1005 34.6817C35.0662 34.6474 35.0469 34.6008 35.0469 34.5522V1.5803C35.0469 1.49202 35.0901 1.446 35.1765 1.44225C38.4522 1.31452 41.5062 1.338 44.3386 1.51268C52.912 2.04517 61.5078 6.52482 63.4603 15.439C63.7176 16.613 63.8397 18.4799 63.8265 21.04C63.8059 25.3112 63.8096 29.7627 63.8378 34.3945C63.8382 34.4406 63.8294 34.4863 63.812 34.529C63.7946 34.5717 63.769 34.6106 63.7365 34.6433C63.704 34.676 63.6654 34.702 63.6228 34.7198C63.5802 34.7375 63.5346 34.7466 63.4884 34.7466H56.2393C56.1855 34.7466 56.1339 34.7253 56.0959 34.6872C56.0578 34.6492 56.0364 34.5976 56.0364 34.5438C56.0458 28.5953 56.0496 24.1476 56.0477 21.2006C56.0477 18.4583 55.8993 16.6355 55.6026 15.7321C54.0643 11.0524 49.9481 9.49435 45.4346 8.74211C44.6251 8.60687 43.8165 8.54207 43.0088 8.5477Z" fill="#999B9D" style="fill:#999B9D;fill:color(display-p3 0.6000 0.6078 0.6157);fill-opacity:1;"/>
<path d="M143.898 1.39453H152.063C152.123 1.39425 152.182 1.41286 152.231 1.44773C152.28 1.48261 152.317 1.532 152.336 1.58893L163.558 34.3355C163.573 34.3788 163.577 34.4251 163.57 34.4705C163.564 34.5158 163.546 34.5589 163.519 34.5961C163.493 34.6334 163.457 34.6636 163.416 34.6845C163.376 34.7053 163.33 34.716 163.285 34.7158H155.12C155.06 34.7161 155.001 34.6975 154.952 34.6626C154.903 34.6277 154.866 34.5784 154.846 34.5214L143.625 1.77488C143.61 1.73151 143.606 1.68522 143.612 1.63987C143.619 1.59453 143.637 1.55144 143.663 1.51422C143.69 1.47699 143.725 1.44671 143.766 1.42589C143.807 1.40507 143.852 1.39432 143.898 1.39453Z" fill="#999B9D" style="fill:#999B9D;fill:color(display-p3 0.6000 0.6078 0.6157);fill-opacity:1;"/>
<path d="M96.4061 13.422C95.7243 11.0516 95.0932 9.39878 94.5128 8.4634C93.6019 6.99648 92.8637 5.98973 92.2983 5.44316C89.9806 3.19676 87.1838 2.05759 83.9082 2.02566C79.3365 1.98246 74.7554 1.97589 70.1649 2.00594C69.9865 1.97964 69.8597 1.94771 69.7846 1.91015C69.5498 1.7937 69.562 1.71387 69.8212 1.67067C70.1574 1.6162 70.5331 1.58897 70.9482 1.58897C76.7632 1.58145 81.2025 1.57394 84.266 1.56643C86.2025 1.56267 88.1061 2.08013 89.9768 3.11881C93.6197 5.14451 96.0117 9.36778 96.4061 13.422Z" fill="#999B9D" style="fill:#999B9D;fill:color(display-p3 0.6000 0.6078 0.6157);fill-opacity:1;"/>
<path d="M96.4027 13.4189C96.953 14.4163 97.0281 15.4193 96.6281 16.4279C96.6221 16.444 96.6206 16.4612 96.6235 16.4776C96.6265 16.494 96.6339 16.509 96.645 16.5209C96.675 16.5509 96.6835 16.5876 96.6703 16.6308C96.6591 16.6646 96.6356 16.6815 96.5999 16.6815L89.5057 16.7068C89.4738 16.7275 89.4409 16.7472 89.4071 16.766C89.4127 16.6909 89.4559 16.6148 89.5367 16.5378C89.6024 16.4739 89.6128 16.4016 89.5677 16.3209C89.4296 16.0842 89.2775 15.856 89.224 15.5799C88.9103 13.9214 88.3787 12.3249 87.6293 10.7903C86.5117 8.37675 84.4475 7.17184 81.4367 7.1756C77.6069 7.17748 73.7912 7.17748 69.9896 7.1756C69.4412 5.3612 69.4985 3.63696 70.1615 2.00287C74.752 1.97282 79.333 1.97939 83.9047 2.02259C87.1804 2.05452 89.9771 3.19369 92.2949 5.44009C92.8603 5.98666 93.5984 6.99341 94.5094 8.46033C95.0898 9.3957 95.7209 11.0486 96.4027 13.4189Z" fill="#999B9D" style="fill:#999B9D;fill:color(display-p3 0.6000 0.6078 0.6157);fill-opacity:1;"/>
<path d="M175.874 23.7153C175.868 26.6087 177.744 29.0204 180.531 29.7079C181.028 29.83 181.932 29.891 183.241 29.891C189.05 29.8891 192.482 29.8882 193.536 29.8882C193.597 29.8889 193.656 29.9136 193.699 29.9568C193.743 30.0001 193.767 30.0584 193.767 30.1192V35.7371C193.767 35.8798 193.694 35.9522 193.55 35.954C189.374 35.9672 184.919 35.9691 180.184 35.9597C179.335 35.9578 178.526 35.9249 177.756 35.8611C173.391 35.4948 169.416 32.7253 168.182 28.4851C167.889 27.4803 167.742 25.6583 167.74 23.0194C167.734 16.3741 167.722 9.75135 167.703 3.15114C167.703 3.07475 167.726 3.00028 167.77 2.93814C167.814 2.876 167.877 2.82931 167.948 2.80461C168.354 2.66186 168.844 2.58954 169.419 2.58767C171.712 2.58015 173.82 2.58015 175.741 2.58767C175.776 2.5884 175.809 2.60238 175.833 2.62661C175.857 2.65083 175.871 2.68338 175.871 2.71727C175.88 13.0552 175.881 20.0546 175.874 23.7153Z" fill="#999B9D" style="fill:#999B9D;fill:color(display-p3 0.6000 0.6078 0.6157);fill-opacity:1;"/>
<path d="M69.9958 7.17774C73.7974 7.17962 77.6131 7.17962 81.4429 7.17774C84.4538 7.17399 86.518 8.37889 87.6355 10.7925C85.9263 8.61931 83.7466 7.55058 81.0964 7.58627C77.5202 7.63322 73.9496 7.62008 70.3846 7.54682C69.7648 7.53368 69.6352 7.41065 69.9958 7.17774Z" fill="#999B9D" style="fill:#999B9D;fill:color(display-p3 0.6000 0.6078 0.6157);fill-opacity:1;"/>
<path d="M29.2058 18.9555C29.2381 18.9468 29.2666 18.9278 29.287 18.9013C29.3074 18.8748 29.3184 18.8424 29.3185 18.809C29.3185 16.6959 29.3392 14.5707 29.3805 12.4332C29.3843 12.2285 29.4181 11.82 29.4819 11.2077C29.4819 11.2054 29.4828 11.2033 29.4844 11.2017C29.486 11.2001 29.4882 11.1992 29.4904 11.1992C29.4926 11.1992 29.4948 11.2001 29.4964 11.2017C29.498 11.2033 29.4989 11.2054 29.4989 11.2077C29.5007 11.2114 29.5054 11.2114 29.5129 11.2077C29.5505 11.1908 29.5693 11.2095 29.5693 11.264L29.6735 18.9583C29.6745 18.9933 29.6649 19.0278 29.6458 19.0575C29.6267 19.0871 29.5991 19.1105 29.5665 19.1245C29.1439 19.3049 28.6893 19.3978 28.2029 19.4035C26.1856 19.4241 24.159 19.4354 22.1229 19.4373C22.0703 19.4373 22.0356 19.4119 22.0187 19.3612L21.9821 19.2541C21.9768 19.2383 21.9753 19.2214 21.9777 19.2049C21.9801 19.1883 21.9863 19.1726 21.9959 19.1589C22.0055 19.1452 22.0182 19.1339 22.0329 19.126C22.0476 19.1181 22.064 19.1137 22.0807 19.1133C24.868 19.0926 27.0524 19.086 28.6339 19.0935C28.8114 19.0935 29.0509 18.9978 29.2058 18.9555Z" fill="#999B9D" style="fill:#999B9D;fill:color(display-p3 0.6000 0.6078 0.6157);fill-opacity:1;"/>
<path d="M110.984 28.7922H126.944C126.962 28.7922 126.98 28.7993 126.992 28.812C127.005 28.8246 127.012 28.8418 127.012 28.8598V34.5932C127.012 34.6245 127 34.6547 126.977 34.6768C126.955 34.699 126.925 34.7115 126.894 34.7115H102.101C101.969 34.7115 101.904 34.6467 101.906 34.5171C101.923 33.4202 102.069 32.2538 102.343 31.0179C104.152 22.8681 109.001 17.4306 116.892 14.7052C117.371 14.5399 118.426 14.2779 120.056 13.9191C122.346 13.412 124.53 13.319 126.911 13.2092C126.923 13.2084 126.935 13.2101 126.946 13.2141C126.957 13.2182 126.967 13.2245 126.976 13.2327C126.985 13.2409 126.992 13.2507 126.996 13.2617C127.001 13.2727 127.004 13.2845 127.004 13.2965V19.8977C127.004 19.9756 126.973 20.0504 126.918 20.1058C126.863 20.1612 126.789 20.1927 126.711 20.1935C120.242 20.2526 114.503 21.9825 111.085 27.8399C110.943 28.0841 110.863 28.3517 110.846 28.6428C110.838 28.7424 110.884 28.7922 110.984 28.7922Z" fill="#999B9D" style="fill:#999B9D;fill:color(display-p3 0.6000 0.6078 0.6157);fill-opacity:1;"/>
<path d="M89.5062 16.7079L96.4764 16.7051C96.6192 16.7051 96.6906 16.7765 96.6906 16.9192V17.0065C96.6906 17.1136 96.6361 17.1671 96.5272 17.1671H89.5682C89.4743 17.1671 89.4048 17.1267 89.3597 17.046C89.3052 16.9483 89.3212 16.8553 89.4076 16.7671C89.4414 16.7483 89.4743 16.7286 89.5062 16.7079Z" fill="#999B9D" style="fill:#999B9D;fill:color(display-p3 0.6000 0.6078 0.6157);fill-opacity:1;"/>
<path d="M77.4611 23.9694C77.4452 23.9682 77.4293 23.9704 77.4143 23.9757C77.3993 23.9809 77.3855 23.9893 77.3739 24.0001C77.3622 24.011 77.353 24.0241 77.3466 24.0387C77.3403 24.0533 77.3371 24.069 77.3371 24.0849V34.7234C77.3371 34.7772 77.3154 34.8288 77.2769 34.8668C77.2383 34.9049 77.186 34.9262 77.1314 34.9262H69.9584C69.7517 34.9262 69.6484 34.8239 69.6484 34.6192V17.095C69.6484 16.9973 69.6973 16.9485 69.7949 16.9485C72.5691 16.9241 74.8334 16.9297 76.5877 16.9654C80.9152 17.0555 85.9724 18.4361 89.7111 20.9717C94.3635 24.1234 96.7245 28.7317 96.794 34.7966C96.794 34.834 96.7792 34.8698 96.7527 34.8963C96.7263 34.9227 96.6905 34.9375 96.6531 34.9375H89.6801C89.5787 34.9375 89.5261 34.8877 89.5223 34.7882C89.4829 33.8359 89.3448 32.5653 89.1476 31.813C87.7671 26.5389 82.4676 24.3329 77.4611 23.9694Z" fill="#999B9D" style="fill:#999B9D;fill:color(display-p3 0.6000 0.6078 0.6157);fill-opacity:1;"/>
<path d="M143.044 26.4874C140.83 28.5836 139.756 31.2554 139.821 34.5029C139.822 34.5353 139.816 34.5675 139.804 34.5976C139.791 34.6276 139.773 34.655 139.751 34.678C139.728 34.7011 139.701 34.7194 139.671 34.7319C139.641 34.7444 139.609 34.7508 139.576 34.7508H132.519C132.306 34.7508 132.201 34.6438 132.203 34.4296C132.286 27.3805 135.402 22.2829 141.551 19.1368C141.601 19.1112 141.656 19.0966 141.712 19.0941C141.769 19.0916 141.825 19.1013 141.877 19.1224C141.929 19.1435 141.976 19.1756 142.015 19.2165C142.053 19.2574 142.083 19.3062 142.101 19.3594L144.214 25.5182C144.225 25.5521 144.225 25.5889 144.213 25.623C144.202 25.6571 144.179 25.6866 144.149 25.707C143.465 26.1766 143.097 26.4367 143.044 26.4874Z" fill="#999B9D" style="fill:#999B9D;fill:color(display-p3 0.6000 0.6078 0.6157);fill-opacity:1;"/>
</g>
<defs>
<clipPath id="clip0_5880_869">
<rect width="192.96" height="36" fill="white" style="fill:white;fill-opacity:1;" transform="translate(0.523438 0.5)"/>
</clipPath>
</defs>
</svg>
