<svg width="161" height="36" viewBox="0 0 161 36" fill="none" xmlns="http://www.w3.org/2000/svg">
<g opacity="0.56">
<g clip-path="url(#clip0_5828_3199)">
<path d="M42.4722 21.5678C38.1057 34.3022 25.9045 36.7087 15.6379 34.921C13.1092 34.4809 5.61991 32.1569 3.6163 25.7897C3.43667 25.2258 2.33125 21.5128 4.18283 17.9098C7.0846 12.2714 14.7812 11.6801 19.0647 11.35C25.4071 10.855 29.7599 12.8215 30.6441 13.2341C32.233 13.9767 33.2971 14.7606 34.0018 15.2281C32.8412 14.0454 28.074 8.33835 17.5309 8.04957C8.13474 7.77453 1.97198 13.1516 0.742188 14.2655C5.10864 1.54486 17.3098 -0.875503 27.5765 0.912262C30.1052 1.35233 37.5946 3.67641 39.5981 10.0436C39.7777 10.6074 40.8833 14.3205 39.0315 17.9235C36.1299 23.5619 28.4332 24.1532 24.1497 24.497C17.7935 24.9921 13.4546 23.0255 12.5703 22.613C10.9674 21.8429 9.90344 21.0727 9.19874 20.6052C10.3456 21.7878 15.1266 27.4949 25.6558 27.7837C35.0796 28.0588 41.2423 22.6817 42.4722 21.5678Z" fill="white" stroke="white" style="fill:white;fill-opacity:1;stroke:white;stroke-opacity:1;" stroke-width="0.246575"/>
</g>
<g clip-path="url(#clip1_5828_3199)">
<path d="M73.232 13.8649C72.3665 12.4061 71.1609 11.2577 69.6773 10.4507C68.1626 9.64373 66.4935 9.24023 64.6388 9.24023C62.6914 9.24023 60.9604 9.67477 59.4148 10.5128C57.8693 11.3508 56.6638 12.5303 55.7983 14.0201C54.9328 15.5099 54.5 17.186 54.5 19.0793C54.5 20.9727 54.9637 22.6798 55.8601 24.1385C56.7565 25.6283 58.0238 26.7768 59.6312 27.6458C61.2695 28.4839 63.1551 28.9184 65.3188 28.9184C67.0499 28.9184 68.5644 28.6391 69.8936 28.1114C71.2228 27.5838 72.3047 26.8078 73.1702 25.8146L70.2645 22.6487C69.6154 23.2695 68.9354 23.7351 68.1626 24.0455C67.3899 24.3558 66.5244 24.511 65.5352 24.511C64.3606 24.511 63.3714 24.2938 62.5677 23.8902C61.7332 23.4868 61.084 22.866 60.6204 22.09C60.3731 21.6555 60.1567 21.1899 60.064 20.6623H74.4684C74.4993 20.414 74.4993 20.1657 74.5303 19.8863C74.5612 19.607 74.5612 19.3587 74.5612 19.1414C74.5303 17.0929 74.0975 15.3237 73.232 13.8649ZM59.9712 17.4343C60.064 16.8446 60.2494 16.2859 60.4967 15.8203C60.8986 15.0754 61.455 14.4857 62.1659 14.0822C62.8769 13.6787 63.7114 13.4614 64.6697 13.4614C65.597 13.4614 66.4316 13.6787 67.1425 14.0822C67.8535 14.4857 68.41 15.0754 68.8118 15.8203C69.0899 16.3169 69.2445 16.8446 69.3372 17.4653H59.9712V17.4343Z" fill="white" style="fill:white;fill-opacity:1;"/>
<path d="M95.5598 13.8649C94.6943 12.4061 93.4888 11.2577 92.005 10.4507C90.4905 9.64373 88.8212 9.24023 86.9356 9.24023C84.9883 9.24023 83.2572 9.67477 81.7117 10.5128C80.1662 11.3508 78.9607 12.5303 78.0952 14.0201C77.2297 15.5099 76.7969 17.217 76.7969 19.1104C76.7969 21.0037 77.2297 22.7108 78.157 24.1696C79.0534 25.6594 80.3207 26.8078 81.959 27.6768C83.5973 28.5149 85.4829 28.9495 87.6466 28.9495C89.3776 28.9495 90.8923 28.6701 92.2215 28.1425C93.5506 27.6148 94.6324 26.8388 95.4979 25.8456L92.5615 22.6487C91.9123 23.2695 91.2323 23.7351 90.4596 24.0455C89.6867 24.3558 88.8212 24.511 87.832 24.511C86.6884 24.511 85.6683 24.2938 84.8646 23.8902C84.0301 23.4868 83.3809 22.866 82.9172 22.09C82.67 21.6555 82.4845 21.1899 82.3608 20.6623H96.7654C96.7963 20.414 96.8272 20.1657 96.8272 19.8863C96.858 19.607 96.858 19.3587 96.858 19.1414C96.858 17.0929 96.4254 15.3237 95.5598 13.8649ZM82.2682 17.4343C82.3608 16.8446 82.5463 16.2859 82.7937 15.8203C83.1955 15.0754 83.7518 14.4857 84.4628 14.0822C85.1737 13.6787 86.0083 13.4614 86.9666 13.4614C87.9248 13.4614 88.7286 13.6787 89.4395 14.0822C90.1504 14.4857 90.7068 15.0754 91.1086 15.8203C91.3869 16.3169 91.5414 16.8446 91.6341 17.4653H82.2682V17.4343Z" fill="white" style="fill:white;fill-opacity:1;"/>
<path d="M106.925 28.9495C105.29 28.9495 103.747 28.7632 102.266 28.3597C100.785 27.9562 99.5822 27.4907 98.6875 26.8699L100.477 22.9281C101.371 23.4557 102.42 23.8902 103.593 24.2316C104.796 24.5731 105.968 24.7593 107.11 24.7593C108.375 24.7593 109.269 24.6041 109.825 24.2938C110.349 23.9834 110.627 23.5488 110.627 23.0212C110.627 22.5867 110.411 22.2452 110.01 21.997C109.609 21.7797 109.053 21.5934 108.375 21.4693C107.696 21.3451 106.955 21.221 106.122 21.1279C105.29 21.0037 104.487 20.8484 103.654 20.6313C102.852 20.414 102.081 20.1036 101.402 19.7311C100.693 19.3276 100.168 18.8 99.7364 18.1171C99.3353 17.4343 99.1194 16.5342 99.1194 15.4479C99.1194 14.2374 99.4587 13.1821 100.168 12.2199C100.878 11.2888 101.865 10.5438 103.161 10.0472C104.487 9.48854 106.061 9.24023 107.912 9.24023C109.238 9.24023 110.565 9.39543 111.892 9.67477C113.218 9.98515 114.36 10.3886 115.254 10.9163L113.372 14.8581C112.478 14.3305 111.552 13.958 110.627 13.7408C109.701 13.5235 108.807 13.4304 107.974 13.4304C106.709 13.4304 105.783 13.5856 105.228 13.927C104.673 14.2684 104.395 14.6719 104.395 15.1996C104.395 15.6651 104.611 16.0376 105.043 16.2859C105.475 16.5342 106.03 16.7204 106.709 16.8446C107.387 16.9687 108.159 17.0929 108.961 17.186C109.794 17.3101 110.596 17.4653 111.398 17.6826C112.2 17.8999 112.94 18.2103 113.65 18.5827C114.36 18.9862 114.884 19.5139 115.316 20.1967C115.717 20.8796 115.933 21.7797 115.933 22.866C115.933 24.0144 115.594 25.0697 114.884 25.9697C114.175 26.8699 113.156 27.6148 111.83 28.1114C110.442 28.6701 108.807 28.9495 106.925 28.9495Z" fill="white" style="fill:white;fill-opacity:1;"/>
<path d="M136.689 13.8649C135.822 12.4061 134.615 11.2577 133.129 10.4507C131.612 9.64373 129.94 9.24023 128.052 9.24023C126.102 9.24023 124.368 9.67477 122.82 10.5128C121.273 11.3508 120.065 12.5303 119.199 14.0201C118.332 15.5099 117.898 17.217 117.898 19.1104C117.898 21.0037 118.332 22.7108 119.23 24.1696C120.127 25.6594 121.396 26.8078 123.037 27.6768C124.678 28.5149 126.566 28.9495 128.733 28.9495C130.467 28.9495 131.983 28.6701 133.315 28.1425C134.646 27.6148 135.729 26.8388 136.596 25.8456L133.655 22.6487C133.005 23.2695 132.324 23.7351 131.55 24.0455C130.776 24.3558 129.909 24.511 128.919 24.511C127.773 24.511 126.783 24.2938 125.947 23.8902C125.111 23.4868 124.461 22.866 123.997 22.09C123.749 21.6555 123.563 21.1899 123.44 20.6623H137.865C137.896 20.414 137.896 20.1657 137.927 19.8863C137.958 19.607 137.958 19.3587 137.958 19.1414C137.989 17.0929 137.556 15.3237 136.689 13.8649ZM123.378 17.4343C123.471 16.8446 123.656 16.2859 123.904 15.8203C124.306 15.0754 124.864 14.4857 125.576 14.0822C126.288 13.6787 127.123 13.4614 128.083 13.4614C129.043 13.4614 129.848 13.6787 130.56 14.0822C131.272 14.4857 131.829 15.0754 132.231 15.8203C132.51 16.3169 132.665 16.8446 132.757 17.4653H123.378V17.4343Z" fill="white" style="fill:white;fill-opacity:1;"/>
<path d="M158.922 13.8649C158.058 12.4061 156.854 11.2577 155.373 10.4507C153.891 9.64373 152.225 9.24023 150.342 9.24023C148.397 9.24023 146.669 9.67477 145.126 10.5128C143.583 11.3508 142.379 12.5303 141.515 14.0201C140.651 15.5099 140.219 17.217 140.219 19.1104C140.219 21.0037 140.682 22.7108 141.577 24.1696C142.472 25.6594 143.737 26.8078 145.373 27.6768C147.009 28.5149 148.891 28.9495 151.052 28.9495C152.78 28.9495 154.292 28.6701 155.62 28.1425C156.947 27.6148 158.027 26.8388 158.922 25.8456L155.99 22.6487C155.342 23.2695 154.663 23.7351 153.891 24.0455C153.12 24.3558 152.255 24.511 151.268 24.511C150.126 24.511 149.107 24.2938 148.305 23.8902C147.472 23.4868 146.823 22.866 146.361 22.09C146.114 21.6555 145.898 21.1899 145.805 20.6623H160.187C160.218 20.414 160.218 20.1657 160.249 19.8863C160.28 19.607 160.28 19.3587 160.28 19.1414C160.249 17.0929 159.817 15.3237 158.922 13.8649ZM145.682 17.4343C145.774 16.8446 145.959 16.2859 146.206 15.8203C146.607 15.0754 147.163 14.4857 147.873 14.0822C148.583 13.6787 149.416 13.4614 150.373 13.4614C151.299 13.4614 152.132 13.6787 152.842 14.0822C153.552 14.4857 154.107 15.0754 154.508 15.8203C154.786 16.3169 154.941 16.8446 155.033 17.4653H145.682V17.4343Z" fill="white" style="fill:white;fill-opacity:1;"/>
</g>
</g>
<defs>
<clipPath id="clip0_5828_3199">
<rect width="41.8064" height="36" fill="white" style="fill:white;fill-opacity:1;" transform="translate(0.742188)"/>
</clipPath>
<clipPath id="clip1_5828_3199">
<rect width="106.839" height="20.9032" fill="white" style="fill:white;fill-opacity:1;" transform="translate(53.4453 8.64258)"/>
</clipPath>
</defs>
</svg>
