<svg width="167" height="36" viewBox="0 0 167 36" fill="none" xmlns="http://www.w3.org/2000/svg">
<g opacity="0.56" clip-path="url(#clip0_5828_3180)">
<mask id="mask0_5828_3180" style="mask-type:luminance" maskUnits="userSpaceOnUse" x="0" y="0" width="167" height="36">
<path d="M166.743 0H0.507812V36H166.743V0Z" fill="white" style="fill:white;fill-opacity:1;"/>
</mask>
<g mask="url(#mask0_5828_3180)">
<path d="M17.5547 4.25984H26.3611C29.5255 4.25984 32.0899 6.83531 32.0899 10.0134V11.7339C32.0899 11.9786 32.2873 12.1769 32.531 12.1769H35.8878C36.1313 12.1769 36.3288 11.9786 36.3288 11.7339V8.0947C36.3288 7.36069 36.0391 6.66017 35.5236 6.1425L30.2128 0.808704C29.6948 0.285881 29.005 0 28.2715 0H17.5547V4.25984Z" fill="white" style="fill:white;fill-opacity:1;"/>
<path d="M17.5547 31.7398H26.3613C29.5258 31.7398 32.0902 29.1644 32.0902 25.9861V19.529C32.0902 19.2843 32.2875 19.0859 32.5312 19.0859H35.888C36.1315 19.0859 36.3289 19.2843 36.3289 19.529V27.905C36.3289 28.6389 36.0392 29.3395 35.5238 29.857L30.213 35.1909C29.695 35.7137 29.0052 35.9996 28.2717 35.9996H17.5547V31.7398Z" fill="white" style="fill:white;fill-opacity:1;"/>
<path d="M18.4198 0H8.56496C7.84183 0 7.13407 0.296184 6.62376 0.808704L1.31299 6.1425C0.797555 6.66017 0.507812 7.36069 0.507812 8.09212V18H4.74922V10.0134C4.74922 6.83531 7.31358 4.25984 10.478 4.25984H18.4198V0Z" fill="white" style="fill:white;fill-opacity:1;"/>
<path d="M18.4198 36.0001H8.56496C7.84183 36.0001 7.13407 35.7039 6.62376 35.1914L1.31299 29.8576C0.797555 29.34 0.507812 28.6394 0.507812 27.9081V17.4707H4.74922V25.9866C4.74922 29.1649 7.31358 31.7403 10.478 31.7403H18.4198V36.0001Z" fill="white" style="fill:white;fill-opacity:1;"/>
<path d="M50.4766 18.8531C50.4766 24.4025 53.69 27.3152 57.9246 27.3152H59.9672C63.1557 27.3152 66.1199 25.1807 66.7178 21.0628H64.4012C63.9029 23.3729 62.0846 25.0803 58.9459 25.0803C54.2131 25.0803 52.7185 22.0923 52.7185 18.6523V17.3465C52.7185 13.9065 54.2131 10.8431 58.9459 10.8431C61.8355 10.8431 63.6539 12.3497 64.2518 14.4589H66.6432C65.8709 10.7175 62.9814 8.68359 59.9672 8.68359H57.9246C53.69 8.68359 50.4766 11.5963 50.4766 17.1456V18.8531Z" fill="white" style="fill:white;fill-opacity:1;"/>
<path d="M75.771 14.4589C74.3262 14.4589 72.6075 15.3377 71.7108 16.6183V8.68359H69.4688V26.9135H71.7108V20.6108C71.7108 17.5223 73.8031 16.6183 75.0487 16.6183C77.141 16.6183 78.038 17.5724 78.038 19.8324V26.9135H80.2798V19.4307C80.2798 15.6893 77.8386 14.4589 75.771 14.4589Z" fill="white" style="fill:white;fill-opacity:1;"/>
<path d="M94.3258 23.825V19.4309C94.3258 15.6894 92.4076 14.459 90.1906 14.459H87.7494C85.3082 14.459 83.5895 16.292 83.5895 18.1251H85.8314C85.8314 17.3215 86.7281 16.6185 87.9737 16.6185H89.4682C91.6852 16.6185 92.034 17.5979 92.0839 19.2802H88.0235C85.109 19.2802 83.2656 20.8369 83.2656 23.0467V23.3228C83.2656 26.3863 85.7068 27.2902 88.0235 27.2902C89.568 27.2902 91.4362 26.9136 92.283 25.6079C92.7813 26.8884 94.1514 26.9136 95.2973 26.9136V24.7541C94.8488 24.7541 94.3258 24.6035 94.3258 23.825ZM88.746 25.1307C86.4043 25.1307 85.5077 24.6286 85.5077 23.2223C85.5077 22.4189 85.9559 21.1885 88.746 21.1885H92.0839V23.1721C92.0839 24.7792 89.7422 25.1307 88.746 25.1307Z" fill="white" style="fill:white;fill-opacity:1;"/>
<path d="M99.2681 11.6968C100.09 11.6968 100.763 11.0439 100.763 10.2153C100.763 9.38667 100.09 8.68359 99.2681 8.68359C98.4461 8.68359 97.7734 9.38667 97.7734 10.2153C97.7734 11.0439 98.4461 11.6968 99.2681 11.6968ZM98.147 26.9135H100.389V14.8607H98.147V26.9135Z" fill="white" style="fill:white;fill-opacity:1;"/>
<path d="M110.529 14.459C109.01 14.459 107.166 15.4383 106.319 16.8445V14.8608H104.227V26.9136H106.469V20.611C106.469 17.5224 108.561 16.6185 109.807 16.6185C111.899 16.6185 112.796 17.5726 112.796 19.8325V26.9136H115.038V19.4309C115.038 15.6894 112.597 14.459 110.529 14.459Z" fill="white" style="fill:white;fill-opacity:1;"/>
<path d="M134.721 17.7734C134.65 17.7734 126.525 17.7734 126.525 17.7734V19.9328H132.404V19.9831C132.054 22.8205 130.486 25.0803 126.376 25.0803C121.642 25.0803 120.147 22.0923 120.147 18.6523V17.3465C120.147 13.9065 121.642 10.8431 126.376 10.8431C129.763 10.8431 131.357 12.3999 132.08 14.5593H134.447C133.574 10.7677 130.909 8.68359 127.397 8.68359H125.354C121.119 8.68359 117.906 11.5963 117.906 17.1456V18.8531C117.906 24.4025 121.119 27.3152 125.354 27.3152H127.397C129.564 27.3152 131.457 26.5368 132.752 25.0553C134.047 23.5739 135.186 20.7322 134.721 17.7734Z" fill="white" style="fill:white;fill-opacity:1;"/>
<path d="M146.418 9.08594H138.297V26.9141H140.539V20.3603H146.418C149.232 20.3603 152.048 19.1299 152.048 14.7356C152.048 10.5674 149.232 9.08594 146.418 9.08594ZM145.945 18.2008H140.539V11.2705H145.945C148.785 11.2705 149.681 12.7268 149.681 14.7356C149.681 16.7445 148.785 18.2008 145.945 18.2008Z" fill="white" style="fill:white;fill-opacity:1;"/>
<path d="M166.74 9.08594H153.039V11.2454H158.769V26.9141H161.011V11.2454H166.74V9.08594Z" fill="white" style="fill:white;fill-opacity:1;"/>
<path d="M13.4736 20.8423C14.7319 20.8423 15.7519 19.7818 15.7519 18.4738C15.7519 17.1659 14.7319 16.1055 13.4736 16.1055C12.2153 16.1055 11.1953 17.1659 11.1953 18.4738C11.1953 19.7818 12.2153 20.8423 13.4736 20.8423Z" fill="white" style="fill:white;fill-opacity:1;"/>
<path d="M23.6845 20.8423C24.9428 20.8423 25.9628 19.7818 25.9628 18.4738C25.9628 17.1659 24.9428 16.1055 23.6845 16.1055C22.4263 16.1055 21.4062 17.1659 21.4062 18.4738C21.4062 19.7818 22.4263 20.8423 23.6845 20.8423Z" fill="white" style="fill:white;fill-opacity:1;"/>
</g>
</g>
<defs>
<clipPath id="clip0_5828_3180">
<rect width="166.235" height="36" fill="white" style="fill:white;fill-opacity:1;" transform="translate(0.507812)"/>
</clipPath>
</defs>
</svg>
