<svg width="165" height="36" viewBox="0 0 165 36" fill="none" xmlns="http://www.w3.org/2000/svg">
<g opacity="0.56" clip-path="url(#clip0_5828_3210)">
<path fill-rule="evenodd" clip-rule="evenodd" d="M36.298 18C36.298 27.9411 28.2371 36 18.2935 36C8.34994 36 0.289062 27.9411 0.289062 18C0.289062 8.05888 8.34994 0 18.2935 0C28.2371 0 36.298 8.05888 36.298 18ZM24.0855 6.71735C22.1867 6.71735 20.6474 7.14851 20.6474 10.1564V13.7331C19.4284 12.9218 17.9649 12.4492 16.391 12.4492C12.1414 12.4492 8.69643 15.8952 8.69643 20.146C8.69643 24.3971 12.1414 27.8431 16.391 27.8431H26.3774C26.3774 25.9438 25.7306 24.404 22.9394 24.404H22.8019C23.6129 23.1846 24.0855 21.7206 24.0855 20.146V6.71735ZM20.6474 20.146C20.6474 22.4977 18.7417 24.404 16.391 24.404C14.0402 24.404 12.1344 22.4977 12.1344 20.146C12.1344 17.7945 14.0402 15.8882 16.391 15.8882C18.7417 15.8882 20.6474 17.7945 20.6474 20.146Z" fill="white" style="fill:white;fill-opacity:1;"/>
<path fill-rule="evenodd" clip-rule="evenodd" d="M113.254 8.68555C112.967 8.68555 112.734 8.91802 112.734 9.20478V26.5125C112.734 26.7992 112.967 27.0317 113.254 27.0317H114.812C115.099 27.0317 115.331 26.7992 115.331 26.5125V25.8267C116.472 26.7423 117.911 27.2913 119.486 27.2913C123.252 27.2913 126.238 24.1532 126.238 20.3682C126.238 16.5833 123.252 13.4452 119.486 13.4452C117.911 13.4452 116.472 13.9941 115.331 14.9097V9.20478C115.331 8.91802 115.099 8.68555 114.812 8.68555H113.254ZM119.486 24.6952C117.229 24.6952 115.331 22.7964 115.331 20.3682C115.331 17.94 117.229 16.0413 119.486 16.0413C121.743 16.0413 123.641 17.94 123.641 20.3682C123.641 22.7964 121.743 24.6952 119.486 24.6952Z" fill="white" style="fill:white;fill-opacity:1;"/>
<path d="M143.547 10.0709L145.46 9.4333C145.796 9.32121 146.144 9.57148 146.144 9.92587V13.7055H150.472C150.758 13.7055 150.991 13.938 150.991 14.2248V15.7825C150.991 16.0692 150.758 16.3017 150.472 16.3017H146.144V23.1299C146.144 24.0426 146.883 24.7825 147.797 24.7825C148.563 24.7825 149.315 24.5651 149.963 24.1556C150.148 24.0391 150.392 24.0942 150.508 24.2787L151.684 26.1395L151.35 26.3507C150.286 27.0221 149.054 27.3786 147.797 27.3786C145.449 27.3786 143.547 25.4764 143.547 23.1299V10.0709Z" fill="white" style="fill:white;fill-opacity:1;"/>
<path d="M97.5859 22.1007V14.3122C97.5859 14.0254 97.8186 13.793 98.1053 13.793H99.6634C99.9501 13.793 100.183 14.0254 100.183 14.3122V21.9276C100.183 23.4853 101.384 24.7834 102.866 24.7834H103.039C105.549 24.7834 107.108 22.7892 107.108 20.543V14.3122C107.108 14.0254 107.34 13.793 107.627 13.793H109.185C109.472 13.793 109.704 14.0254 109.704 14.3122V26.5141C109.704 26.8009 109.472 27.0334 109.185 27.0334H107.627C107.34 27.0334 107.108 26.8009 107.108 26.5141V25.6484C105.982 26.5168 104.571 27.293 103.039 27.293H102.866C99.9501 27.293 97.5859 25.016 97.5859 22.1007Z" fill="white" style="fill:white;fill-opacity:1;"/>
<path fill-rule="evenodd" clip-rule="evenodd" d="M138.18 25.8268V26.5126C138.18 26.7994 138.413 27.0319 138.699 27.0319H140.257C140.544 27.0319 140.777 26.7994 140.777 26.5126V14.3107C140.777 14.0239 140.544 13.7915 140.257 13.7915H138.699C138.413 13.7915 138.18 14.0239 138.18 14.3107V14.9099C137.039 13.9942 135.601 13.4453 134.025 13.4453C130.258 13.4453 127.273 16.5834 127.273 20.3684C127.273 24.1533 130.258 27.2915 134.025 27.2915C135.601 27.2915 137.039 26.7425 138.18 25.8268ZM138.18 20.3684C138.18 17.9401 136.282 16.0415 134.025 16.0415C131.768 16.0415 129.87 17.9401 129.87 20.3684C129.87 22.7966 131.768 24.6953 134.025 24.6953C136.282 24.6953 138.18 22.7966 138.18 20.3684Z" fill="white" style="fill:white;fill-opacity:1;"/>
<path fill-rule="evenodd" clip-rule="evenodd" d="M51.2734 9.29267C51.2734 9.00591 51.506 8.77344 51.7928 8.77344H58.7176C63.3548 8.77344 67.1139 12.5316 67.1139 17.1677V18.5523C67.1139 23.1883 63.3548 26.9465 58.7176 26.9465H51.7928C51.506 26.9465 51.2734 26.714 51.2734 26.4273V9.29267ZM53.8702 11.3696V24.3504H58.7176C61.9206 24.3504 64.5171 21.7544 64.5171 18.5523V17.1677C64.5171 13.9655 61.9206 11.3696 58.7176 11.3696H53.8702Z" fill="white" style="fill:white;fill-opacity:1;"/>
<path d="M85.5499 20.3684C85.5499 17.9401 87.448 16.0415 89.7048 16.0415C91.5018 16.0415 93.0654 17.2381 93.6339 18.9586L95.6068 18.3066C95.8789 18.2165 96.0285 17.9218 95.9184 17.657C94.897 15.1996 92.5156 13.4453 89.7048 13.4453C85.9377 13.4453 82.9531 16.5834 82.9531 20.3684C82.9531 24.1533 85.9377 27.2915 89.7048 27.2915C92.4761 27.2915 94.8298 25.5858 95.8748 23.183C95.989 22.92 95.8443 22.623 95.5736 22.5285L93.6118 21.8449C93.0239 23.53 91.4782 24.6953 89.7048 24.6953C87.448 24.6953 85.5499 22.7966 85.5499 20.3684Z" fill="white" style="fill:white;fill-opacity:1;"/>
<path fill-rule="evenodd" clip-rule="evenodd" d="M71.3658 21.4934H81.5701C81.5701 21.4934 81.7433 20.8011 81.7433 20.1953C81.7433 16.471 79.1617 13.4453 75.3378 13.4453C71.6241 13.4453 68.5859 16.3569 68.5859 20.1953C68.5859 23.9281 71.5216 27.2915 75.3378 27.2915C76.2581 27.2915 77.2373 27.25 78.2892 26.8846C79.3113 26.5294 80.3084 25.9026 81.397 24.8838C81.397 24.8838 80.5716 23.8818 80.0626 23.2854C79.8763 23.0672 79.5529 23.0579 79.3369 23.2466C78.5772 23.9108 77.9685 24.2475 77.436 24.4324C76.8093 24.6502 76.1875 24.6953 75.3378 24.6953C73.5318 24.6953 71.8997 23.3434 71.3658 21.4934ZM75.3378 16.0415C73.473 16.0415 71.9114 17.2009 71.3782 18.8972H78.9858C78.5274 17.1445 77.1279 16.0415 75.3378 16.0415Z" fill="white" style="fill:white;fill-opacity:1;"/>
<path fill-rule="evenodd" clip-rule="evenodd" d="M154.03 21.4934H164.234C164.234 21.4934 164.407 20.8011 164.407 20.1953C164.407 16.471 161.826 13.4453 158.002 13.4453C154.288 13.4453 151.25 16.3569 151.25 20.1953C151.25 23.9281 154.185 27.2915 158.002 27.2915C158.922 27.2915 159.901 27.25 160.953 26.8846C161.975 26.5294 162.972 25.9026 164.061 24.8838C164.061 24.8838 163.235 23.8818 162.726 23.2854C162.54 23.0672 162.217 23.0579 162.001 23.2466C161.241 23.9108 160.632 24.2475 160.1 24.4324C159.473 24.6502 158.851 24.6953 158.002 24.6953C156.196 24.6953 154.564 23.3434 154.03 21.4934ZM158.002 16.0415C156.137 16.0415 154.575 17.2009 154.042 18.8972H161.65C161.191 17.1445 159.792 16.0415 158.002 16.0415Z" fill="white" style="fill:white;fill-opacity:1;"/>
</g>
<defs>
<clipPath id="clip0_5828_3210">
<rect width="164.118" height="36" fill="white" style="fill:white;fill-opacity:1;" transform="translate(0.289062)"/>
</clipPath>
</defs>
</svg>
