<svg width="148" height="36" viewBox="0 0 148 36" fill="none" xmlns="http://www.w3.org/2000/svg">
<g opacity="0.56">
<path d="M6.49038 22.4889C6.46698 22.5383 6.45528 22.5526 6.45528 22.5669C6.42278 23.2806 6.30967 23.9891 6.39548 24.7093C6.45268 25.1916 6.44618 25.6791 6.43708 26.1653C6.42928 26.5878 6.44228 27.0103 6.44098 27.4328C6.43968 27.8943 6.43318 28.3572 6.43058 28.8187C6.42928 29.2009 6.42928 29.5831 6.43188 29.9653C6.43448 30.3085 6.44488 30.6504 6.44488 30.9936C6.44358 31.3602 6.44878 31.7268 6.43968 32.0921C6.42928 32.5224 6.45268 32.9527 6.43318 33.383C6.40068 34.1071 6.41238 34.8339 6.40718 35.5593C6.40458 35.9194 6.38508 35.9363 6.01327 35.9779C5.89497 35.9909 5.79877 35.9701 5.69736 35.909C5.19946 35.6061 4.72625 35.2642 4.23874 34.947C3.73044 34.6154 3.23383 34.2683 2.72292 33.9407C2.14571 33.5715 1.5828 33.1776 1.01339 32.7954C0.854791 32.6888 0.694888 32.5822 0.531085 32.4834C0.393283 32.3989 0.333482 32.2819 0.345182 32.1233C0.350382 32.0596 0.345182 31.9959 0.345182 31.9322C0.345182 25.4945 0.345182 19.0568 0.345182 12.6191C0.345182 12.5476 0.349082 12.4748 0.345182 12.4033C0.338682 12.2746 0.385483 12.1732 0.477784 12.0835C0.581786 11.9847 0.683188 11.8833 0.774189 11.7702C0.871691 11.6493 0.914591 11.6493 1.05889 11.7429C1.4333 11.986 1.80771 12.2304 2.18081 12.4748C2.86202 12.9207 3.53543 13.3744 4.22314 13.8099C4.80295 14.1765 5.35806 14.5821 5.94047 14.9448C6.58398 15.3466 7.19759 15.7912 7.8411 16.1929C8.25971 16.4529 8.67311 16.7246 9.08392 17.0002C9.45442 17.2485 9.83533 17.4812 10.2097 17.723C10.5581 17.9479 10.9039 18.178 11.2524 18.4029C11.5943 18.6239 11.9375 18.841 12.2807 19.0594C12.3678 19.1153 12.4523 19.1751 12.5394 19.231C13.556 19.8784 14.5726 20.5245 15.5879 21.1745C15.9168 21.3851 16.2353 21.6126 16.5642 21.8233C16.9074 22.043 17.2597 22.2471 17.6017 22.4655C18.0385 22.7437 18.4701 23.0323 18.9056 23.3118C19.1812 23.4886 19.462 23.655 19.7376 23.8318C20.0665 24.0424 20.3928 24.2569 20.7204 24.4701C20.8478 24.5533 20.9752 24.6352 21.1026 24.7171C21.3457 24.8757 21.3613 24.8744 21.5927 24.721C22.0048 24.448 22.4182 24.175 22.8316 23.9033C23.6376 23.3742 24.445 22.8438 25.2523 22.316C26.0401 21.8012 26.8162 21.2694 27.6053 20.7572C28.2345 20.349 28.8611 19.9369 29.489 19.5261C30.0701 19.1452 30.6565 18.7734 31.2285 18.3808C31.8265 17.97 32.4414 17.5839 33.0485 17.1861C33.4489 16.9235 33.848 16.6596 34.2497 16.3983C34.6644 16.1279 35.0804 15.8627 35.4938 15.5897C36.0593 15.2153 36.6183 14.8343 37.1838 14.4612C37.6909 14.1271 38.2031 13.8021 38.7088 13.468C39.0676 13.2314 39.4212 12.9857 39.78 12.7491C40.2935 12.4111 40.8109 12.0809 41.3244 11.7429C41.4245 11.6766 41.4999 11.687 41.5753 11.7728C41.5857 11.7845 41.5974 11.7949 41.6091 11.8066C42.133 12.3357 42.0641 12.1433 42.0654 12.8804C42.0667 19.1504 42.0667 25.4204 42.0667 31.6904C42.0667 31.7697 42.0602 31.8503 42.068 31.9296C42.1005 32.2546 41.9471 32.4834 41.6923 32.655C41.4141 32.8422 41.1307 33.0203 40.846 33.1997C39.9542 33.7613 39.0702 34.3307 38.2135 34.9444C37.7208 35.298 37.2034 35.6152 36.6989 35.9532C36.5975 36.0208 36.5143 36.0169 36.4155 35.9467C36.1139 35.7322 36.1113 35.7361 36.1113 35.3474C36.1113 31.1782 36.1113 27.009 36.1113 22.8386C36.1113 22.7593 36.1152 22.6787 36.1087 22.5994C36.097 22.4707 36.0567 22.4512 35.9371 22.5149C35.8669 22.5526 35.7954 22.5916 35.7317 22.6371C35.1545 23.0505 34.5357 23.4015 33.9533 23.8071C33.653 24.0164 33.3306 24.1945 33.0212 24.3934C32.3777 24.8081 31.7355 25.2254 31.0933 25.6414C30.4835 26.0353 29.8751 26.4292 29.2654 26.8244C28.7974 27.1286 28.332 27.4367 27.8627 27.7383C27.2179 28.1518 26.5588 28.5457 25.9283 28.9786C25.4538 29.3036 24.9611 29.5987 24.4918 29.9289C24.211 30.1252 23.9132 30.2968 23.6246 30.4827C22.8394 30.9884 22.0555 31.4954 21.2716 32.0011C20.9973 32.1779 20.9089 32.1701 20.6437 31.9907C19.8962 31.485 19.1448 30.9871 18.396 30.4827C18.0658 30.2604 17.7343 30.0394 17.4118 29.8041C17.1479 29.6117 16.8671 29.4427 16.5941 29.262C16.2353 29.0228 15.8765 28.7849 15.5203 28.5431C15.0393 28.2154 14.557 27.8904 14.0695 27.5732C13.6275 27.2872 13.2011 26.9778 12.7643 26.6853C12.1611 26.281 11.5514 25.8884 10.952 25.4789C10.5243 25.1864 10.0992 24.8874 9.66243 24.6079C9.27892 24.3635 8.90711 24.1022 8.52881 23.85C8.1245 23.5796 7.7202 23.3092 7.32239 23.0271C7.05849 22.8386 6.79328 22.6488 6.49038 22.4889Z" fill="white" style="fill:white;fill-opacity:1;"/>
<path d="M0.346368 4.13652C0.346368 3.1615 0.350268 2.18779 0.343768 1.21277C0.342468 0.963169 0.41007 0.775966 0.649273 0.671964C0.684374 0.656364 0.715574 0.627763 0.745475 0.601763C0.950878 0.43146 0.967778 0.42496 1.20828 0.554962C1.89599 0.928068 2.6188 1.22967 3.31951 1.57548C3.74852 1.78738 4.18533 1.98368 4.61043 2.20339C5.05634 2.43479 5.51915 2.63239 5.97286 2.8495C6.39016 3.0497 6.80357 3.25641 7.22088 3.45661C7.87609 3.76991 8.5248 4.09492 9.18001 4.40692C9.86382 4.73323 10.5515 5.05433 11.2275 5.39884C11.6448 5.61204 12.0712 5.81744 12.5055 5.99555C12.7213 6.08395 12.9163 6.20875 13.1243 6.30885C13.591 6.53376 14.0694 6.73136 14.5205 6.98876C14.7207 7.10316 14.9365 7.19157 15.1484 7.28387C15.7919 7.56467 16.4081 7.90398 17.0516 8.18478C17.2687 8.27968 17.478 8.40058 17.6938 8.50329C18.2476 8.76979 18.8028 9.03369 19.3553 9.3015C19.7648 9.5004 20.1704 9.7045 20.5799 9.90341C20.9309 10.0737 21.2871 10.2349 21.6381 10.4065C21.7577 10.465 21.8617 10.4442 21.98 10.3961C22.2842 10.2726 22.5572 10.0893 22.8484 9.94241C23.1617 9.78381 23.4763 9.6291 23.7935 9.4796C23.982 9.3912 24.1497 9.2677 24.3343 9.1728C24.9649 8.84649 25.6058 8.54099 26.2311 8.20298C26.9396 7.81818 27.6715 7.47887 28.3891 7.11356C29.0287 6.78726 29.6618 6.44925 30.3001 6.12035C30.6823 5.92275 31.0697 5.73164 31.4533 5.53534C32.0929 5.20773 32.7299 4.87623 33.3695 4.54992C33.7894 4.33542 34.2171 4.13912 34.6305 3.91291C35.0296 3.69451 35.4417 3.50081 35.8434 3.28761C36.2594 3.0666 36.6819 2.8573 37.0992 2.64149C37.7649 2.29699 38.4292 1.94728 39.0974 1.60538C39.4601 1.41948 39.8293 1.24917 40.192 1.06457C40.504 0.904668 40.8108 0.734365 41.1215 0.569262C41.1852 0.535462 41.2476 0.495162 41.3152 0.475662C41.4374 0.439261 41.5466 0.315758 41.6935 0.42496C41.8755 0.560162 42.0588 0.690165 42.0692 0.947569C42.0718 1.00347 42.0718 1.05937 42.0718 1.11527C42.0718 3.0237 42.0718 4.93343 42.0705 6.84186C42.0705 6.93676 42.0653 7.03296 42.0536 7.12786C42.0432 7.20717 42.0211 7.29037 41.9574 7.34237C41.5804 7.64917 41.3009 8.05738 40.894 8.33428C40.5313 8.58129 40.1569 8.80879 39.7877 9.04539C39.2638 9.3821 38.7451 9.7253 38.2069 10.0386C37.7024 10.3311 37.2383 10.686 36.73 10.9733C36.4245 11.1462 36.1437 11.3594 35.8486 11.5505C35.339 11.8794 34.8268 12.2018 34.3185 12.532C33.6828 12.9455 33.0549 13.3693 32.4179 13.7788C31.8147 14.1675 31.2257 14.5783 30.6173 14.9605C30.0375 15.3258 29.4889 15.7418 28.9065 16.1019C28.3163 16.4672 27.7547 16.8754 27.1684 17.2472C26.5496 17.6411 25.949 18.0649 25.3367 18.4705C24.8778 18.7747 24.4123 19.0686 23.9521 19.3715C23.5985 19.6042 23.2514 19.8434 22.9004 20.08C22.6092 20.275 22.3193 20.4726 22.0242 20.6624C21.8747 20.7586 21.6992 20.7924 21.5289 20.8379C21.4145 20.8691 21.2962 20.8821 21.1935 20.9575C21.0921 21.0316 20.9972 20.9757 20.9075 20.9159C20.6293 20.73 20.3498 20.5428 20.0716 20.3569C19.2279 19.7966 18.3881 19.2285 17.5365 18.6785C16.7188 18.1507 15.9063 17.6151 15.0964 17.0769C14.293 16.5426 13.487 16.0109 12.6797 15.4831C12.0921 15.0996 11.4979 14.7265 10.9116 14.3404C10.4319 14.0245 9.96522 13.6917 9.48551 13.3771C8.8927 12.9858 8.29209 12.6061 7.69798 12.2187C7.35088 11.9925 7.01677 11.7455 6.66187 11.5297C6.21206 11.2554 5.79215 10.9382 5.34495 10.6587C4.87044 10.3623 4.40763 10.0503 3.93962 9.74481C3.61202 9.5316 3.27921 9.3262 2.96071 9.1013C2.3341 8.66059 1.66849 8.27968 1.04838 7.82857C0.887177 7.71157 0.716874 7.60627 0.543972 7.50747C0.394469 7.42167 0.343769 7.30207 0.345069 7.13307C0.348969 6.13335 0.346368 5.13493 0.346368 4.13652Z" fill="white" style="fill:white;fill-opacity:1;"/>
<path d="M65.094 8.30781C65.094 10.7843 65.094 13.2596 65.094 15.7361C65.094 16.1313 65.094 16.1313 64.6962 16.1313C64.2165 16.1313 63.7381 16.1326 63.2584 16.13C63.0062 16.1287 62.9815 16.1053 62.9802 15.857C62.9776 15.3695 62.9789 14.882 62.9789 14.3958C62.9789 11.5605 62.9789 8.72511 62.9776 5.88977C62.9776 5.81047 62.9776 5.72987 62.975 5.65056C62.9724 5.58556 62.9659 5.51926 62.8853 5.50106C62.8177 5.48546 62.7579 5.50366 62.7124 5.55826C62.6825 5.59466 62.6539 5.63496 62.6292 5.67526C62.3783 6.07307 62.1391 6.47868 61.8739 6.86738C61.5333 7.36919 61.2213 7.8892 60.9145 8.41051C60.6038 8.94091 60.2736 9.45962 59.9746 9.99653C59.7848 10.3371 59.5547 10.6569 59.3597 10.9949C59.0451 11.541 58.6798 12.0558 58.3716 12.607C58.174 12.9619 57.9387 13.2947 57.7242 13.6405C57.615 13.816 57.5123 13.9967 57.407 14.1761C57.3862 14.2099 57.3693 14.2463 57.3498 14.2814C57.2289 14.5011 57.0638 14.6298 56.7908 14.5947C56.6257 14.5726 56.4554 14.5856 56.2877 14.5921C56.1434 14.5973 56.0485 14.5388 55.9757 14.4153C55.5922 13.7614 55.2061 13.1101 54.8161 12.4588C54.6029 12.1026 54.3702 11.7581 54.1674 11.3967C53.9841 11.069 53.7787 10.7557 53.5889 10.432C53.3432 10.0121 53.0871 9.59873 52.8323 9.18532C52.4436 8.55351 52.0756 7.9087 51.6986 7.27039C51.4139 6.78938 51.1279 6.30967 50.8419 5.83127C50.7964 5.75587 50.7509 5.67916 50.6768 5.62846C50.5728 5.55956 50.487 5.59466 50.4701 5.71817C50.4584 5.80397 50.4623 5.89367 50.4623 5.98077C50.4623 9.15932 50.4623 12.3392 50.4623 15.5177C50.4623 15.6139 50.4662 15.7101 50.4571 15.805C50.4363 16.0026 50.3102 16.1235 50.11 16.1287C49.8383 16.1365 49.5666 16.1313 49.2949 16.1313C48.8633 16.1313 48.4317 16.1339 48.0001 16.13C47.7765 16.1274 47.7323 16.0832 47.7284 15.8635C47.7245 15.5996 47.7245 15.337 47.7531 15.0744C47.7674 14.9405 47.77 14.804 47.77 14.6675C47.7713 13.5417 47.7349 12.4133 47.7817 11.2888C47.8389 9.91593 47.7674 8.54181 47.8285 7.17029C47.8857 5.88457 47.8207 4.59885 47.8753 3.31573C47.9143 2.42911 47.9013 1.5438 47.9143 0.658487C47.9182 0.423183 47.9429 0.395883 48.1769 0.394583C48.6722 0.391983 49.1675 0.394583 49.6628 0.393283C49.8058 0.393283 49.9436 0.420584 50.0216 0.545386C50.1789 0.79759 50.4025 0.996493 50.5546 1.2513C50.8822 1.79861 51.2163 2.34201 51.5296 2.89842C51.7571 3.30143 52.0028 3.69403 52.2316 4.09704C52.5307 4.62355 52.8583 5.13316 53.1586 5.65836C53.637 6.49558 54.1479 7.31459 54.6419 8.144C55.0345 8.80181 55.4193 9.46352 55.8106 10.1213C56.0264 10.484 56.2474 10.8441 56.471 11.203C56.5763 11.372 56.601 11.3707 56.705 11.1939C56.9871 10.7128 57.2601 10.2253 57.5253 9.73263C57.8464 9.13592 58.1857 8.54961 58.5172 7.9594C58.6928 7.64609 58.8683 7.33409 59.0438 7.02079C59.4182 6.35258 59.7783 5.67656 60.1631 5.01355C60.5349 4.37134 60.8781 3.71353 61.2382 3.06482C61.5632 2.47852 61.8947 1.89611 62.2223 1.3124C62.3471 1.09009 62.4758 0.869091 62.5876 0.641587C62.6708 0.472585 62.7813 0.388083 62.9789 0.390683C63.5626 0.398483 64.145 0.391983 64.7287 0.394583C65.0355 0.395883 65.0902 0.450484 65.0902 0.761189C65.0915 2.06251 65.0914 3.36513 65.0914 4.66645C65.094 5.88067 65.094 7.09359 65.094 8.30781Z" fill="white" style="fill:white;fill-opacity:1;"/>
<path d="M128.156 11.6418C128.197 11.5313 128.179 11.4273 128.179 11.3246C128.18 7.69101 128.18 4.05615 128.18 0.422595C128.18 0.00138848 128.18 0.00138778 128.602 0.00138778C129.105 0.00138778 129.608 8.77574e-05 130.111 0.00138778C130.39 0.0026878 130.55 0.153491 130.575 0.435595C130.582 0.514896 130.579 0.595497 130.579 0.674798C130.579 5.63437 130.579 10.594 130.579 15.5535C130.579 15.6575 130.583 15.7628 130.565 15.8642C130.532 16.0514 130.445 16.1268 130.255 16.1281C129.72 16.132 129.185 16.1281 128.65 16.1307C128.528 16.132 128.437 16.0878 128.361 15.9929C128.058 15.612 127.754 15.2324 127.447 14.8541C126.996 14.2964 126.526 13.753 126.095 13.1797C125.717 12.6753 125.287 12.2138 124.913 11.7055C124.626 11.3142 124.304 10.9476 124 10.5679C123.561 10.0193 123.127 9.46683 122.689 8.91953C122.23 8.34752 121.767 7.77811 121.307 7.2074C120.903 6.70429 120.501 6.19858 120.097 5.69418C119.882 5.42637 119.671 5.15727 119.452 4.89336C119.4 4.82966 119.36 4.74646 119.26 4.71266C119.21 4.82056 119.23 4.92456 119.23 5.02467C119.228 8.49832 119.228 11.9733 119.228 15.4469C119.228 15.5743 119.235 15.703 119.223 15.8304C119.204 16.0449 119.114 16.1281 118.9 16.1294C118.229 16.132 117.558 16.1333 116.886 16.1294C116.679 16.1281 116.638 16.08 116.627 15.872C116.623 15.8005 116.626 15.7277 116.626 15.6562C116.626 10.5848 116.626 5.51347 116.626 0.442095C116.626 0.00268868 116.626 0.00268807 117.055 0.00268807C117.55 0.00268807 118.045 0.00788859 118.541 8.84715e-05C118.707 -0.00251157 118.831 0.0520886 118.936 0.178191C119.141 0.422594 119.33 0.681299 119.533 0.927002C119.807 1.25981 120.071 1.60041 120.341 1.93582C120.656 2.32712 120.969 2.71973 121.283 3.11234C121.86 3.83385 122.442 4.55276 123.013 5.27947C123.387 5.75528 123.777 6.22068 124.139 6.70689C124.377 7.0267 124.644 7.3244 124.893 7.63641C125.474 8.36572 126.05 9.10023 126.631 9.82954C127.098 10.4158 127.568 10.9996 128.037 11.5846C128.062 11.6119 128.091 11.6405 128.156 11.6418Z" fill="white" style="fill:white;fill-opacity:1;"/>
<path d="M101.234 8.06402C101.234 5.50818 101.234 2.95105 101.234 0.395206C101.234 0.00130014 101.234 0 101.635 0C105.175 0 108.715 0 112.255 0C112.604 0 112.711 0.0988017 112.738 0.460207C112.747 0.587609 112.742 0.716311 112.742 0.843713C112.742 1.18692 112.728 1.53142 112.747 1.87333C112.763 2.13983 112.554 2.32964 112.287 2.32704C110.721 2.31534 109.155 2.32184 107.589 2.32184C106.51 2.32184 105.431 2.32184 104.353 2.32184C104.282 2.32184 104.209 2.32314 104.137 2.32444C104.041 2.32574 103.989 2.37254 103.987 2.47004C103.985 2.53374 103.984 2.59744 103.984 2.66114C103.984 3.93126 103.984 5.20138 103.984 6.4715C103.984 6.81991 103.985 6.82121 104.325 6.82121C106.594 6.82121 108.863 6.82121 111.133 6.82121C111.221 6.82121 111.308 6.81861 111.397 6.82381C111.648 6.83941 111.818 6.99931 111.83 7.24761C111.84 7.44652 111.85 7.64932 111.824 7.84562C111.792 8.09262 111.794 8.33963 111.791 8.58663C111.791 8.64253 111.791 8.69843 111.784 8.75433C111.753 8.99744 111.67 9.07544 111.428 9.07674C110.925 9.07934 110.422 9.07804 109.917 9.07804C108.079 9.07804 106.242 9.07804 104.404 9.07804C104.38 9.07804 104.356 9.07804 104.332 9.07804C103.989 9.07934 103.984 9.08324 103.984 9.42515C103.984 10.8227 103.984 12.2215 103.984 13.619C103.984 13.6671 103.983 13.7152 103.987 13.7633C104 13.9115 104.026 13.9388 104.178 13.9505C104.249 13.9557 104.322 13.9531 104.393 13.9531C107.118 13.9531 109.843 13.9531 112.568 13.9531C112.664 13.9531 112.76 13.9505 112.855 13.9622C113.091 13.9908 113.18 14.087 113.182 14.3197C113.185 14.815 113.185 15.3103 113.182 15.8056C113.179 16.0695 113.12 16.128 112.853 16.128C111.718 16.1293 110.583 16.1293 109.449 16.1293C106.844 16.1293 104.24 16.1293 101.635 16.1293C101.238 16.1293 101.238 16.1293 101.238 15.7328C101.234 13.177 101.234 10.6212 101.234 8.06402Z" fill="white" style="fill:white;fill-opacity:1;"/>
<path d="M79.2551 35.5317C78.8872 35.5317 78.5206 35.5291 78.1526 35.533C78.007 35.5343 77.9277 35.4849 77.8705 35.338C77.6339 34.7283 77.3843 34.1238 77.1308 33.5206C76.9332 33.05 76.7434 32.5755 76.564 32.0971C76.4184 31.711 76.1012 31.5641 75.7125 31.5576C75.1769 31.5498 74.64 31.5849 74.107 31.5485C72.9656 31.4705 71.8228 31.5043 70.6814 31.5186C69.9794 31.5277 69.2774 31.5381 68.5754 31.5602C68.175 31.5732 67.8721 31.7604 67.6771 32.1335C67.3703 32.7237 67.1649 33.3529 66.9192 33.9678C66.7593 34.3669 66.628 34.7777 66.4473 35.169C66.3316 35.4199 66.1717 35.5473 65.874 35.5382C65.2434 35.5187 64.6116 35.533 63.9798 35.5317C63.6301 35.5304 63.5976 35.4628 63.7523 35.156C63.9005 34.8648 64.0253 34.5619 64.1605 34.2655C64.3906 33.7572 64.6194 33.2476 64.8521 32.7406C64.9444 32.5378 65.0367 32.3337 65.1199 32.1283C65.3461 31.5732 65.6257 31.0428 65.8597 30.4916C66.0001 30.1613 66.1431 29.8324 66.2913 29.5048C66.6202 28.7781 66.9621 28.0579 67.2793 27.326C67.3898 27.0699 67.5159 26.8216 67.6186 26.5616C67.7343 26.2652 67.8877 25.9831 68.0177 25.6919C68.2465 25.1823 68.4558 24.6636 68.6989 24.1618C68.9433 23.6586 69.1396 23.136 69.3931 22.6381C69.6089 22.2117 69.7831 21.7645 69.9781 21.3277C70.2121 20.8025 70.4474 20.2786 70.6827 19.7547C70.7061 19.704 70.7399 19.6559 70.7529 19.6026C70.8036 19.3855 70.9362 19.3205 71.1546 19.3244C71.8176 19.3361 72.4807 19.3348 73.1437 19.3257C73.3361 19.3231 73.4401 19.3868 73.5298 19.5649C73.8405 20.1863 74.1161 20.822 74.3891 21.459C74.471 21.6488 74.5763 21.8282 74.6608 22.018C74.9767 22.7239 75.3199 23.4181 75.628 24.128C75.9972 24.9769 76.395 25.8115 76.7837 26.6513C77.0645 27.2597 77.3349 27.8733 77.6157 28.483C77.916 29.1356 78.2371 29.7778 78.5271 30.4344C78.6623 30.7399 78.7975 31.0467 78.934 31.3509C79.0861 31.6928 79.2551 32.0282 79.4085 32.3701C79.7374 33.1059 80.0663 33.8417 80.39 34.5801C80.4732 34.7699 80.5408 34.9662 80.6292 35.1547C80.7371 35.3848 80.6435 35.5252 80.3822 35.5304C80.0065 35.5369 79.6308 35.5317 79.2551 35.5317ZM72.2558 22.0661C72.209 22.0726 72.1947 22.1129 72.1726 22.1454C72.053 22.3261 71.9775 22.5276 71.8943 22.7265C71.7396 23.0931 71.5667 23.4532 71.4016 23.8159C71.1962 24.2658 70.9908 24.7156 70.7841 25.1641C70.5774 25.6139 70.3681 26.0611 70.164 26.5109C70.1146 26.6188 70.0834 26.7358 70.034 26.845C69.8546 27.2363 69.6713 27.625 69.4906 28.0163C69.3008 28.4284 69.1201 28.8457 68.9251 29.2552C68.7717 29.575 68.7691 29.5789 69.1162 29.5789C71.1286 29.5789 73.1398 29.5789 75.1522 29.5776C75.2081 29.5776 75.264 29.5802 75.3199 29.5763C75.4707 29.5646 75.4967 29.5321 75.4447 29.3995C75.2003 28.7846 74.9624 28.1671 74.7037 27.5587C74.2734 26.546 73.8327 25.5385 73.3907 24.531C73.0449 23.7431 72.6913 22.9579 72.3403 22.1714C72.3221 22.1298 72.3143 22.0778 72.2558 22.0661Z" fill="white" style="fill:white;fill-opacity:1;"/>
<path d="M75.8734 0.0522284C76.2088 0.0522284 76.5442 0.0561292 76.8796 0.0509291C77.085 0.0470291 77.2202 0.119829 77.3073 0.321333C77.5348 0.84004 77.7922 1.34575 78.0184 1.86446C78.3122 2.53657 78.632 3.19698 78.9245 3.86909C79.1339 4.35139 79.3783 4.8194 79.5902 5.30171C79.8827 5.96602 80.2064 6.61473 80.4924 7.28164C80.6835 7.72755 80.9058 8.16175 81.1073 8.60506C81.4362 9.33177 81.7885 10.0481 82.0966 10.7852C82.1889 11.0049 82.3111 11.2116 82.406 11.4326C82.5594 11.7914 82.718 12.1502 82.8896 12.4999C83.108 12.9445 83.3056 13.3969 83.5084 13.848C83.7398 14.3654 83.9582 14.8881 84.1831 15.4068C84.2143 15.4796 84.2429 15.5563 84.2871 15.6213C84.3885 15.7695 84.3443 15.9151 84.2793 16.0529C84.2182 16.1816 84.0986 16.2219 83.9595 16.2206C83.6163 16.218 83.2718 16.2206 82.9286 16.2206C82.5932 16.2206 82.2578 16.2167 81.9224 16.2219C81.769 16.2245 81.6754 16.179 81.6156 16.0217C81.2841 15.1403 80.8876 14.2848 80.56 13.4021C80.4768 13.1785 80.365 12.9653 80.2779 12.743C80.1544 12.4245 79.871 12.314 79.5629 12.2542C79.5083 12.2438 79.4511 12.249 79.3952 12.249C77.566 12.2451 75.7356 12.2399 73.9065 12.2373C73.3956 12.2373 72.8834 12.2464 72.3725 12.2477C71.9577 12.249 71.6626 12.4518 71.4481 12.7885C71.192 13.1902 71.0724 13.6491 70.8969 14.0859C70.7513 14.4486 70.6096 14.8127 70.4666 15.1754C70.3561 15.4575 70.2391 15.7383 70.1416 16.0243C70.0909 16.1725 70.0038 16.2232 69.8569 16.2219C69.1133 16.2193 68.371 16.2232 67.6274 16.2193C67.4077 16.218 67.37 16.153 67.4584 15.9528C67.7938 15.1936 68.1279 14.4343 68.4776 13.6829C68.8754 12.8288 69.2446 11.963 69.6411 11.1089C69.866 10.6253 70.0701 10.1287 70.2911 9.64377C70.6889 8.77276 71.0776 7.89655 71.4741 7.02554C71.7848 6.34302 72.0851 5.65662 72.3919 4.9728C72.5128 4.7037 72.6416 4.4372 72.7625 4.16809C72.9991 3.64548 73.2318 3.12028 73.4671 2.59767C73.6764 2.13226 73.8883 1.66685 74.0976 1.20015C74.2341 0.894642 74.3706 0.589137 74.5006 0.281032C74.5864 0.0795291 74.6111 0.0548288 74.8399 0.0535287C75.187 0.0509287 75.5302 0.0522284 75.8734 0.0522284ZM76.0164 2.74977C75.9501 2.75757 75.9306 2.79397 75.915 2.83037C75.6498 3.41018 75.3846 3.98999 75.1207 4.5698C74.8373 5.19381 74.5578 5.81912 74.2718 6.44183C74.0378 6.94884 73.8051 7.45584 73.5737 7.96285C73.2695 8.62976 72.9718 9.29927 72.6754 9.97008C72.5479 10.2574 72.5519 10.2717 72.8717 10.2717C74.9075 10.273 76.9433 10.2717 78.9792 10.2717C79.0351 10.2717 79.091 10.2717 79.1469 10.2665C79.2197 10.26 79.2418 10.2132 79.2236 10.1482C79.2106 10.1027 79.1911 10.0585 79.1703 10.0156C79.0299 9.73868 78.9349 9.44097 78.8114 9.15627C78.5293 8.50626 78.2914 7.83675 77.9963 7.19064C77.5491 6.21172 77.1188 5.22501 76.6963 4.23439C76.5832 3.97049 76.4506 3.71699 76.3453 3.44918C76.2491 3.20738 76.1373 2.97337 76.0164 2.74977Z" fill="white" style="fill:white;fill-opacity:1;"/>
<path d="M132.414 35.6365C132.063 35.6365 131.71 35.6287 131.359 35.6391C131.167 35.6443 131.056 35.5871 130.982 35.3934C130.725 34.7239 130.448 34.0609 130.175 33.3979C130.002 32.978 129.824 32.5594 129.668 32.1317C129.616 31.9874 129.491 31.9068 129.37 31.8314C129.184 31.7157 128.981 31.652 128.757 31.6585C128.5 31.6663 128.244 31.6676 127.99 31.6585C126.632 31.6078 125.274 31.6 123.917 31.6221C123.19 31.6338 122.463 31.6468 121.738 31.6676C121.328 31.6793 121.016 31.9016 120.819 32.2656C120.578 32.7089 120.423 33.1886 120.24 33.6566C120.007 34.2507 119.796 34.8526 119.542 35.4389C119.482 35.578 119.403 35.6365 119.255 35.6365C118.511 35.6339 117.769 35.6352 117.025 35.6352C116.993 35.6352 116.96 35.6352 116.929 35.63C116.812 35.6092 116.778 35.5572 116.825 35.4441C116.873 35.3258 116.937 35.2153 116.99 35.0983C117.228 34.5757 117.465 34.0531 117.7 33.5292C117.903 33.0781 118.1 32.6257 118.301 32.1733C118.398 31.9549 118.494 31.7352 118.593 31.5168C118.999 30.6223 119.413 29.7331 119.807 28.8348C120.124 28.112 120.464 27.3996 120.767 26.6703C120.972 26.1776 121.227 25.7057 121.436 25.213C121.635 24.7424 121.876 24.2899 122.051 23.8102C122.13 23.5931 122.245 23.3903 122.338 23.1784C122.64 22.492 122.965 21.816 123.274 21.1335C123.482 20.6759 123.689 20.217 123.879 19.7529C123.961 19.5514 124.084 19.4721 124.296 19.4747C124.959 19.4812 125.622 19.4799 126.285 19.476C126.482 19.4747 126.601 19.5423 126.696 19.7295C126.89 20.1143 127.056 20.5108 127.228 20.9047C127.304 21.0802 127.381 21.2557 127.467 21.426C127.821 22.1241 128.101 22.8547 128.454 23.5541C128.676 23.9948 128.857 24.4563 129.062 24.9062C129.287 25.4002 129.521 25.8903 129.747 26.383C129.963 26.8536 130.174 27.3281 130.391 27.7987C130.517 28.073 130.648 28.346 130.783 28.6164C130.891 28.8309 130.973 29.0558 131.075 29.2729C131.385 29.9294 131.678 30.5937 131.979 31.2542C132.198 31.7326 132.424 32.2097 132.641 32.6894C132.882 33.2198 133.122 33.7502 133.338 34.2923C133.456 34.5887 133.598 34.8747 133.736 35.1633C133.911 35.5312 133.85 35.6326 133.444 35.6339C133.1 35.6365 132.757 35.6365 132.414 35.6365ZM125.399 22.1709C125.328 22.2073 125.313 22.2632 125.291 22.3126C124.985 22.9782 124.681 23.6451 124.378 24.3107C124.134 24.8477 123.9 25.3911 123.646 25.9241C123.332 26.5871 123.053 27.2657 122.732 27.9261C122.492 28.4201 122.284 28.931 122.059 29.4328C121.955 29.6655 121.96 29.6772 122.219 29.6811C122.251 29.6811 122.282 29.6811 122.315 29.6811C124.296 29.6811 126.277 29.6811 128.259 29.6811C128.322 29.6811 128.387 29.6837 128.45 29.6772C128.602 29.6629 128.627 29.62 128.568 29.4744C128.364 28.9635 128.16 28.4526 127.951 27.9443C127.728 27.4061 127.518 26.8614 127.271 26.3336C126.946 25.6394 126.667 24.927 126.344 24.2327C126.114 23.7413 125.895 23.2447 125.694 22.7416C125.614 22.5453 125.5 22.3646 125.399 22.1709Z" fill="white" style="fill:white;fill-opacity:1;"/>
<path d="M82.5793 27.5777C82.5793 25.0219 82.5793 22.466 82.5793 19.9102C82.5793 19.5202 82.5793 19.5202 82.9589 19.5202C85.3392 19.5202 87.7209 19.5215 90.1012 19.5176C90.3911 19.5176 90.6758 19.5449 90.9566 19.6073C91.8419 19.8049 92.6947 20.0857 93.467 20.5784C94.3705 21.1543 95.027 21.9278 95.3962 22.9418C95.651 23.6399 95.7771 24.355 95.7784 25.0973C95.7797 25.5939 95.7576 26.0853 95.6406 26.5702C95.4989 27.1591 95.2532 27.6973 94.91 28.1965C94.4407 28.8751 93.8648 29.4432 93.1705 29.8865C92.6453 30.2219 92.0707 30.4299 91.448 30.5001C90.9163 30.5599 90.382 30.5664 89.849 30.608C89.2367 30.6561 88.6218 30.6445 88.0108 30.7069C87.652 30.7446 87.2919 30.7173 86.9357 30.7537C86.3766 30.8109 85.8189 30.7784 85.2599 30.7914C85.009 30.7966 84.9895 30.8135 84.9895 31.0696C84.9882 32.38 84.9895 33.6891 84.9882 34.9995C84.9882 35.1035 84.9869 35.2075 84.97 35.3102C84.9258 35.5806 84.8647 35.6326 84.5917 35.6326C84.0171 35.6352 83.4412 35.6339 82.8666 35.6339C82.8341 35.6339 82.8029 35.6352 82.7704 35.6313C82.6248 35.6157 82.5936 35.5871 82.5819 35.4389C82.5754 35.3596 82.5793 35.279 82.5793 35.1997C82.5793 32.6569 82.5793 30.1179 82.5793 27.5777ZM84.9882 25.6329C84.9882 25.9046 84.9882 26.1763 84.9882 26.448C84.9882 27.1591 84.9895 27.8689 84.9869 28.58C84.9856 28.879 85.0454 28.8413 85.2365 28.8283C85.6343 28.7997 86.0334 28.8049 86.4312 28.7763C86.9877 28.7347 87.5467 28.7464 88.1044 28.7321C89.0547 28.7061 90.0011 28.6658 90.9423 28.5319C91.331 28.476 91.7145 28.3941 92.0525 28.1809C92.54 27.8741 92.8286 27.4061 93.0405 26.8913C93.2732 26.3245 93.372 25.7278 93.3746 25.1155C93.3759 24.8048 93.3604 24.4941 93.3383 24.1834C93.2837 23.4332 93.0249 22.7741 92.5335 22.2047C92.2462 21.8719 91.8783 21.6613 91.4623 21.5599C90.6537 21.3623 89.8295 21.2882 88.9949 21.2908C87.7885 21.2934 86.5833 21.3363 85.3769 21.296C85.321 21.2947 85.2651 21.2934 85.2092 21.3012C85.0623 21.3194 85.0103 21.3714 85.0142 21.5183C85.0311 22.0214 84.9921 22.5219 84.9908 23.025C84.9869 23.8921 84.9882 24.7632 84.9882 25.6329Z" fill="white" style="fill:white;fill-opacity:1;"/>
<path d="M84.4083 0.00268232C84.7762 0.00268232 85.1428 0.00658282 85.5107 8.27193e-05C85.668 -0.00251732 85.7616 0.0559833 85.8227 0.202886C86.0788 0.812595 86.3622 1.4106 86.6131 2.02421C86.8146 2.51822 87.0525 2.99923 87.2657 3.48934C87.5686 4.18355 87.8637 4.88166 88.1628 5.57847C88.2889 5.87227 88.4163 6.16348 88.545 6.45598C88.6607 6.71859 88.7816 6.97859 88.8947 7.24249C89.1521 7.8444 89.4329 8.43591 89.6799 9.04042C89.9659 9.74243 90.3039 10.421 90.5769 11.1283C90.7095 11.4702 90.8772 11.7978 91.0241 12.1345C91.1229 12.3607 91.2061 12.5934 91.3244 12.8118C91.3478 12.8534 91.3647 12.9054 91.4232 12.8989C91.4674 12.8937 91.4778 12.8482 91.4947 12.8118C91.6793 12.388 91.8639 11.9629 92.0485 11.5391C92.341 10.867 92.6361 10.1948 92.9273 9.52013C93.1574 8.98582 93.3745 8.44501 93.615 7.9146C93.8646 7.3621 94.0739 6.79269 94.3404 6.24668C94.4419 6.03868 94.5316 5.82417 94.6161 5.60967C94.8449 5.03116 95.0945 4.46175 95.3584 3.89754C95.4767 3.64534 95.5599 3.37753 95.6756 3.12273C96.0071 2.38822 96.3139 1.64331 96.6337 0.903596C96.7221 0.698193 96.8235 0.499291 96.9093 0.293888C96.9704 0.145685 97.0757 0.111885 97.2265 0.0949846C97.6724 0.0429838 98.1183 0.0611839 98.5642 0.0429836C98.7709 0.0338835 98.975 -0.00771784 99.1843 0.00268232C99.2792 0.0078824 99.4066 -0.0142179 99.4365 0.0910837C99.4729 0.218486 99.6042 0.330287 99.5119 0.49019C99.4118 0.661793 99.3403 0.847696 99.2623 1.0323C99.0023 1.64981 98.7293 2.26212 98.4589 2.87573C98.2327 3.38664 98.0013 3.89494 97.7764 4.40585C97.5892 4.82836 97.4072 5.25476 97.2226 5.67857C96.9704 6.25578 96.7169 6.83299 96.4673 7.4115C96.2489 7.91721 96.0188 8.41641 95.8108 8.92732C95.634 9.36283 95.4247 9.78533 95.2349 10.2156C94.9931 10.7629 94.7695 11.3168 94.5159 11.8589C94.2754 12.3724 94.0817 12.9041 93.8269 13.4111C93.6657 13.7309 93.5487 14.0728 93.4057 14.4017C93.1795 14.9204 92.9455 15.4352 92.7193 15.9539C92.6582 16.093 92.5659 16.1645 92.4138 16.1827C91.8873 16.2464 91.3621 16.2451 90.8395 16.1619C90.6874 16.1372 90.5379 16.1281 90.3871 16.1346C90.2311 16.1411 90.131 16.0852 90.066 15.9409C89.9308 15.6354 89.7865 15.3325 89.6474 15.0283C89.4992 14.702 89.338 14.3809 89.208 14.0468C89.0078 13.5333 88.7504 13.0458 88.5372 12.5388C88.4007 12.2164 88.2551 11.8966 88.0991 11.582C87.8897 11.1608 87.7233 10.7187 87.5348 10.2884C87.3944 9.96734 87.2475 9.64883 87.1032 9.32903C86.8744 8.81942 86.6547 8.30721 86.4168 7.8028C86.1841 7.3127 85.9904 6.80699 85.7499 6.31948C85.5419 5.89827 85.3625 5.46147 85.1727 5.03116C84.9075 4.43315 84.6475 3.83384 84.3797 3.23713C84.0378 2.47402 83.6907 1.71221 83.3449 0.950397C83.2487 0.739794 83.1655 0.523991 83.0615 0.317288C82.9497 0.0949845 83.0108 0.00918326 83.2617 0.00658322C83.6413 8.31162e-05 84.0248 0.00268232 84.4083 0.00268232Z" fill="white" style="fill:white;fill-opacity:1;"/>
<path d="M56.4801 19.2933C57.6866 19.2192 58.8332 19.4961 59.9564 19.8809C60.3919 20.0304 60.7936 20.2683 61.1914 20.5101C61.6217 20.7714 61.9662 21.1224 62.3172 21.4708C62.5096 21.6619 62.5083 21.84 62.3185 22.0324C61.9987 22.3561 61.6763 22.6772 61.3539 22.997C61.1992 23.1504 60.9444 23.1738 60.7611 23.0529C60.7013 23.0139 60.6467 22.9658 60.5947 22.9164C59.9798 22.3522 59.2713 21.944 58.4796 21.6879C57.6983 21.4357 56.8949 21.3057 56.0745 21.3681C55.4713 21.4149 54.8759 21.5254 54.2909 21.7009C53.6058 21.9063 52.9961 22.2469 52.4332 22.6668C51.9665 23.0152 51.5726 23.4507 51.2411 23.9344C50.998 24.2906 50.7679 24.6533 50.6015 25.0537C50.3493 25.6608 50.1438 26.277 50.0866 26.9374C50.0684 27.1441 50.0398 27.3482 50.0411 27.5562C50.0476 28.175 50.1451 28.7795 50.3298 29.3684C50.5391 30.034 50.842 30.6581 51.2619 31.2184C51.5648 31.6214 51.9327 31.9672 52.3058 32.3039C52.7491 32.703 53.2678 32.989 53.8112 33.223C54.3767 33.4661 54.963 33.6429 55.5805 33.704C55.8821 33.7339 56.1837 33.7547 56.4879 33.7521C56.969 33.7495 57.45 33.6923 57.9076 33.5688C58.4991 33.4102 59.0776 33.1983 59.6158 32.8876C59.9967 32.6679 60.3555 32.4196 60.6948 32.1414C60.8638 32.0036 61.1784 31.9815 61.3422 32.1167C61.7374 32.4404 62.1118 32.7862 62.4628 33.1593C62.5967 33.3023 62.5876 33.3062 62.4563 33.4505C61.896 34.0654 61.2343 34.5594 60.5011 34.9325C59.4793 35.4525 58.4029 35.8178 57.2394 35.8906C56.7921 35.9179 56.3462 35.9309 55.9003 35.9231C55.2698 35.9114 54.6445 35.8633 54.0283 35.6956C53.5577 35.5669 53.0884 35.4421 52.6425 35.2432C52.1537 35.0248 51.6688 34.7999 51.2333 34.4866C50.8329 34.198 50.4338 33.9107 50.0788 33.5584C49.3586 32.846 48.8282 32.0153 48.407 31.1014C48.0664 30.3604 47.8909 29.5777 47.7674 28.7795C47.7024 28.3609 47.6751 27.9397 47.6803 27.5159C47.6868 26.9478 47.7635 26.3901 47.8636 25.8311C48.0482 24.7846 48.4603 23.8304 49.0115 22.932C49.2871 22.4822 49.6355 22.087 50.0073 21.71C50.3115 21.4032 50.6197 21.1068 50.9746 20.8598C51.4023 20.5621 51.8612 20.3203 52.3357 20.111C53.1001 19.7743 53.9035 19.5715 54.7225 19.4207C55.3049 19.3102 55.8912 19.2582 56.4801 19.2933Z" fill="white" style="fill:white;fill-opacity:1;"/>
<path d="M109.434 28.505C109.434 26.2611 109.434 24.0173 109.434 21.7722C109.434 21.4056 109.434 21.4043 109.064 21.4043C107.482 21.4043 105.901 21.4043 104.319 21.4043C103.917 21.4043 103.92 21.4043 103.922 21.0142C103.925 20.567 103.922 20.1198 103.924 19.6726C103.925 19.3177 103.956 19.2852 104.302 19.2839C104.581 19.2826 104.861 19.2839 105.14 19.2839C109.087 19.2839 113.033 19.2839 116.98 19.2839C117.084 19.2839 117.188 19.28 117.29 19.2904C117.463 19.3086 117.54 19.3801 117.541 19.5504C117.548 20.0457 117.548 20.541 117.541 21.0363C117.539 21.2144 117.418 21.3302 117.241 21.351C117.162 21.3601 117.081 21.3562 117.002 21.3562C115.5 21.3562 113.999 21.3562 112.496 21.3562C112.128 21.3562 112.127 21.3575 112.127 21.7293C112.127 26.1857 112.127 30.6422 112.127 35.0987C112.127 35.1949 112.131 35.2911 112.122 35.386C112.106 35.5381 112.029 35.6122 111.875 35.6291C111.811 35.6369 111.747 35.633 111.683 35.633C111.069 35.633 110.454 35.633 109.839 35.633C109.436 35.633 109.434 35.6317 109.434 35.2378C109.434 33.3371 109.434 31.4365 109.434 29.5359C109.434 29.1914 109.434 28.8482 109.434 28.505Z" fill="white" style="fill:white;fill-opacity:1;"/>
<path d="M136.094 27.4031C136.094 24.8317 136.094 22.2589 136.094 19.6875C136.094 19.2884 136.099 19.2832 136.492 19.2832C137.147 19.2832 137.802 19.2832 138.457 19.2832C138.536 19.2832 138.617 19.2832 138.696 19.2923C138.822 19.3079 138.899 19.3859 138.913 19.512C138.925 19.6147 138.924 19.7187 138.924 19.8227C138.924 24.2077 138.924 28.5926 138.924 32.9776C138.924 33.3767 138.924 33.3767 139.318 33.3767C141.771 33.3767 144.223 33.3767 146.676 33.3767C146.836 33.3767 146.994 33.3884 147.152 33.4209C147.274 33.4469 147.342 33.5119 147.395 33.6237C147.477 33.794 147.516 33.9656 147.511 34.1541C147.501 34.457 147.509 34.7612 147.508 35.0641C147.508 35.1434 147.507 35.2254 147.49 35.3021C147.425 35.579 147.334 35.6596 147.053 35.6245C146.701 35.5803 146.352 35.6349 146.001 35.6336C142.885 35.6297 139.77 35.631 136.654 35.631C136.138 35.631 136.095 35.5868 136.095 35.0706C136.094 32.5148 136.094 29.959 136.094 27.4031Z" fill="white" style="fill:white;fill-opacity:1;"/>
<path d="M98.9297 27.4583C98.9297 24.8713 98.9297 22.2829 98.9297 19.6959C98.9297 19.2851 98.931 19.2838 99.3444 19.2838C99.9593 19.2838 100.574 19.2825 101.189 19.2838C101.578 19.2851 101.669 19.3735 101.67 19.7648C101.671 21.5536 101.671 23.3424 101.671 25.1313C101.671 28.3982 101.671 31.6639 101.671 34.9308C101.671 35.0829 101.674 35.2337 101.622 35.3806C101.566 35.5405 101.467 35.6341 101.288 35.6341C100.585 35.6315 99.8826 35.6354 99.1793 35.6315C98.983 35.6302 98.9427 35.5847 98.9323 35.3897C98.9284 35.3104 98.931 35.2298 98.931 35.1505C98.9297 32.5856 98.9297 30.0219 98.9297 27.4583Z" fill="white" style="fill:white;fill-opacity:1;"/>
</g>
</svg>
