<svg width="227" height="36" viewBox="0 0 227 36" fill="none" xmlns="http://www.w3.org/2000/svg">
<path d="M39.4275 6.64161C38.0227 6.58934 37.1224 6.56641 36.7267 6.57281C32.2899 6.65121 27.8227 6.63361 23.3971 7.00161C24.2686 5.76001 25.2947 4.81654 26.4755 4.17121C29.2403 2.66241 32.2675 3.19361 34.8867 4.92481C34.8969 4.9315 34.9113 4.93193 34.9272 4.92604C34.9431 4.92014 34.9594 4.90832 34.9731 4.89281C34.9848 4.87894 34.9678 4.85014 34.9219 4.80641C35.7198 4.97708 36.5006 5.02988 37.2643 4.96481C37.2707 4.96481 37.2739 4.96108 37.2739 4.95361V4.89601C37.2739 4.88875 37.2761 4.88166 37.2803 4.87572C37.2845 4.86978 37.2904 4.86527 37.2972 4.86282C37.3041 4.86037 37.3115 4.86009 37.3185 4.86202C37.3255 4.86395 37.3317 4.868 37.3363 4.87361L37.5571 5.13921C37.5603 5.14348 37.5672 5.13921 37.5779 5.12641C37.582 5.12105 37.5845 5.11498 37.5851 5.10937C37.5857 5.10375 37.5843 5.09899 37.5811 5.09601C34.6451 1.79681 30.2003 -0.579191 25.6883 0.809609C23.8403 1.37921 22.2995 2.60481 21.0563 4.08961C19.9923 5.33121 19.0323 6.87841 18.2707 8.29121C18.083 8.17814 17.892 8.11201 17.6979 8.09281C18.7806 5.98614 20.0088 4.27521 21.3827 2.96001C23.2451 1.17548 25.4776 0.199476 28.0803 0.032009C28.8675 -0.019191 29.6776 0.0496091 30.5107 0.238409C32.7646 0.749342 34.7635 1.77921 36.5075 3.32801C37.6488 4.34028 38.6222 5.44481 39.4275 6.64161Z" fill="#999B9D" style="fill:#999B9D;fill:color(display-p3 0.6000 0.6078 0.6157);fill-opacity:1;"/>
<path d="M34.9177 4.80469C34.3246 4.40362 33.915 4.14069 33.6889 4.01589C31.1812 2.63562 28.6553 2.60949 26.1113 3.93749C25.7465 4.12842 25.3945 4.35509 25.0553 4.61749C25.0116 4.65055 24.963 4.66335 24.9097 4.65589L21.0521 4.08789C22.2953 2.60309 23.8361 1.37749 25.6841 0.807886C30.1961 -0.580914 34.6409 1.79508 37.5769 5.09429C37.5801 5.09727 37.5815 5.10203 37.5809 5.10764C37.5803 5.11326 37.5777 5.11933 37.5737 5.12469C37.563 5.13749 37.5561 5.14175 37.5529 5.13749L37.3321 4.87189C37.3275 4.86628 37.3212 4.86223 37.3142 4.8603C37.3072 4.85836 37.2998 4.85864 37.293 4.8611C37.2862 4.86355 37.2803 4.86806 37.2761 4.874C37.2719 4.87994 37.2697 4.88703 37.2697 4.89429V4.95189C37.2697 4.95935 37.2665 4.96309 37.2601 4.96309C36.4964 5.02815 35.7156 4.97535 34.9177 4.80469Z" fill="#999B9D" style="fill:#999B9D;fill:color(display-p3 0.6000 0.6078 0.6157);fill-opacity:1;"/>
<path d="M34.9252 4.80492C34.9711 4.84865 34.9881 4.87745 34.9764 4.89132C34.9627 4.90683 34.9464 4.91865 34.9305 4.92455C34.9145 4.93044 34.9001 4.93 34.89 4.92332C32.2708 3.19212 29.2436 2.66092 26.4788 4.16972C25.298 4.81505 24.2719 5.75852 23.4004 7.00012C22.8532 7.79692 22.3919 8.64385 22.0164 9.54092L21.5364 10.6865L20.5268 13.1601L16.0884 13.1201C16.0351 13.1201 16.0191 13.0956 16.0404 13.0465L16.4852 11.9745L18.274 8.28972C19.0356 6.87692 19.9956 5.32972 21.0596 4.08812L24.9172 4.65612C24.9705 4.66358 25.0191 4.65078 25.0628 4.61772C25.402 4.35532 25.754 4.12865 26.1188 3.93772C28.6628 2.60972 31.1887 2.63585 33.6964 4.01612C33.9225 4.14092 34.3321 4.40385 34.9252 4.80492Z" fill="#999B9D" style="fill:#999B9D;fill:color(display-p3 0.6000 0.6078 0.6157);fill-opacity:1;"/>
<path d="M8.99593 12.2066L7.93993 13.7682C7.909 13.814 7.91113 13.8578 7.94633 13.8994L9.27113 15.4738L8.78793 16.405L7.57033 14.8258C7.52766 14.7703 7.48126 14.7671 7.43113 14.8162L6.97353 15.2626C4.8498 12.4124 2.85033 9.47802 0.975131 6.45935C0.65993 5.95375 0.29993 4.86255 0.98313 4.46895C1.74313 4.03055 2.22313 4.45615 2.72873 5.07215C4.7362 7.51802 6.82526 9.89615 8.99593 12.2066Z" fill="#999B9D" style="fill:#999B9D;fill:color(display-p3 0.6000 0.6078 0.6157);fill-opacity:1;"/>
<path d="M39.4248 6.64016C39.9859 7.45083 40.4798 8.30736 40.9064 9.20976L38.9368 9.58896C36.6318 7.93029 34.1352 7.46149 31.4472 8.18256C31.0259 8.29563 30.5747 8.50363 30.0936 8.80656L29.1112 9.48176C29.0675 9.51163 29.0195 9.52656 28.9672 9.52656L22.0104 9.54096C22.3859 8.64389 22.8472 7.79696 23.3944 7.00016C27.82 6.63216 32.2872 6.64976 36.724 6.57136C37.1197 6.56496 38.02 6.58789 39.4248 6.64016Z" fill="#999B9D" style="fill:#999B9D;fill:color(display-p3 0.6000 0.6078 0.6157);fill-opacity:1;"/>
<path d="M38.9378 9.5909C38.8984 9.7093 38.7666 9.8293 38.5426 9.9509C38.4946 9.97757 38.444 9.98717 38.3906 9.9797C38.1848 9.95197 37.9901 9.88316 37.8066 9.7733C35.2546 8.1541 32.1874 8.0565 29.7666 9.9957C29.5608 10.2293 29.3538 10.3541 29.1458 10.3701C29.516 9.93916 29.9362 9.57916 30.4066 9.2901C30.4568 9.26023 30.4626 9.22343 30.4242 9.1797L30.0946 8.8085C30.5757 8.50557 31.0269 8.29757 31.4482 8.1845C34.1362 7.46343 36.6328 7.93223 38.9378 9.5909Z" fill="#999B9D" style="fill:#999B9D;fill:color(display-p3 0.6000 0.6078 0.6157);fill-opacity:1;"/>
<path d="M18.2646 8.29215L16.4757 11.9769L15.8438 11.8457L17.6918 8.09375C17.8859 8.11295 18.0768 8.17908 18.2646 8.29215Z" fill="#999B9D" style="fill:#999B9D;fill:color(display-p3 0.6000 0.6078 0.6157);fill-opacity:1;"/>
<path d="M37.8108 9.77309L29.7708 9.99549C32.1916 8.05629 35.2588 8.15389 37.8108 9.77309Z" fill="#999B9D" style="fill:#999B9D;fill:color(display-p3 0.6000 0.6078 0.6157);fill-opacity:1;"/>
<path d="M30.0944 8.8099L30.424 9.1811C30.4624 9.22483 30.4566 9.26163 30.4065 9.29149C29.9361 9.58056 29.5158 9.94056 29.1457 10.3715C28.6902 10.7747 28.3393 11.2376 28.0929 11.7603C28.095 11.7742 28.0966 11.788 28.0977 11.8019L26.9088 13.6931L27.1121 13.1587C27.1313 13.1086 27.1222 13.0632 27.0848 13.0227C26.9462 12.8744 26.7728 12.7496 26.5648 12.6483L27.7488 10.8643C27.7776 10.8227 27.7665 10.8014 27.7153 10.8003L21.5312 10.6899L22.0112 9.5443L28.9681 9.5299C29.0203 9.5299 29.0683 9.51496 29.1121 9.4851L30.0944 8.8099Z" fill="#999B9D" style="fill:#999B9D;fill:color(display-p3 0.6000 0.6078 0.6157);fill-opacity:1;"/>
<path d="M40.9081 9.21094C41.7785 10.9965 42.3812 12.8744 42.7161 14.8445C42.5156 14.1864 42.1103 13.8152 41.5001 13.7309L41.1866 13.2493L40.0041 11.6509C39.9711 11.6061 39.9268 11.5837 39.8713 11.5837L34.5882 11.5853L33.9321 11.1917L32.9913 10.7165C32.8633 10.628 32.7119 10.5619 32.5369 10.5181L31.929 10.3165C31.8756 10.2984 31.8276 10.3075 31.7849 10.3437C30.9231 11.0712 29.9716 11.6691 28.9305 12.1373L28.2265 11.7837C28.1903 11.788 28.146 11.7795 28.0938 11.7581C28.3402 11.2355 28.6911 10.7725 29.1465 10.3693C29.3545 10.3533 29.5615 10.2285 29.7673 9.99494L37.8074 9.77254C37.9908 9.8824 38.1855 9.9512 38.3913 9.97894C38.4447 9.9864 38.4954 9.9768 38.5434 9.95014C38.7674 9.82854 38.8991 9.70854 38.9385 9.59014L40.9081 9.21094Z" fill="#999B9D" style="fill:#999B9D;fill:color(display-p3 0.6000 0.6078 0.6157);fill-opacity:1;"/>
<path d="M134.275 13.2584C134.269 13.0888 134.232 13.0824 134.165 13.2392L128.546 26.2792C128.525 26.3263 128.492 26.3664 128.449 26.3949C128.406 26.4234 128.356 26.4389 128.305 26.4398C128.254 26.4406 128.203 26.4267 128.16 26.3996C128.116 26.3726 128.081 26.3336 128.059 26.2872L121.974 13.3432C121.924 13.2387 121.898 13.2446 121.896 13.3608C121.764 18.7998 121.695 22.4019 121.69 24.1672C121.685 25.6488 122.354 26.1304 123.763 26.2136C123.839 26.2179 123.877 26.2584 123.877 26.3352V26.4184C123.877 26.4336 123.874 26.4486 123.868 26.4626C123.862 26.4766 123.853 26.4893 123.842 26.4999C123.832 26.5105 123.819 26.5188 123.804 26.5243C123.79 26.5298 123.775 26.5324 123.76 26.532C122.846 26.5032 121.94 26.4814 121.043 26.4664C120.75 26.4616 120.509 26.5608 120.229 26.5528C119.037 26.5208 117.853 26.428 116.669 26.484C115.76 26.5278 115.178 26.5534 114.922 26.5608C114.845 26.563 114.803 26.5256 114.797 26.4488C114.796 26.4318 114.795 26.4158 114.794 26.4008C114.792 26.3805 114.794 26.36 114.801 26.3407C114.807 26.3214 114.818 26.3038 114.832 26.2888C114.845 26.2739 114.862 26.262 114.88 26.2541C114.899 26.2461 114.919 26.2421 114.939 26.2424C115.429 26.2488 115.855 26.1934 116.218 26.076C116.917 25.8488 116.666 25.0824 116.4 24.5128C115.489 22.5576 114.74 20.9576 114.152 19.7128C114.141 19.6904 114.125 19.6714 114.104 19.6581C114.083 19.6448 114.058 19.6377 114.034 19.6376H108.195C108.174 19.6377 108.154 19.6438 108.137 19.6552C108.119 19.6666 108.106 19.6827 108.098 19.7016C107.533 21.0243 106.965 22.356 106.394 23.6968C106.353 23.7928 106.295 24.0227 106.219 24.3864C105.893 25.9672 107.526 26.2792 108.651 26.2376C108.716 26.2355 108.755 26.2723 108.768 26.348C108.769 26.3523 108.77 26.3715 108.771 26.4056C108.774 26.5048 108.726 26.5539 108.626 26.5528C107.258 26.5368 106 26.4104 104.472 26.4952C103.918 26.5272 103.331 26.5416 102.71 26.5384C98.7691 26.5182 95.104 26.5256 91.7152 26.5608C91.3728 26.5651 91.1131 26.4984 90.936 26.3608C90.3931 25.9406 89.9013 25.4675 89.4608 24.9416C87.8651 23.0312 86.3781 20.9848 85 18.8024C84.9838 18.7774 84.9607 18.7577 84.9336 18.746C84.9065 18.7343 84.8767 18.7311 84.848 18.7368C84.0747 18.8947 83.2816 18.9128 82.4688 18.7912C82.4112 18.7827 82.3824 18.8078 82.3824 18.8664C82.3803 21.8766 82.3824 23.7763 82.3888 24.5656C82.3936 25.3464 82.4528 26.044 83.36 26.1624C83.8944 26.2328 84.2688 26.259 84.4832 26.2408C84.5664 26.2344 84.608 26.2723 84.608 26.3544V26.3992C84.608 26.4888 84.5632 26.5336 84.4736 26.5336H78.6064C78.5317 26.5336 78.4955 26.4963 78.4976 26.4216C78.4987 26.3918 78.4987 26.371 78.4976 26.3592C78.4957 26.3445 78.4972 26.3296 78.5021 26.3155C78.5069 26.3014 78.5149 26.2884 78.5255 26.2775C78.5362 26.2665 78.5492 26.2578 78.5637 26.2521C78.5782 26.2463 78.5939 26.2436 78.6096 26.244C79.5472 26.2584 80.728 26.252 80.736 24.9576C80.7595 21.3758 80.76 17.1822 80.7376 12.3768C80.7328 11.3048 79.984 11.1832 79.088 11.1336C79.0775 11.133 79.067 11.1344 79.057 11.1378C79.0471 11.1413 79.0379 11.1466 79.03 11.1536C79.0221 11.1606 79.0157 11.1691 79.0111 11.1785C79.0065 11.188 79.0038 11.1983 79.0032 11.2088L78.8224 14.788C78.8192 14.8478 78.7877 14.875 78.728 14.8696L78.5904 14.8568C78.5477 14.8526 78.5269 14.8291 78.528 14.7864C78.5429 13.9235 78.3744 13.1454 78.0224 12.452C77.3504 11.1288 75.3744 11.1832 73.9424 11.3352C73.2624 11.4056 72.8992 11.7688 72.8976 12.4456C72.8837 16.2227 72.8832 20.3427 72.896 24.8056C72.8976 25.668 73.2112 26.0664 74.0656 26.1752C74.4421 26.2232 74.8421 26.2456 75.2656 26.2424C75.3691 26.2414 75.4198 26.292 75.4176 26.3944C75.4176 26.4051 75.4171 26.4243 75.416 26.452C75.4152 26.474 75.4057 26.4947 75.3896 26.5099C75.3735 26.5252 75.352 26.5337 75.3296 26.5336H68.7824C68.767 26.5336 68.7517 26.5299 68.738 26.5229C68.7242 26.5158 68.7122 26.5056 68.7031 26.493C68.6939 26.4804 68.6878 26.4658 68.6852 26.4504C68.6825 26.4349 68.6835 26.4191 68.688 26.404C68.6934 26.3859 68.6971 26.3678 68.6992 26.3496C68.711 26.275 68.7547 26.2376 68.8304 26.2376C69.928 26.2424 71.1776 26.2648 71.1904 24.9656C71.2096 23.0136 71.2155 18.9171 71.208 12.676C71.208 12.0552 71.1152 11.4504 70.376 11.3592C68.6304 11.1432 66.7472 11.1 65.9056 12.764C65.5942 13.3784 65.3872 14.0392 65.2848 14.7464C65.2801 14.7812 65.2623 14.813 65.2351 14.8355C65.2079 14.858 65.1731 14.8696 65.1376 14.868L65.0656 14.8632C65.0037 14.86 64.9755 14.828 64.9808 14.7672L65.3056 11.1832C65.3065 11.1728 65.3049 11.1624 65.3009 11.1528C65.2969 11.1432 65.2906 11.1347 65.2826 11.1281C65.2745 11.1215 65.265 11.1169 65.2548 11.1148C65.2446 11.1127 65.234 11.1131 65.224 11.116C63.9696 11.4712 62.9936 12.42 62.2672 13.4072C61.4384 14.5358 60.3131 16.0718 58.8912 18.0152C58.8624 18.0547 58.8613 18.0947 58.888 18.1352C60.8805 21.1571 62.3291 23.3368 63.2336 24.6744C63.9205 25.691 64.8496 26.1987 66.0208 26.1976C66.136 26.1976 66.1888 26.2552 66.1792 26.3704C66.1781 26.3843 66.1776 26.3992 66.1776 26.4152C66.1787 26.4995 66.1371 26.5395 66.0528 26.5352C64.36 26.4542 62.5461 26.4552 60.6112 26.5384C60.5195 26.5416 60.4731 26.4979 60.472 26.4072C60.472 26.3923 60.4699 26.3736 60.4656 26.3512C60.4624 26.3349 60.4628 26.318 60.4668 26.3018C60.4707 26.2856 60.4782 26.2705 60.4887 26.2574C60.4992 26.2443 60.5125 26.2336 60.5275 26.2261C60.5426 26.2185 60.5591 26.2143 60.576 26.2136C60.9072 26.1992 61.496 26.204 61.7696 25.94C61.8101 25.9016 61.8272 25.8547 61.8208 25.7992C61.7995 25.6275 61.7653 25.5059 61.7184 25.4344C59.7984 22.5299 58.4976 20.5598 57.816 19.524C57.8098 19.5147 57.8015 19.507 57.7916 19.5016C57.7818 19.4963 57.7708 19.4934 57.7596 19.4932C57.7484 19.4931 57.7374 19.4957 57.7274 19.5007C57.7174 19.5058 57.7089 19.5133 57.7024 19.5224C56.0075 21.9064 54.8912 23.4835 54.3536 24.2536C54.2427 24.4126 54.1445 24.619 54.0592 24.8728C53.664 26.0488 54.6128 26.1384 55.4656 26.2296C55.4791 26.231 55.492 26.2356 55.5034 26.2429C55.5148 26.2503 55.5243 26.2602 55.5311 26.2718C55.538 26.2835 55.542 26.2966 55.5428 26.3101C55.5437 26.3237 55.5413 26.3372 55.536 26.3496L55.4976 26.4392C55.4845 26.4702 55.4622 26.4963 55.4339 26.514C55.4055 26.5318 55.3725 26.5403 55.3392 26.5384C53.6283 26.4563 52.0539 26.4552 50.616 26.5352C50.5836 26.537 50.5518 26.5261 50.5275 26.5048C50.5032 26.4835 50.4885 26.4536 50.4864 26.4216L50.48 26.3544C50.4725 26.2627 50.5147 26.2136 50.6064 26.2072C52.1616 26.092 53.2848 24.9032 54.1888 23.6472C55.6224 21.6536 56.7227 20.1491 57.4896 19.1336C57.5227 19.091 57.5243 19.0472 57.4944 19.0024C57.0347 18.3123 55.7019 16.291 53.496 12.9384C53.1824 12.4606 52.8304 12.0515 52.44 11.7112C51.8896 11.2328 51.3504 11.1464 50.6512 11.0536C50.6374 11.0518 50.6243 11.0468 50.6127 11.039C50.6012 11.0313 50.5917 11.0209 50.5848 11.0088C50.578 10.9967 50.5741 10.9832 50.5734 10.9693C50.5727 10.9554 50.5752 10.9415 50.5808 10.9288L50.6016 10.8808C50.6389 10.7955 50.704 10.755 50.7968 10.7592C51.728 10.796 52.5328 10.8664 53.3984 10.8312C54.1013 10.8035 54.9312 10.78 55.888 10.7608C55.9883 10.7587 56.0384 10.8083 56.0384 10.9096V10.964C56.0384 10.9933 56.0269 11.0214 56.0065 11.0421C55.9861 11.0628 55.9585 11.0744 55.9296 11.0744C55.4128 11.0744 54.2624 11.1112 54.7808 11.8984C55.7557 13.3811 57.0203 15.2904 58.5744 17.6264C58.5792 17.6334 58.5855 17.6392 58.593 17.6433C58.6004 17.6473 58.6087 17.6495 58.6172 17.6497C58.6257 17.6498 58.6341 17.6479 58.6416 17.6442C58.6492 17.6404 58.6558 17.6349 58.6608 17.628C60.3707 15.2078 61.4149 13.7235 61.7936 13.1752C61.9632 12.9299 62.0965 12.6238 62.1936 12.2568C62.4464 11.2904 61.6176 11.1048 60.8544 11.076C60.8405 11.0754 60.8269 11.0721 60.8144 11.0663C60.8018 11.0605 60.7905 11.0523 60.7811 11.0422C60.7718 11.0321 60.7645 11.0202 60.7598 11.0074C60.7551 10.9945 60.753 10.9809 60.7536 10.9672L60.76 10.852C60.7606 10.8384 60.764 10.8249 60.7698 10.8126C60.7757 10.8002 60.784 10.789 60.7943 10.7798C60.8045 10.7706 60.8165 10.7635 60.8296 10.7588C60.8427 10.7542 60.8565 10.7522 60.8704 10.7528C62.1792 10.8216 63.7808 10.9 65.256 10.7656C65.3147 10.7614 65.3413 10.7299 65.336 10.6712L65.3072 10.3112C65.3049 10.2782 65.3125 10.2452 65.329 10.2166C65.3456 10.1881 65.3703 10.1653 65.4 10.1512L65.4448 10.1304C65.4928 10.108 65.528 10.1203 65.5504 10.1672L65.6912 10.468C65.7147 10.5171 65.7493 10.5544 65.7952 10.58C66.0299 10.7144 66.3099 10.787 66.6352 10.7976C70.3653 10.9139 74.0171 10.9043 77.5904 10.7688C78.1008 10.7496 78.624 10.6696 78.816 10.14C78.8211 10.1255 78.8292 10.1122 78.8396 10.1009C78.8501 10.0896 78.8628 10.0806 78.8769 10.0744C78.891 10.0683 78.9063 10.0651 78.9217 10.0651C78.9371 10.0651 78.9523 10.0683 78.9664 10.0744L79.0192 10.0968C79.064 10.116 79.0843 10.1502 79.08 10.1992L79.0352 10.6952C79.0288 10.7646 79.0603 10.8008 79.1296 10.804C81.1264 10.8872 82.3717 10.9016 82.8656 10.8472C83.5813 10.7683 84.3957 10.7299 85.3088 10.732C87.4976 10.7352 89.2928 11.8808 89.2368 14.2424C89.1968 15.9704 87.9712 17.4472 86.44 18.1848C86.4278 18.1905 86.4171 18.1987 86.4084 18.2091C86.3998 18.2194 86.3935 18.2315 86.39 18.2446C86.3865 18.2577 86.3859 18.2714 86.3882 18.2848C86.3904 18.2983 86.3956 18.3111 86.4032 18.3224C87.3771 19.7304 88.3643 21.0712 89.3648 22.3448C90.4352 23.7064 91.7392 25.22 93.3456 25.964C93.672 26.1155 93.968 26.1619 94.2336 26.1032C94.8171 25.9763 95.1099 25.5704 95.112 24.8856C95.1216 21.1886 95.1264 17.1486 95.1264 12.7656C95.1264 12.3912 95.0832 11.98 94.8912 11.6104C94.616 11.0824 93.4864 11.0776 93.0032 11.076C92.9296 11.075 92.8928 11.0376 92.8928 10.964V10.8888C92.8928 10.8549 92.9063 10.8223 92.9303 10.7983C92.9543 10.7743 92.9869 10.7608 93.0208 10.7608H103.106C103.254 10.7608 103.328 10.835 103.328 10.9832V14.116C103.328 14.136 103.32 14.1551 103.306 14.1692C103.292 14.1833 103.273 14.1912 103.253 14.1912H103.186C103.149 14.1912 103.115 14.1771 103.089 14.152C103.063 14.1268 103.048 14.0926 103.048 14.0568C103.032 12.9256 102.474 11.908 101.392 11.4792C101.13 11.3747 100.693 11.3187 100.082 11.3112C99.176 11.3006 98.4501 11.3144 97.904 11.3528C96.92 11.4232 96.7728 12.0808 96.7648 12.9704C96.7509 14.7496 96.7515 16.4131 96.7664 17.9608C96.7664 18.0163 96.7942 18.0446 96.8496 18.0456C97.2912 18.0574 98.2587 18.0616 99.752 18.0584C101.029 18.0552 101.992 17.8376 102.062 16.3384C102.067 16.2606 102.108 16.2216 102.186 16.2216H102.262C102.276 16.2216 102.29 16.2243 102.302 16.2295C102.315 16.2348 102.326 16.2424 102.336 16.2521C102.346 16.2617 102.353 16.2732 102.358 16.2858C102.364 16.2984 102.366 16.312 102.366 16.3256V20.5704C102.366 20.6632 102.321 20.7054 102.229 20.6968L102.186 20.6936C102.156 20.6912 102.129 20.6776 102.11 20.6556C102.09 20.6336 102.079 20.6049 102.08 20.5752C102.099 19.0488 101.203 18.5992 99.7936 18.5832C99.1376 18.5758 98.1403 18.5758 96.8016 18.5832C96.7904 18.5836 96.7799 18.5884 96.7721 18.5964C96.7643 18.6045 96.76 18.6152 96.76 18.6264C96.7515 20.7907 96.7536 22.8632 96.7664 24.844C96.7686 25.0542 96.8341 25.2654 96.9632 25.4776C97.224 25.908 97.8192 25.9576 98.2704 25.9672C98.8262 25.979 99.6544 25.9811 100.755 25.9736C102.549 25.9608 103.544 24.444 103.806 22.8248C103.809 22.8071 103.815 22.79 103.824 22.7747C103.833 22.7594 103.845 22.7461 103.858 22.7358C103.872 22.7254 103.887 22.7182 103.903 22.7145C103.919 22.7108 103.935 22.7108 103.95 22.7144C103.959 22.7166 103.977 22.716 104.005 22.7128C104.023 22.711 104.042 22.7142 104.059 22.7223C104.077 22.7305 104.092 22.7433 104.105 22.7597C104.117 22.7762 104.126 22.796 104.131 22.8175C104.137 22.839 104.138 22.8618 104.134 22.884C103.986 23.8931 103.914 24.9294 103.918 25.9928C103.919 26.0031 103.921 26.0132 103.926 26.022C103.932 26.0309 103.939 26.0383 103.948 26.0435C103.957 26.0486 103.967 26.0514 103.977 26.0515C103.987 26.0516 103.997 26.049 104.006 26.044C104.802 25.5864 105.238 24.8184 105.645 23.876C107.841 18.7912 109.726 14.3688 111.301 10.6088C111.313 10.6036 111.333 10.5955 111.357 10.5855C111.382 10.5755 111.41 10.5641 111.438 10.5528C111.534 10.5134 111.607 10.5427 111.656 10.6408C112.129 11.5976 114.193 15.9288 117.85 23.6344C118.262 24.5032 118.814 25.652 119.725 26.0872C119.774 26.1107 119.825 26.1128 119.877 26.0936C120.744 25.7736 121.021 24.956 121.04 24.1144C121.117 20.8195 121.196 16.836 121.277 12.164C121.278 12.1041 121.257 12.0457 121.219 11.9992C120.721 11.3987 120.074 11.0931 119.278 11.0824C119.203 11.0814 119.165 11.0424 119.165 10.9656V10.8712C119.165 10.787 119.206 10.748 119.29 10.7544C120.231 10.8163 121.181 10.8216 122.139 10.7704C122.677 10.7416 123.022 11.5496 123.224 11.972C125.599 16.963 127.473 20.9075 128.843 23.8056C128.848 23.8155 128.855 23.8238 128.864 23.8296C128.873 23.8353 128.884 23.8383 128.895 23.8381C128.906 23.838 128.916 23.8347 128.925 23.8286C128.934 23.8225 128.941 23.814 128.946 23.804C130.407 20.4451 132.236 16.275 134.432 11.2936C134.606 10.9 134.886 10.748 135.338 10.7816C135.961 10.8275 136.859 10.8163 138.032 10.748C138.138 10.7416 138.209 10.788 138.245 10.8872C138.253 10.9096 138.257 10.9342 138.254 10.9608C138.25 11.028 138.214 11.0627 138.147 11.0648C137.362 11.092 136.288 11.1352 135.96 11.9768C135.878 12.187 135.849 12.5838 135.872 13.1672C136.155 20.092 136.324 23.932 136.381 24.6872C136.435 25.412 136.51 26.0632 137.403 26.1368C137.786 26.1688 138.125 26.2136 138.494 26.2104C138.509 26.2102 138.524 26.213 138.538 26.2186C138.552 26.2242 138.564 26.2326 138.575 26.2431C138.585 26.2537 138.594 26.2663 138.599 26.2802C138.605 26.2941 138.608 26.309 138.608 26.324V26.3688C138.608 26.4862 138.549 26.5427 138.432 26.5384C136.529 26.4574 134.678 26.4568 132.878 26.5368C132.788 26.5411 132.742 26.4979 132.742 26.4072V26.3256C132.742 26.2467 132.782 26.2062 132.861 26.204C133.408 26.1912 133.815 26.1432 134.083 26.06C134.659 25.8792 134.717 25.4024 134.701 24.8104C134.673 23.7587 134.531 19.908 134.275 13.2584ZM82.4688 18.2056C84.1872 18.3992 86.672 18.4568 87.2992 16.3608C87.5798 15.4222 87.5995 14.4083 87.3584 13.3192C86.9296 11.3864 85.0048 10.8744 83.2704 11.212C82.4624 11.3688 82.3856 12.2536 82.384 12.9256C82.3819 14.6451 82.3808 16.372 82.3808 18.1064C82.3808 18.1651 82.4102 18.1982 82.4688 18.2056ZM111.014 13.0424C111.01 13.0329 111.003 13.0249 110.994 13.0194C110.985 13.0138 110.975 13.011 110.964 13.0112C110.954 13.0113 110.944 13.0145 110.935 13.0203C110.926 13.0262 110.919 13.0344 110.915 13.044L108.334 19.0312C108.331 19.0396 108.33 19.0486 108.331 19.0576C108.331 19.0666 108.335 19.0752 108.34 19.0826C108.345 19.0901 108.352 19.0962 108.36 19.1003C108.368 19.1045 108.377 19.1066 108.386 19.1064H113.779C113.788 19.1064 113.797 19.1041 113.805 19.0998C113.813 19.0955 113.82 19.0892 113.825 19.0815C113.83 19.0739 113.833 19.0651 113.833 19.0561C113.834 19.047 113.833 19.0379 113.829 19.0296L111.014 13.0424Z" fill="#999B9D" style="fill:#999B9D;fill:color(display-p3 0.6000 0.6078 0.6157);fill-opacity:1;"/>
<path d="M188.056 11.0975C187.059 11.0431 186.082 11.2239 186.064 12.4079C186.042 13.8628 186.037 17.8772 186.05 24.4511C186.051 25.1807 186.053 25.9615 186.963 26.1247C187.216 26.1695 187.612 26.1983 188.152 26.2111C188.168 26.2115 188.183 26.2151 188.198 26.2216C188.212 26.2281 188.225 26.2375 188.236 26.2491C188.247 26.2608 188.255 26.2744 188.26 26.2893C188.266 26.3042 188.268 26.3201 188.267 26.3359L188.264 26.4127C188.26 26.5023 188.212 26.5449 188.122 26.5407C186.173 26.4575 184.25 26.4575 182.352 26.5407C182.239 26.5449 182.169 26.4921 182.141 26.3823C182.135 26.3577 182.132 26.3439 182.131 26.3407C182.127 26.3248 182.127 26.3082 182.131 26.2922C182.134 26.2762 182.141 26.2612 182.151 26.2483C182.162 26.2355 182.175 26.2252 182.189 26.2182C182.204 26.2112 182.22 26.2076 182.237 26.2079C183.79 26.2287 184.373 26.0175 184.374 24.6079C184.381 17.8569 184.38 13.8473 184.371 12.5791C184.36 11.0783 183.418 11.1087 182.235 11.0655C182.171 11.0623 182.135 11.0287 182.126 10.9647C182.122 10.9359 182.127 10.9071 182.142 10.8783C182.19 10.7887 182.265 10.7465 182.366 10.7519C184.302 10.8617 186.205 10.8617 188.075 10.7519C188.133 10.7487 188.162 10.7188 188.162 10.6623V10.2511C188.162 10.2184 188.175 10.1871 188.198 10.164C188.221 10.1409 188.252 10.1279 188.285 10.1279H188.333C188.356 10.1279 188.379 10.1362 188.398 10.1514C188.416 10.1667 188.428 10.1878 188.432 10.2111C188.499 10.5695 188.78 10.7599 189.275 10.7823C192.099 10.9113 195.803 10.9119 200.387 10.7839C200.859 10.7711 201.418 10.6911 201.627 10.2095C201.656 10.1444 201.694 10.1033 201.741 10.0863C201.772 10.0745 201.803 10.0724 201.834 10.0799C201.883 10.0916 201.906 10.1225 201.902 10.1727L201.669 14.7935C201.666 14.8489 201.636 14.8756 201.581 14.8735L201.472 14.8671C201.42 14.8649 201.393 14.8383 201.392 14.7871C201.383 14.4543 201.331 14.0212 201.235 13.4879C200.829 11.2191 198.915 11.1823 197.069 11.3039C195.979 11.3759 195.722 11.7599 195.731 12.8511C195.741 14.0361 195.74 17.9833 195.73 24.6927C195.73 25.0884 195.799 25.4223 195.938 25.6943C196.226 26.2591 197.57 26.2607 198.123 26.2383C198.204 26.2351 198.245 26.2735 198.245 26.3535V26.4207C198.245 26.4975 198.206 26.5359 198.13 26.5359H191.654C191.563 26.5359 191.521 26.4895 191.528 26.3967L191.533 26.3439C191.539 26.2756 191.577 26.2415 191.646 26.2415C192.459 26.2393 193.011 26.1881 193.302 26.0879C194.011 25.8431 194.08 25.1039 194.075 24.4479C194.062 22.8372 194.053 18.8543 194.048 12.4991C194.048 11.8505 193.785 11.4703 193.258 11.3583C192.887 11.2793 192.229 11.2559 191.282 11.2879C189.155 11.3583 188.418 12.9087 188.123 14.7551C188.111 14.8308 188.067 14.8687 187.989 14.8687H187.909C187.847 14.8687 187.819 14.8377 187.824 14.7759L188.149 11.2063C188.155 11.138 188.124 11.1017 188.056 11.0975Z" fill="#999B9D" style="fill:#999B9D;fill:color(display-p3 0.6000 0.6078 0.6157);fill-opacity:1;"/>
<path d="M32.5335 10.518L30.0119 12.7852L28.9271 12.1372C29.9682 11.6689 30.9196 11.071 31.7815 10.3436C31.8241 10.3073 31.8722 10.2982 31.9255 10.3164L32.5335 10.518Z" fill="#999B9D" style="fill:#999B9D;fill:color(display-p3 0.6000 0.6078 0.6157);fill-opacity:1;"/>
<path d="M159.981 19.6928C159.713 20.3232 159.151 21.6411 158.295 23.6464C158.186 23.9003 158.113 24.2064 158.074 24.5648C157.913 26.0544 159.461 26.232 160.533 26.2528C160.631 26.2549 160.674 26.304 160.665 26.4L160.658 26.4768C160.656 26.5 160.646 26.5216 160.629 26.5373C160.612 26.553 160.59 26.5617 160.567 26.5616C160.412 26.5648 160.266 26.5627 160.129 26.5552C158.368 26.4645 157.344 26.4293 157.058 26.4496C156.288 26.5061 155.515 26.5413 154.74 26.5552C154.728 26.5555 154.717 26.5533 154.706 26.5487C154.696 26.5442 154.686 26.5374 154.678 26.5287C154.67 26.5201 154.664 26.5099 154.661 26.4987C154.657 26.4876 154.656 26.4757 154.657 26.464L154.661 26.4096C154.671 26.3019 154.73 26.248 154.839 26.248C156.426 26.2464 157.121 24.8848 157.66 23.6112C158.64 21.2976 160.479 16.9696 163.177 10.6272C163.192 10.591 163.217 10.5599 163.25 10.5378C163.282 10.5157 163.32 10.5035 163.36 10.5027C163.399 10.5018 163.438 10.5124 163.471 10.533C163.504 10.5537 163.531 10.5837 163.548 10.6192C166.975 17.8405 169.106 22.3285 169.94 24.0832C170.279 24.7957 170.689 25.3733 171.169 25.816C171.576 26.1915 172.023 26.2677 172.509 26.0448C173.058 25.7936 173.063 25.0752 173.065 24.488C173.067 16.536 173.068 12.536 173.069 12.488C173.088 11.6944 172.712 11.2581 171.941 11.1792C171.6 11.144 171.289 11.1269 171.009 11.128C170.919 11.128 170.874 11.0827 170.874 10.992V10.9232C170.874 10.8251 170.923 10.7781 171.021 10.7824C173.031 10.8741 174.194 10.9045 174.511 10.8736C175.489 10.7797 176.501 10.7328 177.548 10.7328C179.639 10.7328 181.996 11.5856 182.396 13.9056C182.991 17.36 180.666 19.6832 177.391 19.9408C176.792 19.9877 176.241 19.952 175.738 19.8336C175.706 19.8264 175.678 19.8077 175.659 19.7812C175.64 19.7547 175.631 19.7221 175.634 19.6896L175.641 19.6112C175.648 19.5269 175.695 19.4907 175.78 19.5024C176.591 19.6155 177.207 19.616 177.628 19.504C179.41 19.0272 180.4 17.8624 180.596 16.0096C180.799 14.0944 180.133 12.2 178.329 11.416C177.524 11.0656 176.684 11.0976 175.777 11.1616C174.532 11.2512 174.713 12.5536 174.709 13.4496C174.702 17.5851 174.704 21.36 174.716 24.7744C174.718 25.2203 174.859 25.5653 175.138 25.8096C175.644 26.2496 177.026 26.264 177.676 26.2416C177.692 26.2409 177.708 26.2436 177.723 26.2493C177.738 26.2551 177.751 26.2639 177.763 26.2752C177.774 26.2864 177.783 26.2999 177.789 26.3148C177.795 26.3296 177.798 26.3456 177.797 26.3616C177.797 26.3669 177.797 26.384 177.797 26.4128C177.796 26.4537 177.779 26.4924 177.75 26.5206C177.72 26.5487 177.681 26.564 177.641 26.5632C175.636 26.512 173.729 26.5067 171.917 26.5472C171.526 26.5568 171.012 26.5376 170.375 26.4896C169.156 26.3968 167.74 26.544 166.789 26.56C166.709 26.5621 166.669 26.5232 166.669 26.4432V26.3648C166.669 26.2848 166.709 26.2453 166.789 26.2464C167.359 26.2528 168.777 26.2384 168.538 25.256C168.479 25.0128 168.399 24.7749 168.298 24.5424C168.271 24.4773 167.516 22.8709 166.034 19.7232C166.022 19.6974 166.003 19.6756 165.979 19.6603C165.955 19.645 165.927 19.6368 165.898 19.6368H160.066C160.048 19.6369 160.031 19.6422 160.015 19.6522C160 19.6621 159.989 19.6762 159.981 19.6928ZM162.895 13.0448C162.89 13.035 162.883 13.0266 162.874 13.0209C162.865 13.0151 162.854 13.0121 162.843 13.0123C162.832 13.0124 162.822 13.0158 162.813 13.0218C162.804 13.0279 162.797 13.0364 162.793 13.0464L160.215 19.0304C160.211 19.0389 160.21 19.0482 160.211 19.0575C160.211 19.0667 160.214 19.0756 160.219 19.0834C160.225 19.0912 160.231 19.0976 160.24 19.102C160.248 19.1064 160.257 19.1088 160.266 19.1088H165.657C165.666 19.1089 165.676 19.1066 165.684 19.1021C165.692 19.0976 165.699 19.091 165.704 19.083C165.71 19.075 165.713 19.0658 165.713 19.0563C165.714 19.0469 165.712 19.0374 165.708 19.0288L162.895 13.0448Z" fill="#999B9D" style="fill:#999B9D;fill:color(display-p3 0.6000 0.6078 0.6157);fill-opacity:1;"/>
<path d="M203.79 19.7428C203.253 21.0047 202.707 22.2954 202.151 23.6148C201.314 25.6068 202.618 26.2868 204.358 26.2388C204.375 26.2384 204.392 26.2414 204.408 26.2476C204.423 26.2539 204.438 26.2632 204.45 26.2752C204.462 26.2871 204.472 26.3013 204.479 26.3171C204.485 26.3328 204.489 26.3497 204.489 26.3668V26.4564C204.489 26.4818 204.48 26.5063 204.463 26.525C204.446 26.5437 204.423 26.5552 204.398 26.5572C204.293 26.5668 204.215 26.5695 204.164 26.5652C202.376 26.4319 200.55 26.433 198.684 26.5684C198.576 26.5759 198.517 26.5263 198.505 26.4196C198.502 26.3898 198.5 26.3722 198.5 26.3668C198.503 26.2858 198.536 26.2458 198.598 26.2468C200.271 26.2724 200.958 24.8836 201.513 23.5732C203.345 19.2479 205.178 14.9311 207.01 10.6228C207.026 10.587 207.051 10.5564 207.083 10.5347C207.116 10.5129 207.154 10.5009 207.193 10.5C207.232 10.4992 207.27 10.5096 207.303 10.5299C207.336 10.5503 207.363 10.5797 207.38 10.6148C210.714 17.6516 212.849 22.1423 213.785 24.0868C214.118 24.778 214.506 25.3428 214.95 25.7812C215.513 26.338 216.41 26.2388 216.71 25.4452C216.78 25.2575 216.814 24.8447 216.81 24.2068C216.797 21.585 216.79 17.6916 216.791 12.5268C216.791 11.0996 215.94 11.1332 214.662 11.066C214.648 11.0653 214.635 11.0615 214.623 11.0552C214.612 11.0488 214.601 11.0399 214.594 11.0291C214.586 11.0184 214.58 11.006 214.578 10.993C214.576 10.98 214.576 10.9667 214.58 10.954L214.594 10.8964C214.607 10.8515 214.634 10.8123 214.672 10.7852C214.71 10.7581 214.756 10.7448 214.802 10.7476C216.662 10.8607 218.528 10.8618 220.402 10.7508C220.446 10.7487 220.488 10.7558 220.527 10.7716C220.679 10.8335 220.724 10.9103 220.663 11.002C220.632 11.0468 220.59 11.0692 220.537 11.0692C220.223 11.0708 219.951 11.106 219.606 11.138C218.832 11.2106 218.446 11.6842 218.447 12.5588C218.448 16.658 218.451 20.7535 218.457 24.8452C218.458 25.9988 219.505 25.9828 220.426 25.9828C221.973 25.9828 222.973 25.9791 223.426 25.9716C225.273 25.9428 226.343 24.3972 226.598 22.7012C226.607 22.6372 226.644 22.6052 226.708 22.6052H226.871C226.886 22.6051 226.901 22.6084 226.914 22.6148C226.928 22.6212 226.94 22.6305 226.949 22.6421C226.959 22.6538 226.965 22.6674 226.969 22.682C226.973 22.6967 226.973 22.712 226.97 22.7268C226.766 23.7775 226.669 24.938 226.681 26.2084C226.681 26.2506 226.673 26.2925 226.657 26.3316C226.641 26.3707 226.618 26.4063 226.588 26.4362C226.558 26.4661 226.523 26.4898 226.484 26.5059C226.445 26.5221 226.403 26.5302 226.361 26.53C222.541 26.5268 218.883 26.53 215.386 26.5396C215.089 26.5407 214.743 26.5252 214.348 26.4932C213.191 26.4004 212.153 26.4948 210.652 26.5652C210.631 26.566 210.61 26.5623 210.591 26.5544C210.572 26.5465 210.555 26.5346 210.54 26.5195C210.526 26.5043 210.515 26.4862 210.509 26.4665C210.502 26.4468 210.5 26.4259 210.502 26.4052C210.504 26.3839 210.505 26.3652 210.506 26.3492C210.514 26.2767 210.554 26.2415 210.626 26.2436C211.041 26.2554 211.447 26.2095 211.844 26.106C212.694 25.8836 212.37 25.066 212.078 24.4404C211.034 22.1972 210.302 20.6303 209.881 19.7396C209.866 19.7089 209.843 19.683 209.814 19.6649C209.785 19.6468 209.752 19.6372 209.718 19.6372H203.948C203.914 19.6372 203.881 19.6472 203.853 19.666C203.825 19.6847 203.803 19.7115 203.79 19.7428ZM206.727 13.0436C206.723 13.0341 206.716 13.0261 206.707 13.0206C206.698 13.015 206.688 13.0122 206.677 13.0124C206.667 13.0125 206.656 13.0157 206.648 13.0215C206.639 13.0274 206.632 13.0356 206.628 13.0452L204.049 19.034C204.045 19.0424 204.044 19.0514 204.045 19.0604C204.046 19.0694 204.049 19.078 204.054 19.0854C204.059 19.0929 204.066 19.099 204.074 19.1031C204.082 19.1073 204.091 19.1094 204.1 19.1092H209.494C209.503 19.1092 209.512 19.107 209.52 19.1026C209.528 19.0983 209.534 19.092 209.539 19.0843C209.544 19.0767 209.547 19.0679 209.548 19.0589C209.549 19.0498 209.547 19.0407 209.543 19.0324L206.727 13.0436Z" fill="#999B9D" style="fill:#999B9D;fill:color(display-p3 0.6000 0.6078 0.6157);fill-opacity:1;"/>
<path d="M32.532 10.5182C32.707 10.562 32.8584 10.6281 32.9864 10.7166C32.4157 11.714 31.7715 12.6564 31.0536 13.5438L30.0104 12.7854L32.532 10.5182Z" fill="#999B9D" style="fill:#999B9D;fill:color(display-p3 0.6000 0.6078 0.6157);fill-opacity:1;"/>
<path d="M155.82 22.3528C155.884 22.3784 155.913 22.4253 155.907 22.4936L155.643 25.4072C155.637 25.4689 155.616 25.5283 155.582 25.5798C155.547 25.6313 155.5 25.6732 155.445 25.7016C154.255 26.3181 153.017 26.6898 151.731 26.8168C149.561 27.0296 147.302 26.7704 145.379 25.732C142.209 24.02 140.781 20.8216 141.272 17.2856C141.853 13.1016 145.699 10.7 149.667 10.548C151.641 10.4712 153.401 10.6328 155.22 11.5832C155.29 11.6194 155.338 11.7266 155.366 11.9048C155.427 12.3037 155.545 13.3634 155.721 15.084C155.723 15.0974 155.721 15.111 155.717 15.1238C155.712 15.1366 155.705 15.1483 155.696 15.1582C155.686 15.168 155.675 15.1758 155.662 15.181C155.65 15.1861 155.636 15.1885 155.622 15.188L155.552 15.1848C155.462 15.1794 155.404 15.1336 155.379 15.0472C154.715 12.7464 153.323 11.14 150.829 10.9384C147.296 10.652 144.313 12.5512 143.424 16.0472C142.427 19.964 143.848 24.028 147.526 25.8632C148.395 26.2962 149.419 26.4946 150.597 26.4584C153.296 26.3768 154.749 24.8696 155.601 22.4232C155.633 22.3314 155.706 22.308 155.82 22.3528Z" fill="#999B9D" style="fill:#999B9D;fill:color(display-p3 0.6000 0.6078 0.6157);fill-opacity:1;"/>
<path d="M26.5632 12.6485L25.9136 13.8117L20.4672 13.5125C20.4117 13.5093 20.3941 13.4816 20.4144 13.4293L20.52 13.1637L21.5296 10.6901L27.7136 10.8005C27.7648 10.8016 27.776 10.8229 27.7472 10.8645L26.5632 12.6485Z" fill="#999B9D" style="fill:#999B9D;fill:color(display-p3 0.6000 0.6078 0.6157);fill-opacity:1;"/>
<path d="M33.9257 11.1913C33.3625 12.3721 32.8659 13.594 32.4361 14.8569L31.0521 13.5433C31.77 12.6559 32.4142 11.7135 32.9849 10.7161L33.9257 11.1913Z" fill="#999B9D" style="fill:#999B9D;fill:color(display-p3 0.6000 0.6078 0.6157);fill-opacity:1;"/>
<path d="M33.9271 11.1927L34.5831 11.5863L34.8679 11.7991L32.9447 15.4839L32.4375 14.8583C32.8674 13.5954 33.3639 12.3735 33.9271 11.1927Z" fill="#999B9D" style="fill:#999B9D;fill:color(display-p3 0.6000 0.6078 0.6157);fill-opacity:1;"/>
<path d="M41.1922 13.2489L36.6594 13.4089C36.1303 12.8073 35.5367 12.2703 34.8786 11.7977L34.5938 11.5849L39.8769 11.5833C39.9324 11.5833 39.9767 11.6057 40.0097 11.6505L41.1922 13.2489Z" fill="#999B9D" style="fill:#999B9D;fill:color(display-p3 0.6000 0.6078 0.6157);fill-opacity:1;"/>
<path d="M28.2265 11.7837L28.0985 11.7994C28.0975 11.7855 28.0959 11.772 28.0938 11.7581C28.146 11.7795 28.1903 11.788 28.2265 11.7837Z" fill="#999B9D" style="fill:#999B9D;fill:color(display-p3 0.6000 0.6078 0.6157);fill-opacity:1;"/>
<path d="M16.486 11.9776L16.0412 13.0496C16.0199 13.0986 16.0359 13.1232 16.0892 13.1232L20.5276 13.1632L20.422 13.4288C20.4017 13.481 20.4193 13.5088 20.4748 13.512L25.9212 13.8112L25.382 14.9136C25.3575 14.9626 25.318 14.9872 25.2636 14.9872H19.8828C19.8667 14.9872 19.8511 14.9915 19.838 14.9995C19.8249 15.0074 19.8149 15.0187 19.8092 15.032L18.9852 16.9456C18.9692 16.9818 18.9415 17.0016 18.902 17.0048L14.4492 17.3568C14.4236 17.3589 14.4119 17.3472 14.414 17.3216C14.4151 17.3034 14.4113 17.289 14.4028 17.2784C14.3847 17.2538 14.3681 17.2549 14.3532 17.2816L14.262 17.4432C14.0529 17.3205 13.8823 17.1653 13.75 16.9776L15.854 11.8464L16.486 11.9776Z" fill="#999B9D" style="fill:#999B9D;fill:color(display-p3 0.6000 0.6078 0.6157);fill-opacity:1;"/>
<path d="M34.8711 11.7995C35.5293 12.272 36.1229 12.8091 36.6519 13.4107L37.6743 14.8523L38.1031 15.6939C36.5367 15.8187 35.1847 16.1707 33.9095 17.0971L32.9479 15.4843L34.8711 11.7995Z" fill="#999B9D" style="fill:#999B9D;fill:color(display-p3 0.6000 0.6078 0.6157);fill-opacity:1;"/>
<path d="M12.188 15.4729L10.8952 17.1241C10.8621 17.1679 10.8269 17.1695 10.7896 17.1289L9.26957 15.4729L7.94477 13.8985C7.90957 13.8569 7.90744 13.8132 7.93837 13.7673L8.99437 12.2057L12.188 15.4729Z" fill="#999B9D" style="fill:#999B9D;fill:color(display-p3 0.6000 0.6078 0.6157);fill-opacity:1;"/>
<path d="M26.9132 13.6932C26.1687 15.1236 25.5084 16.5956 24.9324 18.1092C24.158 20.1455 23.381 22.1796 22.6012 24.2116C22.5362 24.2084 22.4823 24.1919 22.4396 24.162C19.5479 22.1322 16.8215 19.8927 14.2604 17.4436L14.3516 17.282C14.3665 17.2554 14.3831 17.2543 14.4012 17.2788C14.4098 17.2895 14.4135 17.3039 14.4124 17.322C14.4103 17.3476 14.422 17.3594 14.4476 17.3572L18.9004 17.0052C18.9399 17.002 18.9676 16.9823 18.9836 16.946L19.8076 15.0324C19.8133 15.0192 19.8234 15.0079 19.8364 14.9999C19.8495 14.992 19.8651 14.9877 19.8812 14.9876H25.262C25.3164 14.9876 25.3559 14.9631 25.3804 14.914L25.9196 13.8116L26.5692 12.6484C26.7772 12.7498 26.9505 12.8746 27.0892 13.0228C27.1265 13.0634 27.1356 13.1087 27.1164 13.1588L26.9132 13.6932Z" fill="#999B9D" style="fill:#999B9D;fill:color(display-p3 0.6000 0.6078 0.6157);fill-opacity:1;"/>
<path d="M41.189 13.2474L41.5026 13.729L41.9794 14.6426L37.6786 14.849L36.6562 13.4074L41.189 13.2474Z" fill="#999B9D" style="fill:#999B9D;fill:color(display-p3 0.6000 0.6078 0.6157);fill-opacity:1;"/>
<path d="M42.7161 14.8445C42.6863 14.9651 42.7 15.0182 42.7576 15.0022L42.8792 15.8118C42.8611 15.911 42.8696 15.9654 42.9048 15.975L43.0232 17.2934C42.9101 17.2422 42.8381 17.0923 42.8072 16.8438L41.9768 14.6454L41.5001 13.7309C42.1103 13.8152 42.5156 14.1864 42.7161 14.8445Z" fill="#999B9D" style="fill:#999B9D;fill:color(display-p3 0.6000 0.6078 0.6157);fill-opacity:1;"/>
<path d="M41.9779 14.6432L42.8083 16.8416L38.5827 16.9968L38.1059 15.6912L37.6771 14.8496L41.9779 14.6432Z" fill="#999B9D" style="fill:#999B9D;fill:color(display-p3 0.6000 0.6078 0.6157);fill-opacity:1;"/>
<path d="M8.78315 16.402L9.34635 17.1988C9.37728 17.2425 9.37782 17.2868 9.34795 17.3316L8.97675 17.8948L6.96875 15.2596L7.42635 14.8132C7.47648 14.7641 7.52289 14.7673 7.56555 14.8228L8.78315 16.402Z" fill="#999B9D" style="fill:#999B9D;fill:color(display-p3 0.6000 0.6078 0.6157);fill-opacity:1;"/>
<path d="M42.7548 15.0032C42.6972 15.0192 42.6833 14.9669 42.7132 14.8464C42.7452 14.8506 42.7591 14.9029 42.7548 15.0032Z" fill="#999B9D" style="fill:#999B9D;fill:color(display-p3 0.6000 0.6078 0.6157);fill-opacity:1;"/>
<path d="M9.26445 15.4714L10.7844 17.1274C10.8218 17.1679 10.857 17.1663 10.89 17.1226L12.1828 15.4714L13.3813 16.6458L12.2404 18.5786C12.2127 18.6266 12.2132 18.674 12.242 18.721C12.2794 18.7828 12.3258 18.8372 12.3813 18.8842L11.8148 20.2202L11.1156 19.4282C11.0794 19.3876 11.0426 19.3876 11.0052 19.4282L10.5813 19.8906L8.97485 17.8954L9.34605 17.3322C9.37592 17.2874 9.37538 17.2431 9.34445 17.1994L8.78125 16.4026L9.26445 15.4714Z" fill="#999B9D" style="fill:#999B9D;fill:color(display-p3 0.6000 0.6078 0.6157);fill-opacity:1;"/>
<path d="M38.0998 15.6927L38.5767 16.9983L38.8631 18.7727L38.855 19.6815L34.5479 20.0143C34.5436 18.9882 34.3297 18.0154 33.9062 17.0959C35.1815 16.1695 36.5334 15.8175 38.0998 15.6927Z" fill="#999B9D" style="fill:#999B9D;fill:color(display-p3 0.6000 0.6078 0.6157);fill-opacity:1;"/>
<path d="M42.9098 15.9731C42.8746 15.9635 42.8661 15.9091 42.8842 15.8099C42.9024 15.86 42.9109 15.9144 42.9098 15.9731Z" fill="#999B9D" style="fill:#999B9D;fill:color(display-p3 0.6000 0.6078 0.6157);fill-opacity:1;"/>
<path d="M13.7504 16.9754C13.8826 17.1632 14.0533 17.3184 14.2624 17.441C16.8234 19.8901 19.5498 22.1296 22.4416 24.1594C22.4842 24.1893 22.5381 24.2058 22.6032 24.209L23.7632 25.025L22.2592 27.689C20.4544 26.4154 18.8336 24.9466 17.1312 23.545C16.2362 22.8069 14.656 21.2533 12.3904 18.8842C12.3349 18.8373 12.2885 18.7829 12.2512 18.721C12.2224 18.6741 12.2218 18.6266 12.2496 18.5786L13.3904 16.6458L13.7504 16.9754Z" fill="#999B9D" style="fill:#999B9D;fill:color(display-p3 0.6000 0.6078 0.6157);fill-opacity:1;"/>
<path d="M42.8083 16.8416C42.8392 17.0902 42.9119 17.2395 43.0249 17.2907L43.1033 18.8507L38.8697 18.7707L38.5827 16.9968L42.8083 16.8416Z" fill="#999B9D" style="fill:#999B9D;fill:color(display-p3 0.6000 0.6078 0.6157);fill-opacity:1;"/>
<path d="M43.1108 18.8534L42.9924 20.8406L38.7604 20.8118L38.8692 19.6822L38.8772 18.7734L43.1108 18.8534Z" fill="#999B9D" style="fill:#999B9D;fill:color(display-p3 0.6000 0.6078 0.6157);fill-opacity:1;"/>
<path d="M22.2581 27.6902C24.5461 29.3638 27.3013 30.999 30.1253 31.4998C31.5664 31.7313 32.9909 31.6459 34.3989 31.2438C34.3744 32.2913 33.928 33.1473 33.0597 33.8118C32.9285 33.9121 32.8928 34.0646 32.9525 34.2694C31.7035 34.5105 30.4448 34.519 29.1765 34.295C29.4965 33.8422 29.9877 33.647 30.2981 33.319C30.6331 32.9638 30.9738 32.5313 31.3205 32.0214C31.3525 31.9734 31.3397 31.9478 31.2821 31.9446C27.2261 31.7222 23.6373 29.239 20.4885 26.631C20.4341 26.5862 20.3925 26.5963 20.3637 26.6614L19.6789 28.2502C19.6587 28.2982 19.6288 28.3057 19.5893 28.2726L19.1013 27.8726C16.4848 25.5014 14.0587 22.951 11.8229 20.2214L12.3893 18.8854C14.6549 21.2545 16.2352 22.8081 17.1301 23.5462C18.8325 24.9478 20.4533 26.4166 22.2581 27.6902Z" fill="#999B9D" style="fill:#999B9D;fill:color(display-p3 0.6000 0.6078 0.6157);fill-opacity:1;"/>
<path d="M11.8169 20.2208C14.0527 22.9504 16.4788 25.5008 19.0953 27.872C18.946 28.1024 18.9897 28.3312 19.2265 28.5584C19.6073 28.9232 19.9561 29.3136 20.2729 29.7296L19.9305 29.4736C18.4436 28.2555 17.0185 26.9648 15.6553 25.6016C15.6361 25.5654 15.5951 25.5195 15.5321 25.464L11.9609 21.5248L10.5833 19.8912L11.0073 19.4288C11.0447 19.3883 11.0815 19.3883 11.1177 19.4288L11.8169 20.2208Z" fill="#999B9D" style="fill:#999B9D;fill:color(display-p3 0.6000 0.6078 0.6157);fill-opacity:1;"/>
<path d="M38.8624 19.6823L38.7536 20.8119L38.176 22.7559L37.6832 23.7223C36.4438 23.4802 35.223 23.1479 34.0208 22.7255C34.3803 21.853 34.5584 20.9495 34.5552 20.0151L38.8624 19.6823Z" fill="#999B9D" style="fill:#999B9D;fill:color(display-p3 0.6000 0.6078 0.6157);fill-opacity:1;"/>
<path d="M42.9867 20.8387L42.7243 22.7203C42.6101 22.763 42.5104 22.8291 42.4251 22.9187L38.1771 22.7539L38.7547 20.8099L42.9867 20.8387Z" fill="#999B9D" style="fill:#999B9D;fill:color(display-p3 0.6000 0.6078 0.6157);fill-opacity:1;"/>
<path d="M15.5424 25.4652C15.3589 25.8738 15.1867 26.2903 15.0256 26.7148C14.9403 26.9378 14.9206 27.1628 14.9664 27.39C14.8704 27.3804 14.8155 27.3495 14.8016 27.2972L13.9152 26.326L13.4688 25.7708C13.4358 25.7292 13.3931 25.702 13.3408 25.6892C12.4192 25.4631 11.4758 25.3276 10.5104 25.2828L11.9712 21.526L15.5424 25.4652Z" fill="#999B9D" style="fill:#999B9D;fill:color(display-p3 0.6000 0.6078 0.6157);fill-opacity:1;"/>
<path d="M42.7212 22.724C42.0876 26.2616 40.3645 29.7736 37.5405 32.0664C38.5613 29.9464 39.6925 27.8744 40.5469 25.6888L36.2812 25.6088L37.3196 24.3272L41.7133 24.18C41.7666 24.1778 41.8093 24.1549 41.8413 24.1112C42.0994 23.7517 42.293 23.3554 42.4221 22.9224C42.5074 22.8328 42.6071 22.7666 42.7212 22.724Z" fill="#999B9D" style="fill:#999B9D;fill:color(display-p3 0.6000 0.6078 0.6157);fill-opacity:1;"/>
<path d="M37.6749 23.7234L37.3133 24.3266L36.2749 25.6082C35.7533 26.1404 35.164 26.6252 34.5069 27.0626C34.4749 25.8834 34.1533 24.8578 33.3229 24.037L34.0125 22.7266C35.2146 23.149 36.4354 23.4812 37.6749 23.7234Z" fill="#999B9D" style="fill:#999B9D;fill:color(display-p3 0.6000 0.6078 0.6157);fill-opacity:1;"/>
<path d="M38.1773 22.7552L42.4253 22.92C42.2963 23.3531 42.1027 23.7493 41.8445 24.1088C41.8125 24.1525 41.7699 24.1755 41.7165 24.1776L37.3229 24.3248L37.6845 23.7216L38.1773 22.7552Z" fill="#999B9D" style="fill:#999B9D;fill:color(display-p3 0.6000 0.6078 0.6157);fill-opacity:1;"/>
<path d="M34.5155 27.0595L34.2179 27.2531C33.8382 26.3901 33.3315 25.6003 32.6979 24.8835L33.3315 24.0339C34.1619 24.8547 34.4835 25.8803 34.5155 27.0595Z" fill="#999B9D" style="fill:#999B9D;fill:color(display-p3 0.6000 0.6078 0.6157);fill-opacity:1;"/>
<path d="M32.7011 24.8854C33.3347 25.6022 33.8414 26.3921 34.2211 27.255L34.1491 27.3206L33.0051 27.8966C32.6307 27.1947 32.195 26.5366 31.6979 25.9222L32.7011 24.8854Z" fill="#999B9D" style="fill:#999B9D;fill:color(display-p3 0.6000 0.6078 0.6157);fill-opacity:1;"/>
<path d="M29.0132 27.7492C30.1684 28.1791 31.3423 28.4831 32.5348 28.6612C31.5343 29.4314 30.7284 30.3775 30.1172 31.4996C27.2932 30.9988 24.538 29.3636 22.25 27.69L23.754 25.026C25.434 26.098 27.1871 27.0058 29.0132 27.7492Z" fill="#999B9D" style="fill:#999B9D;fill:color(display-p3 0.6000 0.6078 0.6157);fill-opacity:1;"/>
<path d="M13.9153 26.3271L10.0625 26.4439L10.5105 25.2839C11.4758 25.3287 12.4193 25.4641 13.3409 25.6903C13.3932 25.7031 13.4358 25.7303 13.4689 25.7719L13.9153 26.3271Z" fill="#999B9D" style="fill:#999B9D;fill:color(display-p3 0.6000 0.6078 0.6157);fill-opacity:1;"/>
<path d="M15.5376 25.4635C15.6005 25.519 15.6416 25.5649 15.6608 25.6011C16.08 26.5675 16.2944 27.5905 16.304 28.6699L15.4992 27.9275L14.9616 27.3883C14.9157 27.1611 14.9354 26.9361 15.0208 26.7131C15.1818 26.2886 15.3541 25.8721 15.5376 25.4635Z" fill="#999B9D" style="fill:#999B9D;fill:color(display-p3 0.6000 0.6078 0.6157);fill-opacity:1;"/>
<path d="M15.6553 25.6016C17.0185 26.9648 18.4436 28.2555 19.9305 29.4736L19.3954 31.1856C19.3917 31.1973 19.3852 31.208 19.3765 31.2167C19.3678 31.2255 19.3572 31.232 19.3456 31.2358C19.334 31.2396 19.3217 31.2404 19.3098 31.2384C19.2978 31.2363 19.2866 31.2314 19.2771 31.224C18.2253 30.4325 17.2328 29.5813 16.2995 28.6704C16.2899 27.5909 16.0745 26.568 15.6553 25.6016Z" fill="#999B9D" style="fill:#999B9D;fill:color(display-p3 0.6000 0.6078 0.6157);fill-opacity:1;"/>
<path d="M36.2834 25.6068L40.549 25.6868C39.9176 26.3876 39.2173 26.9721 38.4482 27.4404L34.1458 27.3204L34.2178 27.2548L34.5154 27.0612C35.1725 26.6238 35.7618 26.139 36.2834 25.6068Z" fill="#999B9D" style="fill:#999B9D;fill:color(display-p3 0.6000 0.6078 0.6157);fill-opacity:1;"/>
<path d="M37.5367 32.0651C36.1959 33.1755 34.6652 33.9104 32.9447 34.2699C32.885 34.0651 32.9207 33.9126 33.0519 33.8123C33.9202 33.1478 34.3666 32.2918 34.3911 31.2443L35.1399 30.9275C35.189 30.9062 35.2279 30.8731 35.2567 30.8283L36.9863 28.1611L38.4423 27.4411C39.2114 26.9728 39.9116 26.3883 40.5431 25.6875C39.6887 27.8731 38.5575 29.9451 37.5367 32.0651Z" fill="#999B9D" style="fill:#999B9D;fill:color(display-p3 0.6000 0.6078 0.6157);fill-opacity:1;"/>
<path d="M31.6929 25.9219C32.1899 26.5363 32.6256 27.1944 33 27.8963C32.6118 28.1171 32.2219 28.2451 31.8305 28.2803C31.7373 28.2885 31.6438 28.2717 31.5596 28.2317C31.4755 28.1918 31.4038 28.1301 31.3521 28.0531L30.5312 26.8403L31.6929 25.9219Z" fill="#999B9D" style="fill:#999B9D;fill:color(display-p3 0.6000 0.6078 0.6157);fill-opacity:1;"/>
<path d="M13.9051 26.3255L14.7915 27.2967L14.2459 28.6951L9.21875 28.6023L10.0523 26.4423L13.9051 26.3255Z" fill="#999B9D" style="fill:#999B9D;fill:color(display-p3 0.6000 0.6078 0.6157);fill-opacity:1;"/>
<path d="M29.1722 34.2956C28.0362 34.079 26.9285 33.7206 25.849 33.2204C24.0112 32.367 22.2986 31.3089 20.7114 30.046C20.6922 30.03 20.6725 30.0209 20.6522 30.0188C20.6288 30.0145 20.6064 30.0145 20.585 30.0188L20.2746 29.7308C19.9578 29.3148 19.609 28.9244 19.2282 28.5596C18.9914 28.3324 18.9477 28.1036 19.097 27.8732L19.585 28.2732C19.6245 28.3062 19.6544 28.2988 19.6746 28.2508L20.3594 26.662C20.3882 26.5969 20.4298 26.5868 20.4842 26.6316C23.633 29.2396 27.2218 31.7228 31.2778 31.9452C31.3354 31.9484 31.3482 31.974 31.3162 32.022C30.9696 32.5318 30.6288 32.9644 30.2938 33.3196C29.9834 33.6476 29.4922 33.8428 29.1722 34.2956Z" fill="#999B9D" style="fill:#999B9D;fill:color(display-p3 0.6000 0.6078 0.6157);fill-opacity:1;"/>
<path d="M30.5344 26.8411L31.3552 28.0539C31.407 28.1309 31.4787 28.1926 31.5628 28.2326C31.6469 28.2726 31.7405 28.2893 31.8336 28.2811C32.2251 28.2459 32.615 28.1179 33.0032 27.8971L34.1472 27.3211L38.4496 27.4411L36.9936 28.1611C35.5632 28.6571 34.0795 28.8241 32.5424 28.6619C31.3499 28.4838 30.176 28.1798 29.0208 27.7499L30.5344 26.8411Z" fill="#999B9D" style="fill:#999B9D;fill:color(display-p3 0.6000 0.6078 0.6157);fill-opacity:1;"/>
<path d="M14.9565 27.3897L15.4941 27.9289L16.8237 34.5769C16.2583 34.8222 15.661 34.9214 15.0317 34.8745L14.6205 32.8313L13.9437 29.6745C13.933 29.6233 13.9362 29.5726 13.9533 29.5225L14.2459 28.6951L14.7915 27.2967C14.8054 27.349 14.8605 27.3801 14.9565 27.3897Z" fill="#999B9D" style="fill:#999B9D;fill:color(display-p3 0.6000 0.6078 0.6157);fill-opacity:1;"/>
<path d="M16.3048 28.6721C17.2381 29.583 18.2307 30.4342 19.2824 31.2257C19.292 31.2331 19.3032 31.2381 19.3151 31.2401C19.327 31.2422 19.3393 31.2413 19.3509 31.2375C19.3626 31.2337 19.3732 31.2272 19.3818 31.2185C19.3905 31.2097 19.397 31.199 19.4008 31.1873L19.9368 29.4753L20.2792 29.7313L20.5896 30.0193L20.0024 31.8161L19.4696 31.3777C19.456 31.3662 19.4397 31.3582 19.4223 31.3546C19.4048 31.3509 19.3867 31.3516 19.3695 31.3567C19.3522 31.3618 19.3365 31.371 19.3235 31.3836C19.3106 31.3962 19.3008 31.4117 19.2952 31.4289C18.8664 32.7697 18.1832 33.9921 16.8296 34.5777L15.5 27.9297L16.3048 28.6721Z" fill="#999B9D" style="fill:#999B9D;fill:color(display-p3 0.6000 0.6078 0.6157);fill-opacity:1;"/>
<path d="M36.9834 28.1615L35.2538 30.8287C35.225 30.8735 35.1861 30.9065 35.137 30.9279L34.3882 31.2447C32.9802 31.6468 31.5557 31.7321 30.1146 31.5007C30.7258 30.3785 31.5317 29.4324 32.5322 28.6623C34.0693 28.8244 35.553 28.6575 36.9834 28.1615Z" fill="#999B9D" style="fill:#999B9D;fill:color(display-p3 0.6000 0.6078 0.6157);fill-opacity:1;"/>
<path d="M14.2459 28.6951L13.9533 29.5225C13.9362 29.5726 13.933 29.6233 13.9437 29.6745L14.6205 32.8313L13.7705 31.8096C12.1129 30.8416 10.4569 30.4864 8.58333 30.2512L9.21875 28.6023L14.2459 28.6951Z" fill="#999B9D" style="fill:#999B9D;fill:color(display-p3 0.6000 0.6078 0.6157);fill-opacity:1;"/>
<path d="M13.7761 31.811L14.2753 34.8654C13.2492 34.4857 12.1345 34.299 10.9313 34.3054C10.4001 34.3086 9.1105 34.2894 7.0625 34.2478L8.5889 30.2526C10.4625 30.4878 12.1185 30.843 13.7761 31.811Z" fill="#999B9D" style="fill:#999B9D;fill:color(display-p3 0.6000 0.6078 0.6157);fill-opacity:1;"/>
<path d="M19.9942 31.8154C19.3878 33.6906 18.0822 35.1178 16.0742 35.4074C15.831 35.3978 15.6912 35.4314 15.655 35.5082C15.6059 35.5391 15.5312 35.545 15.431 35.5258C15.3446 35.5023 15.264 35.5098 15.1894 35.5482H7.19255L6.94775 35.5466C6.83895 35.5668 6.74722 35.5615 6.67255 35.5306C6.61922 35.5082 6.60269 35.4698 6.62295 35.4154L7.05495 34.2474C9.10295 34.289 10.3926 34.3082 10.9238 34.305C12.127 34.2986 13.2416 34.4852 14.2678 34.865L15.0294 34.8746C15.6587 34.9215 16.256 34.8223 16.8214 34.577C18.175 33.9914 18.8582 32.769 19.287 31.4282C19.2926 31.411 19.3023 31.3954 19.3153 31.3829C19.3282 31.3703 19.344 31.361 19.3612 31.356C19.3784 31.3509 19.3966 31.3502 19.414 31.3539C19.4315 31.3575 19.4477 31.3655 19.4614 31.377L19.9942 31.8154Z" fill="#999B9D" style="fill:#999B9D;fill:color(display-p3 0.6000 0.6078 0.6157);fill-opacity:1;"/>
<path d="M14.6308 32.8307L15.042 34.8739L14.2804 34.8643L13.7812 31.8099L14.6308 32.8307Z" fill="#999B9D" style="fill:#999B9D;fill:color(display-p3 0.6000 0.6078 0.6157);fill-opacity:1;"/>
<path d="M16.0755 35.4052C16.0296 35.5183 15.8899 35.5519 15.6562 35.506C15.6925 35.4292 15.8323 35.3956 16.0755 35.4052Z" fill="#999B9D" style="fill:#999B9D;fill:color(display-p3 0.6000 0.6078 0.6157);fill-opacity:1;"/>
<path d="M15.4291 35.5238C15.3715 35.5515 15.291 35.559 15.1875 35.5462C15.2622 35.5078 15.3427 35.5003 15.4291 35.5238Z" fill="#999B9D" style="fill:#999B9D;fill:color(display-p3 0.6000 0.6078 0.6157);fill-opacity:1;"/>
</svg>
