<svg width="117" height="36" viewBox="0 0 117 36" fill="none" xmlns="http://www.w3.org/2000/svg">
<g clip-path="url(#clip0_5889_905)">
<path d="M13.7174 0C14.0941 0.0996961 14.3527 0.177143 14.4932 0.23234C14.741 0.329362 14.8647 0.513313 14.8642 0.784195C14.8637 1.23599 14.8627 1.6817 14.8612 2.12134C14.8612 2.12908 14.8643 2.1365 14.8698 2.14197C14.8753 2.14744 14.8827 2.15052 14.8904 2.15052H17.7132C17.7212 2.15052 17.7289 2.14733 17.7346 2.14165C17.7402 2.13597 17.7434 2.12827 17.7434 2.12024C17.7425 1.85495 17.7412 1.4445 17.7398 0.888875C17.7393 0.714286 17.7579 0.586748 17.7956 0.506261C17.8564 0.377386 17.9596 0.286687 18.1053 0.234164C18.2869 0.168754 18.547 0.0906991 18.8854 0H18.9945C19.2068 0.036231 19.3516 0.144316 19.4289 0.324255C19.4659 0.410334 19.484 0.537264 19.4833 0.705046C19.4816 1.22541 19.4803 1.6941 19.4796 2.11112C19.4796 2.1163 19.4806 2.12142 19.4826 2.1262C19.4846 2.13098 19.4875 2.13532 19.4911 2.13898C19.4948 2.14264 19.4991 2.14554 19.5039 2.14752C19.5087 2.1495 19.5138 2.15052 19.519 2.15052H22.3264C22.3306 2.15052 22.3348 2.14968 22.3386 2.14807C22.3425 2.14645 22.346 2.14408 22.349 2.14109C22.3519 2.13811 22.3543 2.13457 22.3558 2.13068C22.3574 2.12678 22.3582 2.12262 22.3581 2.11842C22.3543 1.84997 22.3523 1.62553 22.3523 1.44511C22.3527 1.17447 22.3811 0.991368 22.5865 0.844742C22.6334 0.811429 22.7174 0.77617 22.8385 0.738967C22.9421 0.707112 23.106 0.654225 23.3302 0.580304C23.5943 0.493009 23.8127 0.552584 23.9856 0.759027C24.1034 0.899453 24.0958 1.05556 24.0965 1.27222C24.0977 1.62018 24.0971 1.96802 24.0947 2.31574C24.0936 2.47149 23.9984 2.59623 23.8802 2.71915C23.0488 3.5831 22.4784 4.17362 22.1688 4.4907C22.0204 4.6428 21.88 4.65957 21.6524 4.65957C19.5223 4.65982 15.927 4.65994 10.8666 4.65994C10.6888 4.65994 10.5478 4.60608 10.4435 4.49836C9.94575 3.98359 9.35292 3.36948 8.66502 2.65605C8.56021 2.54736 8.50781 2.41362 8.50781 2.25483C8.50806 1.62383 8.50952 1.22857 8.51219 1.06906C8.51474 0.916231 8.57894 0.783465 8.69201 0.681337C8.98599 0.415805 9.33505 0.604377 9.68812 0.71307C9.87365 0.770213 9.99669 0.824073 10.0572 0.87465C10.221 1.01143 10.2513 1.17848 10.252 1.40316C10.2525 1.54711 10.251 1.78505 10.2476 2.11696C10.2476 2.12135 10.2484 2.12571 10.2501 2.12977C10.2517 2.13384 10.2541 2.13755 10.2572 2.14067C10.2603 2.14379 10.264 2.14626 10.268 2.14796C10.2721 2.14965 10.2764 2.15052 10.2808 2.15052H13.0893C13.099 2.15052 13.1083 2.14667 13.1151 2.13983C13.122 2.13299 13.1258 2.12372 13.1258 2.11404C13.1251 1.6552 13.124 1.18821 13.1225 0.71307C13.1218 0.533374 13.1403 0.401094 13.178 0.316231C13.2565 0.139453 13.4068 0.0340426 13.6288 0H13.7174Z" fill="#999B9D" style="fill:#999B9D;fill:color(display-p3 0.6000 0.6078 0.6157);fill-opacity:1;"/>
<path d="M16.7819 36.0007H16.2126C15.9757 35.9462 15.8286 35.8073 15.7712 35.5838C15.7052 35.3278 15.8522 35.0557 16.0919 34.9532C16.15 34.9284 16.2627 34.9149 16.43 34.9127C19.2324 34.8743 21.8172 34.1368 24.1844 32.7002C25.3355 32.0016 26.3855 31.1546 27.3343 30.1594C27.3415 30.1516 27.3456 30.1416 27.3458 30.131C27.346 30.1205 27.3423 30.1104 27.3354 30.1025C26.4104 29.0531 25.6032 27.8819 24.9977 26.6345C24.0599 24.7019 23.5774 22.6442 23.5505 20.4616C23.5319 18.9542 23.5519 17.6761 23.2441 16.3371C23.0352 15.4297 22.6455 14.6146 22.0751 13.8919C21.4966 13.1595 20.7445 12.5296 19.949 12.0131C18.8252 11.284 17.5417 10.8372 16.1991 10.6745C15.6598 10.6091 15.1382 10.5844 14.6343 10.6005C13.6226 10.6326 12.5546 10.8565 11.5322 11.1512C11.5298 11.1519 11.5277 11.1532 11.5261 11.155C11.5244 11.1569 11.5234 11.1591 11.523 11.1615C11.5226 11.164 11.5229 11.1665 11.5239 11.1687C11.5249 11.171 11.5265 11.1729 11.5286 11.1742C13.9823 12.7645 15.3243 13.6334 15.5546 13.781C15.5782 13.7961 15.6039 13.7993 15.6319 13.7905C16.2371 13.6035 16.8315 13.5546 17.4151 13.6439C18.6166 13.8273 19.6047 14.6622 19.8717 15.8637C20.0333 16.5888 19.9464 17.3263 19.6536 18.0109C19.4029 18.5977 19.0644 19.1329 18.6381 19.6165C18.6364 19.6185 18.635 19.6208 18.6342 19.6234C18.6333 19.6259 18.633 19.6285 18.6332 19.6311C18.6334 19.6338 18.6342 19.6363 18.6354 19.6386C18.6366 19.6409 18.6383 19.643 18.6403 19.6446C18.9785 19.9172 19.2874 20.23 19.5667 20.5831C20.7817 22.1183 21.4897 24.0598 21.6724 25.9984C21.7599 26.9275 21.7254 27.8532 21.5688 28.7755C21.5666 28.7875 21.5715 28.795 21.5834 28.7982C22.4084 29.0241 23.1693 29.2312 23.866 29.4197C24.1023 29.4836 24.2498 29.5416 24.3084 29.5937C24.6531 29.9011 24.4835 30.4898 24.0243 30.5482C23.9365 30.5591 23.8134 30.5428 23.6551 30.4993C23.3162 30.4062 22.4128 30.1604 20.9451 29.7618C20.753 29.7095 20.6283 29.6582 20.5709 29.6079C20.4758 29.5245 20.4157 29.4187 20.3907 29.2906C20.3776 29.2227 20.3879 29.1078 20.4217 28.9459C20.8773 26.7651 20.5545 24.4785 19.5164 22.5104C19.1451 21.8061 18.6731 21.1273 18.0841 20.6075C17.9158 20.4592 17.7464 20.345 17.576 20.265C17.4328 20.1979 17.3398 20.1431 17.297 20.1005C17.1077 19.9116 17.0785 19.6162 17.2371 19.3907C17.2644 19.3521 17.3336 19.2946 17.4447 19.2182C17.6433 19.0816 17.8416 18.8838 18.0396 18.6248C18.3032 18.2797 18.5179 17.902 18.6837 17.4915C18.9248 16.8934 18.9332 16.1416 18.5896 15.5803C18.0126 14.6385 16.7626 14.5236 15.8136 14.8913C15.6859 14.9409 15.5947 14.9652 15.54 14.9642C15.4187 14.9623 15.3231 14.9387 15.2533 14.8935C13.5269 13.7752 11.8007 12.6566 10.0747 11.5379C9.91714 11.4357 9.81453 11.3478 9.76687 11.2742C9.67203 11.128 9.66219 10.9601 9.73732 10.7704C9.79471 10.6248 9.90656 10.5233 10.0729 10.4659C11.1496 10.0946 12.1833 9.80753 13.2604 9.63573C14.4995 9.4378 15.7515 9.45713 17.0165 9.69373C18.2736 9.92886 19.4326 10.3844 20.4936 11.0604C21.3937 11.6338 22.2542 12.3571 22.9246 13.2011C23.5539 13.9938 23.998 14.8886 24.257 15.8856C24.405 16.4548 24.5052 17.0661 24.5575 17.7195C24.5962 18.2012 24.6176 18.6267 24.6217 18.9961C24.6309 19.809 24.6402 20.3675 24.6494 20.6717C24.7267 23.2346 25.4707 25.5813 26.8813 27.7116C27.246 28.2626 27.6446 28.7867 28.0769 29.284C28.0852 29.2937 28.0933 29.2936 28.1013 29.2836C29.9772 26.9664 31.1261 24.1951 31.4285 21.2272C31.7517 18.0521 31.0474 14.7724 29.4264 12.0317C27.9959 9.61275 26.0461 7.72291 23.5771 6.36218C23.4215 6.27634 23.3209 6.20825 23.2754 6.15792C23.1157 5.98175 23.0967 5.70746 23.2236 5.50795C23.3418 5.32266 23.5472 5.23184 23.7722 5.25847C23.826 5.26479 23.9173 5.30309 24.0461 5.37336C25.8572 6.36035 27.3971 7.59792 28.666 9.08607C30.5529 11.2986 31.7698 13.8321 32.3167 16.6866C32.5912 18.1193 32.6639 19.6131 32.5348 21.1681C32.5126 21.4361 32.4865 21.678 32.4564 21.894C32.0401 24.8858 30.8994 27.5493 29.0343 29.8844C28.1488 30.9929 27.1244 31.9781 25.9614 32.8399C23.2889 34.82 20.1153 35.8884 16.7819 36.0007Z" fill="#999B9D" style="fill:#999B9D;fill:color(display-p3 0.6000 0.6078 0.6157);fill-opacity:1;"/>
<path d="M3.23887 11.952C1.83936 14.3108 1.10769 16.999 1.10987 19.7506C1.10987 19.8126 1.08556 19.8894 1.03693 19.9811C0.900512 20.2382 0.576622 20.3192 0.326045 20.2028C0.131273 20.1124 0.0160141 19.9187 0.0156494 19.705C0.010543 16.7929 0.807139 13.9019 2.29601 11.3925C3.78489 8.88345 5.94051 6.79896 8.49917 5.40783C8.68665 5.3057 8.91206 5.31409 9.08458 5.44175C9.30708 5.60589 9.39097 5.92905 9.23085 6.17197C9.1737 6.25853 9.1179 6.31665 9.06343 6.34631C6.64738 7.66339 4.63838 9.59324 3.23887 11.952Z" fill="#999B9D" style="fill:#999B9D;fill:color(display-p3 0.6000 0.6078 0.6157);fill-opacity:1;"/>
<path d="M21.6656 9.14369C21.5686 9.36691 21.3133 9.51208 21.0813 9.47013C21.0154 9.45821 20.8927 9.40071 20.7133 9.29761C19.6074 8.66223 18.3757 8.27305 17.1217 8.08192C16.2969 7.95645 15.4796 7.90356 14.6699 7.92326C14.4163 7.92934 14.1549 7.94733 13.8857 7.97724C13.1526 8.05846 12.4271 8.1742 11.7093 8.32448C11.5537 8.35706 11.4463 8.37031 11.3872 8.36423C11.1819 8.34344 10.9922 8.19025 10.9258 7.99074C10.9071 7.93457 10.898 7.84496 10.8985 7.72192C10.8994 7.3618 10.8997 7.0018 10.8992 6.64192C10.8989 6.38466 10.9162 6.21457 10.951 6.13165C11.0052 6.00107 11.1011 5.90952 11.2388 5.857C11.3163 5.82733 11.4413 5.8125 11.6137 5.8125C14.7532 5.81323 17.8925 5.81335 21.0317 5.81286C21.2053 5.81286 21.3264 5.82928 21.395 5.8621C21.5132 5.91876 21.6009 6.00642 21.6583 6.12508C21.6897 6.19025 21.7054 6.29748 21.7054 6.44679C21.7064 7.38247 21.7065 8.19597 21.7058 8.88727C21.7055 8.99669 21.6921 9.08217 21.6656 9.14369Z" fill="#999B9D" style="fill:#999B9D;fill:color(display-p3 0.6000 0.6078 0.6157);fill-opacity:1;"/>
<path d="M116.024 10.2019V18.9145L114.349 18.9182C114.327 18.9184 114.316 18.9076 114.316 18.8857V13.4222C114.316 13.4207 114.316 13.4192 114.315 13.418C114.314 13.4167 114.313 13.4157 114.312 13.4152C114.31 13.4146 114.309 13.4145 114.307 13.4148C114.306 13.4152 114.305 13.416 114.304 13.4171C114.29 13.4307 114.278 13.4481 114.266 13.4693C113.264 15.2307 112.276 16.9685 111.301 18.6825C111.211 18.8411 111.056 18.9506 110.836 19.0112C110.458 19.1155 110.069 18.9813 109.873 18.638C108.473 16.1809 107.513 14.5 106.994 13.5955C106.963 13.54 106.932 13.4801 106.902 13.4157C106.891 13.3913 106.884 13.3924 106.88 13.4189C106.875 13.4557 106.873 13.4971 106.873 13.5433C106.876 16.4737 106.876 18.2605 106.874 18.9039C106.874 18.9057 106.874 18.9075 106.873 18.9092C106.873 18.9109 106.872 18.9124 106.87 18.9137C106.869 18.915 106.868 18.916 106.866 18.9167C106.864 18.9174 106.862 18.9178 106.861 18.9178H105.201C105.197 18.9178 105.193 18.917 105.19 18.9156C105.186 18.9141 105.183 18.9119 105.18 18.9092C105.178 18.9065 105.176 18.9033 105.174 18.8998C105.173 18.8962 105.172 18.8924 105.172 18.8886C105.173 16.7787 105.173 13.9686 105.172 10.4583C105.172 10.3635 105.175 10.2858 105.181 10.2253C105.206 9.96009 105.349 9.72776 105.57 9.58769C105.881 9.39073 106.31 9.42976 106.585 9.66757C106.649 9.7235 106.749 9.87 106.885 10.1071C108.117 12.2488 109.348 14.3895 110.58 16.5291C110.581 16.5312 110.582 16.533 110.585 16.5342C110.587 16.5354 110.589 16.5361 110.592 16.5361C110.594 16.5361 110.596 16.5354 110.599 16.5342C110.601 16.533 110.602 16.5312 110.604 16.5291C111.845 14.3708 113.086 12.2131 114.327 10.056C114.443 9.85517 114.538 9.72253 114.613 9.65809C114.892 9.41991 115.312 9.39475 115.628 9.58624C115.844 9.7173 115.976 9.92253 116.024 10.2019Z" fill="#999B9D" style="fill:#999B9D;fill:color(display-p3 0.6000 0.6078 0.6157);fill-opacity:1;"/>
<path d="M44.0016 11.3698C43.801 11.4679 43.6982 11.6973 43.6982 11.9056C43.6984 13.659 43.6984 15.1288 43.6982 16.3149C43.6979 16.589 43.7174 16.7726 43.7565 16.8657C43.8195 17.0152 43.9304 17.1181 44.0892 17.1743C44.174 17.2042 44.3164 17.2192 44.5163 17.2195C45.6042 17.2197 47.5805 17.2196 50.4451 17.2191C50.4483 17.2191 50.4515 17.2197 50.4545 17.2208C50.4574 17.222 50.4601 17.2238 50.4624 17.226C50.4647 17.2283 50.4665 17.231 50.4677 17.2339C50.469 17.2368 50.4696 17.24 50.4696 17.2432V18.9002C50.4696 18.9045 50.4679 18.9086 50.4649 18.9116C50.4619 18.9146 50.4578 18.9163 50.4535 18.9163C48.5104 18.917 46.5656 18.9169 44.6191 18.9159C44.2913 18.9159 44.0496 18.9002 43.894 18.8688C42.9559 18.681 42.2476 18.0482 42.0492 17.0929C42.0173 16.9397 42.0013 16.6973 42.001 16.3656C41.9998 15.1299 41.9997 13.7527 42.0006 12.2342C42.0011 11.9013 42.0154 11.659 42.0433 11.5073C42.2461 10.4068 43.1346 9.59711 44.2642 9.59456C45.705 9.59164 47.7684 9.59104 50.4546 9.59274C50.4644 9.59274 50.4692 9.59748 50.4692 9.60696V11.2651C50.4692 11.2712 50.4668 11.277 50.4625 11.2813C50.4582 11.2856 50.4523 11.2881 50.4462 11.2881C48.4691 11.2876 46.4263 11.2877 44.3179 11.2884C44.2184 11.2884 44.113 11.3155 44.0016 11.3698Z" fill="#999B9D" style="fill:#999B9D;fill:color(display-p3 0.6000 0.6078 0.6157);fill-opacity:1;"/>
<path d="M59.5081 16.6369C59.5081 16.6351 59.5074 16.6335 59.5062 16.6322C59.5049 16.631 59.5033 16.6303 59.5015 16.6303L53.588 16.6318C53.5855 16.6318 53.5831 16.6328 53.5813 16.6347C53.5795 16.6365 53.5785 16.639 53.5785 16.6416L53.5789 18.8979C53.5789 18.9024 53.5771 18.9066 53.5741 18.9098C53.571 18.9129 53.5668 18.9147 53.5624 18.9147L51.8992 18.915C51.895 18.915 51.8909 18.9133 51.8879 18.9102C51.8849 18.9072 51.8832 18.903 51.8832 18.8986C51.8837 17.7616 51.8835 16.1818 51.8828 14.1592C51.8826 13.5333 52.004 12.9259 52.2472 12.3369C52.8884 10.7831 54.3149 9.78775 55.9723 9.61888C56.1272 9.60307 56.3699 9.59481 56.7003 9.59408C57.9239 9.59165 59.1474 9.59116 60.3707 9.59262C60.7263 9.59298 61.0364 9.82678 61.1487 10.1445C61.184 10.2447 61.2016 10.4048 61.2016 10.6248C61.2023 13.3828 61.2031 16.1405 61.2038 18.8979C61.2038 18.9018 61.2023 18.9055 61.1996 18.9082C61.1969 18.911 61.1933 18.9125 61.1896 18.9125L59.5263 18.9129C59.5144 18.9129 59.5085 18.9069 59.5085 18.895L59.5081 16.6369ZM59.5074 11.3102C59.5074 11.3042 59.505 11.2984 59.5008 11.2941C59.4965 11.2898 59.4908 11.2873 59.4848 11.2872C58.6548 11.2845 57.6917 11.2855 56.5953 11.2901C56.0112 11.2926 55.4654 11.429 54.9579 11.6994C54.1103 12.1506 53.6296 13.0157 53.5876 13.9648C53.5755 14.2391 53.5727 14.5498 53.5792 14.8971C53.5793 14.9058 53.5829 14.9141 53.5892 14.9203C53.5955 14.9264 53.6039 14.9299 53.6128 14.9299H59.4851C59.491 14.9299 59.4967 14.9275 59.5009 14.9234C59.505 14.9192 59.5074 14.9135 59.5074 14.9076V11.3102Z" fill="#999B9D" style="fill:#999B9D;fill:color(display-p3 0.6000 0.6078 0.6157);fill-opacity:1;"/>
<path d="M62.8887 18.8916V17.2437C62.8887 17.2369 62.8914 17.2304 62.8962 17.2257C62.901 17.2209 62.9075 17.2182 62.9142 17.2182C66.1845 17.2182 68.2489 17.2182 69.1075 17.2182C69.4548 17.2182 69.6868 17.1992 69.8035 17.1613C70.2751 17.0081 70.4731 16.5047 70.4202 16.0255C70.3758 15.6213 70.1463 15.2814 69.7524 15.1592C69.6403 15.1242 69.4302 15.1066 69.1221 15.1063C67.6257 15.1051 66.4516 15.1051 65.5998 15.1063C65.3851 15.1068 65.2098 15.0948 65.0739 15.0702C64.891 15.0374 64.7197 14.9933 64.5599 14.9378C63.6477 14.6209 62.9799 13.8421 62.8438 12.8799C62.7523 12.23 62.8096 11.5238 63.1415 10.9439C63.6474 10.0601 64.5585 9.5918 65.5652 9.5918C66.5405 9.59204 68.4384 9.59216 71.2588 9.59216C71.2613 9.59216 71.2637 9.59265 71.266 9.59361C71.2683 9.59456 71.2704 9.59596 71.2722 9.59772C71.274 9.59948 71.2754 9.60157 71.2763 9.60387C71.2773 9.60617 71.2778 9.60864 71.2778 9.61113V11.2682C71.2778 11.2798 71.2719 11.2857 71.2603 11.2857C70.2295 11.2869 68.319 11.2871 65.5287 11.2864C64.7606 11.286 64.4064 11.901 64.5249 12.6009C64.584 12.9489 64.8014 13.2352 65.1399 13.3457C65.2449 13.38 65.4457 13.3973 65.7421 13.3975C67.4077 13.3995 68.5158 13.3997 69.0663 13.3982C69.3997 13.3973 69.6423 13.4094 69.794 13.4347C70.9385 13.6258 71.8424 14.3841 72.0678 15.54C72.2505 16.4799 72.024 17.6008 71.2493 18.2384C70.7024 18.6885 70.0757 18.9142 69.3691 18.9157C67.3713 18.9193 65.2194 18.9197 62.9135 18.9168C62.9069 18.9168 62.9006 18.9141 62.896 18.9094C62.8913 18.9047 62.8887 18.8983 62.8887 18.8916Z" fill="#999B9D" style="fill:#999B9D;fill:color(display-p3 0.6000 0.6078 0.6157);fill-opacity:1;"/>
<path d="M77.2714 18.9175C76.9922 18.9175 76.7153 18.9173 76.4405 18.9168C76.4295 18.9168 76.4241 18.9113 76.4241 18.9004V11.309C76.4241 11.3033 76.4218 11.2978 76.4177 11.2938C76.4136 11.2897 76.408 11.2875 76.4022 11.2875H72.7092C72.7055 11.2875 72.702 11.286 72.6994 11.2834C72.6968 11.2808 72.6953 11.2773 72.6953 11.2736V9.60529C72.6953 9.60181 72.6967 9.59847 72.6993 9.59601C72.7018 9.59355 72.7052 9.59216 72.7088 9.59216C74.231 9.59192 75.752 9.5918 77.2717 9.5918C78.7917 9.5918 80.3128 9.59204 81.835 9.59253C81.8385 9.59262 81.8419 9.59404 81.8443 9.5965C81.8468 9.59895 81.8481 9.60224 81.8481 9.60566V11.274C81.8481 11.2777 81.8467 11.2812 81.8441 11.2838C81.8415 11.2864 81.838 11.2878 81.8343 11.2878L78.1416 11.2875C78.1358 11.2875 78.1303 11.2897 78.1262 11.2938C78.1221 11.2978 78.1197 11.3033 78.1197 11.309L78.1187 18.9004C78.1187 18.9113 78.1133 18.9169 78.1026 18.9171C77.8276 18.9174 77.5505 18.9175 77.2714 18.9175Z" fill="#999B9D" style="fill:#999B9D;fill:color(display-p3 0.6000 0.6078 0.6157);fill-opacity:1;"/>
<path d="M89.3361 15.8694C89.3047 15.8704 89.3009 15.8812 89.3248 15.9019L92.7811 18.8939C92.7998 18.9099 92.7969 18.9179 92.7723 18.9179H90.2042C90.1915 18.9179 90.1806 18.9139 90.1713 18.9059L86.6877 15.8906C86.6729 15.8776 86.654 15.8705 86.6344 15.8705H85.4694C85.4551 15.8705 85.4479 15.8633 85.4479 15.849V14.1898C85.4479 14.1793 85.453 14.1741 85.4632 14.1741C85.9527 14.1729 87.1386 14.1728 89.0209 14.1737C89.2356 14.1737 89.4016 14.1621 89.5188 14.1387C90.0495 14.0333 90.4894 13.7098 90.644 13.1791C90.6815 13.0505 90.7004 12.8092 90.7009 12.4554C90.7012 12.1962 90.7007 11.944 90.6995 11.6986C90.6987 11.4823 90.6575 11.2875 90.3924 11.2872C89.5425 11.2864 87.6772 11.2863 84.7965 11.2868C84.7836 11.2868 84.7772 11.2933 84.7772 11.3061V18.9048C84.7772 18.9083 84.7758 18.9116 84.7733 18.9141C84.7709 18.9166 84.7675 18.9179 84.764 18.9179H83.0983C83.094 18.9179 83.0899 18.9162 83.0869 18.9132C83.0839 18.9102 83.0822 18.9061 83.0822 18.9019C83.0827 13.539 83.0814 10.7307 83.0782 10.4771C83.0735 10.0919 83.3043 9.73411 83.6808 9.62541C83.7573 9.60329 83.8806 9.59222 84.0506 9.59222C87.7301 9.59271 89.7255 9.59259 90.0367 9.59186C90.3913 9.59088 90.6337 9.60183 90.764 9.62468C91.3821 9.73362 91.8433 10.068 92.1475 10.6277C92.307 10.9212 92.3905 11.2663 92.3981 11.6629C92.4073 12.1312 92.4055 12.5678 92.3926 12.9726C92.3875 13.13 92.364 13.3068 92.3222 13.503C92.1555 14.2832 91.7164 14.9182 91.0485 15.3431C90.5267 15.6753 89.9559 15.8507 89.3361 15.8694Z" fill="#999B9D" style="fill:#999B9D;fill:color(display-p3 0.6000 0.6078 0.6157);fill-opacity:1;"/>
<path d="M101.491 17.2175C101.499 17.2175 101.507 17.2141 101.513 17.2082C101.519 17.2022 101.522 17.1941 101.522 17.1857V9.62025C101.522 9.6127 101.525 9.60546 101.531 9.60013C101.536 9.59479 101.543 9.5918 101.551 9.5918H103.198C103.204 9.5918 103.209 9.59395 103.212 9.59778C103.216 9.60161 103.218 9.60681 103.218 9.61222C103.218 11.247 103.218 14.0076 103.218 17.894C103.218 18.1 103.207 18.242 103.185 18.3201C103.08 18.6874 102.731 18.9157 102.355 18.9164C100.273 18.9198 98.9957 18.9193 98.5215 18.915C97.5028 18.9051 96.5246 18.6137 95.6933 18.0243C94.4937 17.174 93.8977 15.807 93.8988 14.3517C93.8998 12.5764 93.8997 10.9945 93.8984 9.60602C93.8984 9.60225 93.8999 9.59863 93.9026 9.59596C93.9053 9.5933 93.9089 9.5918 93.9127 9.5918H95.5613C95.5703 9.5918 95.5789 9.59537 95.5853 9.60173C95.5916 9.60809 95.5952 9.61672 95.5952 9.62572C95.5928 11.2902 95.5928 12.8685 95.5952 14.3608C95.5967 15.1931 95.9049 15.9781 96.5403 16.5186C96.971 16.8848 97.5936 17.1106 98.1535 17.1868C98.3006 17.207 98.5427 17.2172 98.8797 17.2175C99.7522 17.2177 100.623 17.2177 101.491 17.2175Z" fill="#999B9D" style="fill:#999B9D;fill:color(display-p3 0.6000 0.6078 0.6157);fill-opacity:1;"/>
<path d="M6.91272 12.4072C6.88889 12.393 6.88111 12.3993 6.88938 12.4258L7.84719 15.436C7.84886 15.4411 7.85174 15.4458 7.85556 15.4495C7.85938 15.4532 7.86403 15.4558 7.86907 15.4571C9.04062 15.7594 10.3943 16.1112 11.9301 16.5127C12.8641 16.7571 13.7724 16.98 14.6551 17.1816C14.6816 17.1877 14.7868 17.2065 14.9706 17.2382C15.3824 17.3089 15.9707 17.2451 16.1998 16.8537C16.282 16.7132 16.3357 16.6023 16.361 16.5211C16.3851 16.4445 16.4288 16.2789 16.4916 16.1972C16.6569 15.9822 16.8722 15.9186 17.1375 16.0064C17.261 16.0473 17.3578 16.1365 17.4279 16.2741C17.5263 16.4671 17.4848 16.6221 17.4089 16.841C17.3182 17.1031 17.2028 17.3341 17.0628 17.534C16.7068 18.0417 16.1042 18.3141 15.49 18.3484C15.2254 18.363 14.9542 18.3475 14.6762 18.3017C14.6184 18.2923 14.3808 18.2403 13.9635 18.146C13.6593 18.0769 13.3813 18.0108 13.1294 17.9476C11.9564 17.6529 10.5534 17.2902 8.92062 16.8596C8.41898 16.727 7.90652 16.5973 7.38324 16.4704C7.25315 16.439 7.16451 16.4065 7.11734 16.373C6.99552 16.2876 6.93679 16.1848 6.88974 16.0367C6.68743 15.4023 6.19065 13.841 5.39941 11.3527C5.35515 11.2136 5.37108 11.0728 5.44719 10.9303C5.59892 10.6458 5.94871 10.5729 6.22701 10.7359C9.24439 12.5037 11.8576 14.0327 14.0668 15.3229C14.2236 15.4146 14.3279 15.496 14.3797 15.5673C14.4908 15.72 14.5036 15.9014 14.418 16.1115C14.3268 16.3354 14.0383 16.4733 13.7979 16.4095C13.744 16.3951 13.6581 16.3535 13.5404 16.2847C10.1488 14.3022 7.93959 13.0097 6.91272 12.4072Z" fill="#999B9D" style="fill:#999B9D;fill:color(display-p3 0.6000 0.6078 0.6157);fill-opacity:1;"/>
<path d="M6.77695 24.6656C6.77208 24.6462 6.75749 24.6338 6.73318 24.6284C6.69938 24.6207 6.68114 24.6164 6.67847 24.6157C6.36041 24.4964 6.05695 24.3049 5.86436 24.0146C5.63385 23.667 5.79214 23.3967 5.98473 23.0732C6.41196 22.3561 6.6285 21.9926 6.63433 21.9826C6.86448 21.585 7.06983 21.1911 7.20844 20.7709C7.212 20.7601 7.21329 20.7487 7.21222 20.7373C7.21115 20.7259 7.20775 20.7149 7.20223 20.7049C7.10923 20.5364 7.05743 20.3752 7.0505 20.1585C7.02594 19.386 7.07056 18.6703 7.18436 18.0113C7.22631 17.7684 7.48527 17.5813 7.74132 17.5966C7.78193 17.599 7.87761 17.6185 8.02837 17.6549C10.12 18.1619 11.1898 18.4209 11.2377 18.4318C11.2762 18.4408 11.3281 18.4552 11.3935 18.4749C11.5919 18.5343 11.7352 18.7043 11.7677 18.9009C11.7808 18.9809 11.7649 19.1114 11.7199 19.2923C11.4066 20.5506 10.9981 21.8083 10.451 22.9459C10.1431 23.5864 9.76309 24.2287 9.24734 24.7036C9.24025 24.7101 9.23503 24.7184 9.23221 24.7276C9.22939 24.7367 9.22907 24.7465 9.23129 24.7557C9.47907 25.8424 9.64698 26.9312 9.735 28.022C9.7581 28.3104 9.76819 28.6704 9.76527 29.102C9.76382 29.3518 9.69889 29.543 9.49062 29.6608C9.255 29.7943 9.06534 29.7399 8.83263 29.5999C8.5598 29.436 8.3023 29.2495 8.06011 29.0403C7.74461 28.7683 7.4809 28.4385 7.36673 28.0304C7.31786 27.856 7.28017 27.6812 7.25366 27.5059C7.20479 27.183 7.1609 26.7774 7.12199 26.2891C7.10485 26.0743 7.06144 25.7978 6.9998 25.552C6.92588 25.2563 6.8516 24.9608 6.77695 24.6656Z" fill="#999B9D" style="fill:#999B9D;fill:color(display-p3 0.6000 0.6078 0.6157);fill-opacity:1;"/>
<path d="M12.0442 30.5496C12.2164 30.3852 12.3832 30.2181 12.5447 30.0484C14.0758 28.4396 15.021 26.5401 15.3802 24.3497C15.6242 22.8604 15.5538 21.3449 15.2777 19.8134C15.2392 19.6011 15.2885 19.4277 15.4254 19.2933C15.6694 19.0536 16.0772 19.0948 16.2676 19.379C16.3055 19.4359 16.3369 19.5311 16.3617 19.6646C16.6369 21.1476 16.6961 22.5778 16.5393 23.955C16.2991 26.0674 15.5534 27.9694 14.3023 29.661C13.5865 30.6291 12.7165 31.4957 11.6923 32.2609C11.5391 32.3755 11.4204 32.442 11.3363 32.4604C11.0102 32.5327 10.7111 32.2839 10.6808 31.9527C10.6703 31.8356 10.7363 31.6051 10.7538 31.5132C10.9943 30.2724 11.0986 29.0294 11.0667 27.7844C11.0452 26.9444 10.9489 26.1373 10.7067 25.3556C10.6724 25.245 10.6724 25.1372 10.7067 25.0321C10.7269 24.9703 10.7814 24.8835 10.8701 24.7717C11.3132 24.2131 11.6896 23.5953 11.9994 22.9181C12.5068 21.8083 12.8312 20.6607 12.9725 19.4753C12.9944 19.2912 13.0228 19.1696 13.0578 19.1105C13.149 18.9566 13.2981 18.8715 13.505 18.8552C13.8442 18.8282 14.1021 19.128 14.0711 19.4651C14.0502 19.6917 14.0285 19.8775 14.0062 20.0224C13.7158 21.9085 13.0042 23.7613 11.8568 25.2911C11.8485 25.3023 11.8458 25.3147 11.8487 25.3283C11.8704 25.4258 11.8864 25.4963 11.8969 25.5398C12.0272 26.0857 12.109 26.6882 12.1423 27.3471C12.1954 28.4029 12.1537 29.4658 12.0172 30.5357C12.0134 30.5658 12.0223 30.5705 12.0442 30.5496Z" fill="#999B9D" style="fill:#999B9D;fill:color(display-p3 0.6000 0.6078 0.6157);fill-opacity:1;"/>
<path d="M44.0012 22.4161C43.8005 22.5139 43.6977 22.7433 43.6977 22.9516C43.6979 24.7045 43.6979 26.1738 43.6977 27.3595C43.6974 27.6335 43.7169 27.8171 43.756 27.9102C43.8188 28.0595 43.9295 28.1623 44.0883 28.2184C44.1732 28.2484 44.3156 28.2634 44.5154 28.2637C45.6029 28.2642 47.5785 28.2642 50.4425 28.2637C50.4489 28.2637 50.455 28.2662 50.4595 28.2707C50.464 28.2752 50.4666 28.2814 50.4666 28.2877V29.9444C50.4666 29.9487 50.4649 29.9527 50.4619 29.9557C50.4589 29.9588 50.4548 29.9604 50.4505 29.9604C48.5081 29.9609 46.5641 29.9607 44.6183 29.9597C44.2905 29.9597 44.0488 29.944 43.8932 29.9127C42.9554 29.7248 42.2475 29.092 42.0491 28.1371C42.0172 27.9839 42.0012 27.7416 42.0009 27.4102C41.9997 26.1749 41.9997 24.7983 42.0009 23.2802C42.0014 22.9473 42.0156 22.705 42.0436 22.5533C42.2464 21.4532 43.1345 20.6439 44.2638 20.6413C45.704 20.6384 47.7667 20.6379 50.452 20.6398C50.4617 20.6398 50.4666 20.6446 50.4666 20.6541V22.3115C50.4666 22.3175 50.4641 22.3234 50.4598 22.3277C50.4555 22.332 50.4497 22.3344 50.4436 22.3344C48.4672 22.3339 46.4251 22.3341 44.3174 22.3348C44.2179 22.3348 44.1125 22.3619 44.0012 22.4161Z" fill="#999B9D" style="fill:#999B9D;fill:color(display-p3 0.6000 0.6078 0.6157);fill-opacity:1;"/>
<path d="M59.5074 27.6833C59.5074 27.6825 59.5072 27.6816 59.5069 27.6808C59.5065 27.68 59.5061 27.6793 59.5054 27.6787C59.5048 27.6781 59.5041 27.6776 59.5033 27.6773C59.5025 27.6769 59.5017 27.6767 59.5008 27.6767H53.5876C53.5864 27.6767 53.5851 27.677 53.584 27.6775C53.5828 27.678 53.5818 27.6787 53.5809 27.6796C53.58 27.6805 53.5793 27.6816 53.5789 27.6828C53.5784 27.684 53.5781 27.6853 53.5781 27.6866V29.9429C53.5781 29.9473 53.5764 29.9516 53.5733 29.9548C53.5702 29.9579 53.5661 29.9597 53.5617 29.9597H51.8989C51.8946 29.9597 51.8905 29.9579 51.8875 29.9549C51.8845 29.9518 51.8828 29.9476 51.8828 29.9433C51.8835 28.8062 51.8837 27.2265 51.8832 25.2042C51.8832 24.5783 52.0048 23.971 52.2479 23.3823C52.8895 21.8288 54.316 20.8338 55.9734 20.6653C56.1283 20.6495 56.371 20.6412 56.7014 20.6405C57.9248 20.6383 59.1481 20.6381 60.3714 20.6398C60.7267 20.6402 61.0367 20.874 61.1491 21.1916C61.1843 21.2918 61.202 21.4519 61.202 21.672C61.202 24.4297 61.2021 27.1871 61.2023 29.9443C61.2023 29.9482 61.2008 29.9519 61.1982 29.9547C61.1955 29.9574 61.1919 29.9589 61.1881 29.9589H59.5252C59.5133 29.9589 59.5074 29.953 59.5074 29.9411V27.6833ZM59.5066 22.3585C59.5066 22.3524 59.5043 22.3466 59.5 22.3423C59.4958 22.338 59.4901 22.3356 59.484 22.3355C58.6544 22.3328 57.6914 22.3336 56.5953 22.338C56.0114 22.3402 55.4658 22.4764 54.9583 22.7465C54.111 23.1974 53.6299 24.0622 53.588 25.0109C53.5756 25.2851 53.5727 25.5958 53.5792 25.9428C53.5793 25.9515 53.5829 25.9599 53.5892 25.966C53.5955 25.9721 53.6039 25.9756 53.6128 25.9756L59.4837 25.9771C59.4896 25.9771 59.4952 25.9747 59.4994 25.9705C59.5036 25.9664 59.5059 25.9607 59.5059 25.9548L59.5066 22.3585Z" fill="#999B9D" style="fill:#999B9D;fill:color(display-p3 0.6000 0.6078 0.6157);fill-opacity:1;"/>
<path d="M65.5157 25.9749C67.5239 25.9779 68.7921 25.9787 69.3203 25.9775C69.4754 25.977 69.6515 25.94 69.8484 25.8666C70.3216 25.6901 70.6114 25.3701 70.7176 24.9066C70.7439 24.7921 70.7572 24.6041 70.7577 24.3427C70.758 24.129 70.7568 23.9404 70.7541 23.777C70.7521 23.6583 70.7185 23.4954 70.6531 23.2883C70.4477 22.6394 69.9309 22.325 69.2605 22.3334C69.1328 22.3348 69.0681 22.3355 69.0664 22.3355C67.5856 22.3351 66.4769 22.3353 65.7404 22.3363C65.3468 22.3366 65.0349 22.3352 64.8879 22.6966C64.8534 22.7818 64.8362 22.916 64.8362 23.0993C64.8349 25.5103 64.8347 27.792 64.8354 29.9444C64.8354 29.9483 64.8339 29.952 64.8311 29.9547C64.8284 29.9575 64.8247 29.959 64.8208 29.959H63.1489C63.1446 29.959 63.1405 29.9573 63.1375 29.9543C63.1345 29.9513 63.1328 29.9472 63.1328 29.943C63.1333 25.4686 63.1335 23.1504 63.1335 22.9884C63.1333 22.14 63.4755 21.488 64.1603 21.0323C64.4645 20.8303 64.8197 20.7187 65.1699 20.6632C65.2691 20.6474 65.4135 20.6395 65.6032 20.6395C66.8283 20.6383 68.0092 20.6384 69.1459 20.6399C69.4817 20.6404 69.7245 20.6517 69.8743 20.6738C70.5641 20.7752 71.2337 21.1111 71.682 21.656C72.0905 22.1526 72.3377 22.7168 72.4235 23.3488C72.4731 23.7154 72.4534 24.21 72.4534 24.6112C72.4537 25.1033 72.3486 25.5696 72.1383 26.01C71.6915 26.9455 70.7209 27.528 69.7091 27.6509C69.5671 27.6682 69.3242 27.6771 68.9803 27.6776C68.0072 27.6785 66.8512 27.6788 65.5124 27.6783C65.5089 27.6782 65.5055 27.6768 65.5031 27.6743C65.5006 27.6719 65.4993 27.6686 65.4993 27.6652V25.9914C65.4993 25.9892 65.4997 25.9871 65.5005 25.9851C65.5013 25.9831 65.5025 25.9813 65.5041 25.9797C65.5056 25.9782 65.5074 25.977 65.5094 25.9762C65.5114 25.9754 65.5135 25.9749 65.5157 25.9749Z" fill="#999B9D" style="fill:#999B9D;fill:color(display-p3 0.6000 0.6078 0.6157);fill-opacity:1;"/>
<path d="M75.5817 20.6387H73.9156C73.9061 20.6387 73.8984 20.6463 73.8984 20.6558V29.9414C73.8984 29.9509 73.9061 29.9586 73.9156 29.9586H75.5817C75.5912 29.9586 75.5989 29.9509 75.5989 29.9414V20.6558C75.5989 20.6463 75.5912 20.6387 75.5817 20.6387Z" fill="#999B9D" style="fill:#999B9D;fill:color(display-p3 0.6000 0.6078 0.6157);fill-opacity:1;"/>
<path d="M81.4173 20.6388C82.936 20.6386 84.456 20.6387 85.9773 20.6392C85.9808 20.6392 85.9843 20.6405 85.9868 20.643C85.9893 20.6455 85.9907 20.6488 85.9907 20.6523V22.3195C85.9907 22.3232 85.9893 22.3267 85.9867 22.3293C85.9841 22.3319 85.9806 22.3334 85.9769 22.3334H82.2864C82.2806 22.3334 82.2751 22.3357 82.271 22.3397C82.2669 22.3437 82.2645 22.3492 82.2645 22.3549V29.9415C82.2645 29.9525 82.2591 29.9579 82.2481 29.9579C81.9736 29.9584 81.6968 29.9587 81.4176 29.9587C81.1387 29.9587 80.8619 29.9586 80.5871 29.9583C80.5762 29.9581 80.5707 29.9525 80.5707 29.9415L80.57 22.3549C80.57 22.3492 80.5676 22.3437 80.5635 22.3397C80.5594 22.3357 80.5539 22.3334 80.5481 22.3334L76.8576 22.3337C76.8539 22.3337 76.8504 22.3323 76.8478 22.3297C76.8452 22.3271 76.8438 22.3236 76.8438 22.3199V20.6527C76.8437 20.6492 76.8451 20.6459 76.8476 20.6435C76.85 20.641 76.8534 20.6396 76.8569 20.6395C78.3781 20.639 79.8982 20.6388 81.4173 20.6388Z" fill="#999B9D" style="fill:#999B9D;fill:color(display-p3 0.6000 0.6078 0.6157);fill-opacity:1;"/>
<path d="M94.3555 27.687C94.3555 27.6861 94.3553 27.6852 94.355 27.6844C94.3547 27.6837 94.3542 27.6829 94.3536 27.6823C94.353 27.6817 94.3522 27.6812 94.3514 27.6809C94.3506 27.6806 94.3498 27.6804 94.3489 27.6804L88.4332 27.6782C88.4307 27.6782 88.4283 27.6792 88.4265 27.6811C88.4247 27.6829 88.4237 27.6854 88.4237 27.6881L88.4226 29.9454C88.4226 29.9476 88.4222 29.9498 88.4214 29.9519C88.4205 29.9539 88.4193 29.9558 88.4178 29.9573C88.4163 29.9589 88.4145 29.9601 88.4125 29.9609C88.4105 29.9618 88.4084 29.9622 88.4062 29.9622L86.7426 29.9615C86.7405 29.9615 86.7384 29.9611 86.7365 29.9602C86.7345 29.9594 86.7328 29.9582 86.7313 29.9567C86.7298 29.9552 86.7286 29.9534 86.7278 29.9514C86.727 29.9494 86.7266 29.9472 86.7266 29.9451C86.7278 28.8073 86.7285 27.2268 86.7288 25.2034C86.729 24.5773 86.8509 23.9698 87.0946 23.3808C87.7369 21.827 89.1645 20.832 90.823 20.6642C90.9779 20.6484 91.2207 20.6403 91.5514 20.6398C92.7752 20.6381 93.9991 20.6383 95.2232 20.6405C95.5785 20.6409 95.8885 20.875 96.0008 21.1931C96.0361 21.2933 96.0537 21.4534 96.0537 21.6735C96.0525 24.4326 96.0514 27.1914 96.0505 29.9498C96.0505 29.9537 96.049 29.9574 96.0463 29.9601C96.0436 29.9629 96.04 29.9644 96.0362 29.9644L94.3726 29.9637C94.3607 29.9637 94.3548 29.9577 94.3548 29.9458L94.3555 27.687ZM94.3562 22.3577C94.3562 22.3517 94.3539 22.3459 94.3496 22.3416C94.3454 22.3373 94.3396 22.3348 94.3336 22.3347C93.5032 22.3321 92.5396 22.333 91.4427 22.3377C90.8584 22.3401 90.3123 22.4765 89.8046 22.7469C88.9566 23.1985 88.4755 24.064 88.4336 25.0134C88.4214 25.2879 88.4186 25.5988 88.4252 25.9461C88.4253 25.9548 88.4288 25.9631 88.4351 25.9693C88.4414 25.9754 88.4499 25.9789 88.4587 25.9789H94.334C94.3399 25.9789 94.3455 25.9765 94.3497 25.9724C94.3539 25.9682 94.3562 25.9625 94.3562 25.9566V22.3577Z" fill="#999B9D" style="fill:#999B9D;fill:color(display-p3 0.6000 0.6078 0.6157);fill-opacity:1;"/>
<path d="M99.7238 28.2643H106.546C106.552 28.2643 106.557 28.2665 106.561 28.2704C106.565 28.2743 106.567 28.2796 106.567 28.2851V29.9363C106.567 29.9511 106.56 29.9586 106.545 29.9586C104.375 29.9586 101.865 29.9586 99.014 29.9586C98.8046 29.9586 98.6612 29.9469 98.5836 29.9235C98.3173 29.8429 98.1014 29.6131 98.0295 29.3436C98.0099 29.2699 98 29.1474 98 28.9759C98 26.6112 98 23.8389 98 20.6591C98 20.6537 98.0022 20.6485 98.006 20.6447C98.0098 20.6408 98.015 20.6387 98.0204 20.6387H99.6815C99.6855 20.6387 99.6894 20.6403 99.6923 20.6432C99.6952 20.646 99.6968 20.6499 99.6968 20.654V28.2373C99.6968 28.2445 99.6996 28.2514 99.7047 28.2564C99.7097 28.2615 99.7166 28.2643 99.7238 28.2643Z" fill="#999B9D" style="fill:#999B9D;fill:color(display-p3 0.6000 0.6078 0.6157);fill-opacity:1;"/>
<path d="M18.2831 29.1977C17.9556 29.0872 17.5168 28.9329 17.3512 28.8793C17.0755 28.79 16.9044 28.6375 16.8836 28.3563C16.8782 28.2807 16.9003 28.176 16.9496 28.0422C17.1937 27.3811 17.366 26.6584 17.4665 25.8742C17.5669 25.092 17.5956 24.3524 17.5525 23.6555C17.5435 23.5103 17.5523 23.4014 17.5788 23.3287C17.7316 22.9111 18.2561 22.8439 18.5341 23.1846C18.5805 23.2418 18.6436 23.3804 18.7234 23.6004C18.9354 24.186 19.0785 24.7652 19.1527 25.3381C19.3022 26.4943 19.2809 27.6455 19.0888 28.7918C19.0432 29.0624 18.8134 29.2649 18.5359 29.2576C18.4804 29.2561 18.3962 29.2362 18.2831 29.1977Z" fill="#999B9D" style="fill:#999B9D;fill:color(display-p3 0.6000 0.6078 0.6157);fill-opacity:1;"/>
</g>
<defs>
<clipPath id="clip0_5889_905">
<rect width="116.024" height="36" fill="white" style="fill:white;fill-opacity:1;"/>
</clipPath>
</defs>
</svg>
