<svg width="90" height="36" viewBox="0 0 90 36" fill="none" xmlns="http://www.w3.org/2000/svg">
<g clip-path="url(#clip0_2380_1650)">
<path d="M17.7862 30.4139L19.0687 30.0483C19.3949 29.9545 19.5055 30.0689 19.4005 30.3914C17.5499 35.9939 11.0868 36.9726 6.32803 34.5314C6.14803 34.4376 5.96053 34.4189 5.76553 34.4751L3.62241 35.0883C3.41991 35.1483 3.23803 35.1108 3.07678 34.9758C0.658033 32.9958 -0.395716 30.247 -0.0844664 26.7295C-0.0657164 26.512 0.0524081 26.4033 0.269908 26.4033H4.78116C4.83164 26.4032 4.8816 26.4134 4.9279 26.4332C4.9742 26.4531 5.01584 26.4821 5.05018 26.5186C5.08453 26.5551 5.11084 26.5981 5.12747 26.6451C5.1441 26.692 5.15067 26.7418 5.14678 26.7914C4.94428 29.7051 5.89116 31.3289 7.98741 31.6626C10.8262 32.1089 12.3505 30.937 12.5605 28.147C12.718 26.0264 13.0499 22.3983 10.7212 21.3633C8.98116 20.587 7.18866 19.8183 5.34366 19.057C2.85366 18.0295 1.29928 16.3158 0.680533 13.9158C-0.832592 8.08263 0.742408 1.26513 7.45303 0.0951319C9.79678 -0.313618 11.9624 0.11951 13.9499 1.39451C17.0812 3.40826 18.3468 6.47013 17.7468 10.5801C17.7318 10.6776 17.6774 10.7264 17.5837 10.7264H12.7068C12.6093 10.7264 12.5643 10.6776 12.5718 10.5801C12.6955 8.91513 12.4705 6.61451 10.8955 5.69763C9.86053 5.09763 8.74678 5.01513 7.55428 5.45013C5.94553 6.03513 5.56866 7.52576 5.41678 9.21326C5.23116 11.3733 5.39991 13.4939 7.56553 14.3826C11.1093 15.8339 13.1137 16.6626 13.5787 16.8689C18.478 19.0233 18.1799 25.6045 17.5162 30.1776C17.4862 30.3951 17.5762 30.4739 17.7862 30.4139Z" fill="#999B9D"/>
<path d="M79.549 11.9469C79.8677 11.9769 80.3684 11.8119 81.0509 11.4519C81.1019 11.4243 81.1592 11.4107 81.2171 11.4122C81.2751 11.4137 81.3316 11.4304 81.3811 11.4605C81.4306 11.4907 81.4713 11.5333 81.4992 11.584C81.5272 11.6348 81.5413 11.692 81.5402 11.75C81.514 14.6712 81.514 18.4362 81.5402 23.045C81.559 26.5737 81.379 28.9194 81.0002 30.0819C78.2102 38.6656 64.4121 37.1356 64.0465 27.8487C63.9377 25.01 63.9284 21.5619 64.0184 17.5044C64.0195 17.4546 64.0088 17.4053 63.9871 17.3603C63.9655 17.3154 63.9334 17.2761 63.8936 17.2456C63.8538 17.215 63.8072 17.194 63.7576 17.1843C63.7079 17.1745 63.6567 17.1762 63.6077 17.1894L61.9652 17.6619C61.9232 17.6732 61.8792 17.6746 61.8365 17.666C61.7938 17.6574 61.7538 17.639 61.7194 17.6123C61.6851 17.5856 61.6574 17.5513 61.6386 17.512C61.6197 17.4728 61.6102 17.4297 61.6109 17.3862C61.6259 16.1787 61.6371 13.5312 61.6446 9.44373C61.6521 3.92748 64.3296 0.781235 69.6771 0.00498489C72.5459 -0.40564 76.1571 1.20873 77.794 3.80748C79.3971 6.34436 79.1609 8.69561 79.2227 11.5981C79.2265 11.8119 79.3352 11.9281 79.549 11.9469ZM73.969 13.7469C73.9427 11.2981 73.9371 9.81124 73.9521 9.28624C74.0309 6.58249 72.7784 5.21749 70.1946 5.19124C67.8602 5.16874 66.8815 6.96311 66.8815 9.27498C66.8815 12.71 66.8834 14.7669 66.8871 15.4456C66.8866 15.4864 66.8959 15.5267 66.9143 15.5631C66.9327 15.5994 66.9596 15.6308 66.9928 15.6546C67.0259 15.6783 67.0643 15.6937 67.1047 15.6995C67.145 15.7052 67.1862 15.7011 67.2246 15.6875L68.7715 15.1475C68.8209 15.1307 68.8736 15.126 68.9253 15.1338C68.9769 15.1416 69.0261 15.1617 69.0689 15.1924C69.1116 15.2231 69.1467 15.2635 69.1712 15.3104C69.1958 15.3574 69.2092 15.4095 69.2102 15.4625C69.2215 18.9087 69.2215 22.3925 69.2102 25.9137C69.2065 27.3462 69.3471 28.325 69.6321 28.85C70.6952 30.7962 73.5696 31.1 75.1446 29.7331C75.8946 29.0806 76.2734 28.1112 76.2809 26.825C76.2921 24.845 76.2977 20.51 76.2977 13.82C76.2983 13.7637 76.2853 13.7081 76.2598 13.658C76.2342 13.6078 76.1969 13.5646 76.1511 13.532C76.1052 13.4994 76.0521 13.4784 75.9964 13.4707C75.9406 13.4631 75.8838 13.469 75.8309 13.4881L74.3402 14.0056C74.0965 14.0881 73.9727 14.0019 73.969 13.7469Z" fill="#999B9D"/>
<path d="M45.9675 15.2491C45.9675 14.6829 45.8738 14.6679 45.6863 15.2041L43.1944 22.4098C43.1779 22.4576 43.1753 22.5091 43.1867 22.5584C43.198 22.6076 43.223 22.6527 43.2588 22.6885C43.2946 22.7242 43.3397 22.7492 43.3889 22.7606C43.4382 22.772 43.4897 22.7693 43.5375 22.7529L44.4713 22.4323C45.045 22.2335 45.2325 22.421 45.0338 22.9948L43.0425 28.7548C43.0178 28.8271 42.9715 28.8899 42.9099 28.9343C42.8484 28.9787 42.7747 29.0025 42.6994 29.0023H40.77C40.5413 29.0023 40.3875 28.8879 40.3088 28.6591L39.0038 24.9073C38.9861 24.8549 38.9581 24.8066 38.9216 24.7651C38.885 24.7237 38.8406 24.69 38.7908 24.6659C38.7411 24.6418 38.687 24.6278 38.6319 24.6249C38.5767 24.6219 38.5214 24.6299 38.4694 24.6485L36.8831 25.1998C36.8403 25.2148 36.7949 25.2212 36.7496 25.2186C36.7043 25.216 36.6599 25.2044 36.6191 25.1845C36.5783 25.1646 36.5419 25.1368 36.5119 25.1028C36.4819 25.0687 36.4589 25.029 36.4444 24.986L33.03 15.1648C32.8838 14.741 32.8106 14.7541 32.8106 15.2041V25.5823C32.8106 25.8523 32.9381 25.9423 33.1931 25.8523L34.74 25.3179C34.7851 25.3016 34.8334 25.2964 34.881 25.3028C34.9285 25.3092 34.9737 25.3269 35.0129 25.3545C35.0521 25.3821 35.0841 25.4188 35.1061 25.4614C35.1281 25.5039 35.1395 25.5512 35.1394 25.5991V35.1166C35.1394 35.3641 35.0175 35.4879 34.7738 35.4879H30.2625C30.1641 35.4879 30.0696 35.4488 30 35.3792C29.9304 35.3095 29.8913 35.2151 29.8913 35.1166V27.7029C29.8908 27.6436 29.8763 27.5853 29.8491 27.5327C29.8219 27.4801 29.7826 27.4349 29.7347 27.4007C29.6868 27.3666 29.6316 27.3445 29.5737 27.3364C29.5158 27.3283 29.4569 27.3344 29.4019 27.3541L27.9113 27.8716C27.6713 27.9541 27.5513 27.8679 27.5513 27.6129V0.708518C27.5513 0.423518 27.6938 0.281017 27.9788 0.281017H32.1919C32.3185 0.280908 32.4421 0.320317 32.5459 0.393837C32.6496 0.467357 32.7283 0.571386 32.7713 0.691644L39.1894 19.1641C39.3131 19.5279 39.4388 19.5279 39.5663 19.1641L45.9113 0.809768C45.9641 0.654196 46.0646 0.519037 46.1988 0.423217C46.3329 0.327396 46.494 0.275708 46.6594 0.275391H50.895C50.9696 0.275391 51.0411 0.304429 51.0939 0.356119C51.1466 0.407808 51.1763 0.477918 51.1763 0.551019V20.0585C51.1763 20.3473 51.3131 20.4448 51.5869 20.351L53.1338 19.811C53.3963 19.721 53.5275 19.8148 53.5275 20.0923V35.1279C53.5275 35.3604 53.4113 35.4766 53.1788 35.4766H48.6281C48.3956 35.4766 48.2794 35.3604 48.2794 35.1279V22.3479C48.2797 22.265 48.2588 22.1834 48.2185 22.1109C48.1782 22.0384 48.12 21.9775 48.0494 21.934C47.9788 21.8905 47.8982 21.8659 47.8153 21.8626C47.7325 21.8592 47.6502 21.8772 47.5763 21.9148C47.0625 22.1773 46.62 22.316 46.2488 22.331C46.0613 22.3385 45.9675 22.2485 45.9675 22.061V15.2491Z" fill="#999B9D"/>
<path d="M90.0115 8.75246L86.9852 14.0006C86.9659 14.0341 86.9371 14.0612 86.9024 14.0785C86.8677 14.0957 86.8287 14.1023 86.7903 14.0975C86.7519 14.0927 86.7157 14.0767 86.6864 14.0514C86.657 14.0262 86.6357 13.9929 86.6252 13.9556L84.2346 5.57997C84.2239 5.54235 84.2246 5.50238 84.2367 5.46518C84.2488 5.42797 84.2716 5.3952 84.3024 5.37106C84.3332 5.34692 84.3705 5.3325 84.4095 5.32963C84.4485 5.32676 84.4875 5.33558 84.5215 5.35496L89.944 8.48809C89.9872 8.5149 90.0184 8.55741 90.0309 8.60669C90.0435 8.65597 90.0366 8.70821 90.0115 8.75246Z" fill="#999B9D"/>
</g>
<defs>
<clipPath id="clip0_2380_1650">
<rect width="90" height="36" fill="white"/>
</clipPath>
</defs>
</svg>
