<svg width="59" height="36" viewBox="0 0 59 36" fill="none" xmlns="http://www.w3.org/2000/svg">
<g clip-path="url(#clip0_2380_1631)">
<path d="M10.049 0.0537109C10.0614 0.0537109 10.0731 0.0557797 10.0842 0.0599176C10.0966 0.0640555 10.1062 0.0709517 10.1131 0.0806069C11.3876 1.6013 12.389 3.59371 12.389 5.61923C12.389 7.64475 11.3855 9.63509 10.1111 11.1558C10.1042 11.1654 10.0945 11.1723 10.0821 11.1765C10.0711 11.1806 10.0593 11.1827 10.0469 11.1827C10.0359 11.1827 10.0242 11.1806 10.0117 11.1765C10.0007 11.1723 9.99105 11.1654 9.98278 11.1558C8.70829 9.63509 7.70898 7.64267 7.70898 5.61716C7.70898 3.59164 8.71036 1.6013 9.98485 0.0806069C9.99312 0.0709517 10.0028 0.0640555 10.0138 0.0599176C10.0262 0.0557797 10.0379 0.0537109 10.049 0.0537109Z" fill="#999B9D"/>
<path d="M8.69357 10.957C8.83702 11.1722 8.79495 11.2184 8.56736 11.0956C4.89081 9.12598 3.59977 5.86115 4.29702 1.8846C4.29921 1.8716 4.30428 1.85924 4.31182 1.84847C4.31936 1.83769 4.32919 1.82877 4.34055 1.82239C4.35192 1.81601 4.36452 1.81234 4.37741 1.81164C4.3903 1.81095 4.40314 1.81326 4.41495 1.81839C5.43012 2.23357 6.37839 2.79701 7.25977 3.50874C7.3111 3.55013 7.3488 3.606 7.36798 3.66909C7.38717 3.73217 7.38695 3.79957 7.36736 3.86253C6.6184 6.28736 7.30529 8.87564 8.69357 10.957Z" fill="#999B9D"/>
<path d="M11.4167 10.9535C12.7988 8.87009 13.4794 6.28181 12.7263 3.85905C12.707 3.79661 12.7069 3.72973 12.7261 3.66703C12.7453 3.60433 12.7828 3.54871 12.8339 3.50733C13.7139 2.79423 14.6608 2.2294 15.6746 1.81285C15.6862 1.8081 15.6987 1.80603 15.7112 1.8068C15.7237 1.80756 15.7359 1.81113 15.747 1.81726C15.7581 1.82339 15.7677 1.83192 15.7752 1.84225C15.7827 1.85257 15.788 1.86443 15.7905 1.87698C16.496 5.8494 15.2132 9.11423 11.5429 11.0922C11.3153 11.2163 11.2732 11.1701 11.4167 10.9535Z" fill="#999B9D"/>
<path d="M28.8539 31.4878H44.6794C44.7497 31.4878 44.7849 31.5237 44.7849 31.5954V35.7975C44.7849 35.8238 44.7744 35.8491 44.7558 35.8677C44.7372 35.8863 44.7119 35.8968 44.6856 35.8968H23.1684C23.0939 35.8968 23.0566 35.8596 23.0566 35.7851C23.0994 32.4761 24.0663 29.4602 25.9573 26.7375C28.3511 23.2906 32.0463 21.0561 35.727 18.863C36.567 18.3609 37.3856 17.7658 38.1828 17.0775C39.5691 15.8789 40.087 14.4113 39.7366 12.6747C39.3373 10.7071 37.5394 9.86507 35.5884 9.66645C32.2325 9.32576 29.3035 10.2858 26.8015 12.5465C26.7889 12.558 26.7741 12.5668 26.758 12.5724C26.7419 12.578 26.7248 12.5803 26.7078 12.5792C26.6908 12.578 26.6742 12.5734 26.659 12.5657C26.6438 12.5579 26.6303 12.5471 26.6194 12.534L23.8884 9.26507C23.8629 9.23475 23.8504 9.19564 23.8535 9.15617C23.8566 9.1167 23.875 9.08002 23.9049 9.05404C27.6415 5.77404 32.007 4.50714 37.0015 5.25335C40.7939 5.82025 43.9097 7.89128 44.3856 11.9878C44.7622 15.2299 43.978 17.9796 41.3442 20.1354C40.4628 20.8568 39.6546 21.4437 38.9194 21.8961C36.0125 23.6816 33.8628 24.9023 31.6139 26.8016C30.1711 28.0196 29.2097 29.5285 28.7297 31.3285C28.725 31.3474 28.7247 31.3671 28.7287 31.3861C28.7328 31.4052 28.7411 31.423 28.753 31.4384C28.765 31.4537 28.7803 31.4662 28.7978 31.4747C28.8152 31.4833 28.8344 31.4878 28.8539 31.4878Z" fill="#999B9D"/>
<path d="M53.9422 12.6326H48.7946C48.7683 12.6326 48.743 12.6222 48.7244 12.6036C48.7058 12.5849 48.6953 12.5597 48.6953 12.5333V9.57677C48.6953 9.50781 48.7298 9.46988 48.7988 9.46298C50.3781 9.30022 51.7057 8.94712 52.7815 8.40367C53.8519 7.86436 54.5574 6.94022 54.8981 5.63126C54.9174 5.55677 54.965 5.51953 55.0408 5.51953H58.5519C58.5689 5.51953 58.5852 5.52629 58.5972 5.53832C58.6092 5.55035 58.616 5.56666 58.616 5.58367V35.7885C58.616 35.8616 58.5795 35.8982 58.5064 35.8982H54.2215C54.1837 35.8982 54.1473 35.8829 54.1206 35.8557C54.0938 35.8286 54.0788 35.7917 54.0788 35.7533V12.7692C54.0788 12.6782 54.0332 12.6326 53.9422 12.6326Z" fill="#999B9D"/>
<path d="M3.71361 6.25704C4.35706 8.73773 6.32051 10.5977 8.61706 11.6508C8.8543 11.7598 8.84258 11.8219 8.58189 11.837C4.37775 12.0936 1.53706 9.9729 0.0267139 6.1867C0.0219006 6.17465 0.0198441 6.16169 0.0206951 6.14875C0.0215461 6.13581 0.0252828 6.12322 0.0316317 6.11191C0.0379806 6.1006 0.0467804 6.09086 0.0573856 6.08339C0.0679909 6.07593 0.0801329 6.07093 0.0929207 6.06877C1.18533 5.8867 2.29913 5.86739 3.4343 6.01084C3.5003 6.01942 3.56219 6.04746 3.61198 6.09135C3.66176 6.13523 3.69716 6.19295 3.71361 6.25704Z" fill="#999B9D"/>
<path d="M11.5615 11.6274C13.8312 10.5764 15.7698 8.72879 16.3988 6.27086C16.4147 6.207 16.4495 6.1494 16.4986 6.10551C16.5476 6.06162 16.6087 6.03345 16.6739 6.02466C17.7967 5.87983 18.8995 5.89569 19.9822 6.07224C19.9947 6.07409 20.0066 6.07877 20.0171 6.08595C20.0275 6.09312 20.0362 6.10261 20.0426 6.11372C20.0489 6.12482 20.0527 6.13726 20.0538 6.15013C20.0548 6.163 20.0529 6.17598 20.0484 6.18811C18.565 9.94121 15.7595 12.0516 11.5967 11.8116C11.3388 11.7978 11.327 11.7364 11.5615 11.6274Z" fill="#999B9D"/>
<path d="M14.8964 19.4541C14.9056 19.4358 14.9099 19.4154 14.909 19.395C14.9081 19.3745 14.902 19.3546 14.8912 19.3372C14.8804 19.3197 14.8653 19.3054 14.8474 19.2954C14.8295 19.2855 14.8093 19.2803 14.7888 19.2803H14.1785C14.1123 19.2803 14.0681 19.2493 14.0461 19.1872C13.7647 18.3948 13.535 17.0955 14.793 17.0976C15.3874 17.099 16.9833 17.0996 19.5806 17.0996C19.6089 17.0997 19.6365 17.108 19.6601 17.1234C19.6836 17.1389 19.702 17.1608 19.713 17.1865C19.9654 17.7617 20.2054 19.0238 19.3012 19.2224C19.2309 19.2376 18.953 19.279 18.4674 19.3465C18.3847 19.3576 18.3199 19.3976 18.273 19.4665L13.5578 26.3272C13.5054 26.4045 13.504 26.4817 13.5537 26.559C14.8861 28.65 16.2433 30.6665 17.6254 32.6086C18.2199 33.4445 18.9088 33.8872 19.6923 33.9369C19.7723 33.941 19.8288 33.9796 19.8619 34.0527C20.253 34.8927 20.0171 35.7824 18.9164 35.8465C17.9343 35.9045 16.8543 35.9024 15.6764 35.8403C14.9895 35.8031 14.555 35.4307 14.1785 34.8307C13.0943 33.0996 11.7709 30.9169 10.2081 28.2824C10.1997 28.2679 10.1878 28.2558 10.1733 28.2472C10.1588 28.2387 10.1424 28.234 10.1254 28.2336C10.1085 28.2332 10.0916 28.237 10.0764 28.2449C10.0612 28.2527 10.0482 28.2642 10.0385 28.2783C8.91503 29.9665 7.68814 31.8865 6.96193 33.7941C6.95561 33.8109 6.95344 33.829 6.95559 33.8469C6.95775 33.8647 6.96418 33.8818 6.97433 33.8966C6.98448 33.9114 6.99806 33.9235 7.01391 33.932C7.02976 33.9405 7.04741 33.945 7.06538 33.9452H8.11848C8.204 33.9452 8.25986 33.9858 8.28607 34.0672C8.44952 34.5431 8.66262 35.8652 7.8371 35.8838C7.24262 35.8962 5.38676 35.9024 2.26952 35.9024C1.91503 35.9038 1.73779 35.7265 1.73779 35.3707V34.5907C1.73779 34.2155 1.92538 34.0141 2.30055 33.9865L3.24193 33.9203C3.30538 33.9162 3.35503 33.8872 3.3909 33.8334L8.47848 26.4286C8.5171 26.3734 8.51848 26.3169 8.48262 26.259C7.20262 24.2052 5.92745 22.2824 4.6571 20.4907C3.96607 19.5141 3.39917 18.999 2.23228 18.9845C2.19958 18.9838 2.16773 18.9744 2.14006 18.9573C2.11239 18.9402 2.08992 18.916 2.07503 18.8872C1.78331 18.3058 1.70883 17.2548 2.63572 17.11C3.73779 16.9376 4.84538 16.879 5.95848 16.9341C7.00538 16.9879 7.83503 17.2196 8.30883 18.2293C9.33917 20.4238 10.4957 22.5203 11.7785 24.519C11.7857 24.5302 11.7955 24.5394 11.8072 24.5459C11.8188 24.5524 11.8319 24.5559 11.8452 24.5561C11.8585 24.5563 11.8716 24.5532 11.8835 24.5471C11.8953 24.541 11.9054 24.532 11.913 24.521C13.0592 22.8507 14.0537 21.1617 14.8964 19.4541Z" fill="#999B9D"/>
</g>
<defs>
<clipPath id="clip0_2380_1631">
<rect width="58.5517" height="36" fill="white"/>
</clipPath>
</defs>
</svg>
