<svg width="68" height="36" viewBox="0 0 68 36" fill="none" xmlns="http://www.w3.org/2000/svg">
<g clip-path="url(#clip0_2380_1554)">
<path d="M16.7839 24.0942C16.8046 24.0917 16.8244 24.0848 16.8421 24.0738C16.8598 24.0628 16.8748 24.048 16.8862 24.0306C16.8975 24.0131 16.9049 23.9934 16.9078 23.9728C16.9107 23.9522 16.909 23.9312 16.9029 23.9113C16.5004 22.632 16.2681 21.1958 16.2062 19.6029C16.15 18.1223 16.1394 15.0691 16.1742 10.4433C16.175 10.3473 16.1568 10.2522 16.1207 10.1633C16.0846 10.0744 16.0313 9.99351 15.9639 9.92526C15.8965 9.85702 15.8162 9.80276 15.7277 9.7656C15.6393 9.72845 15.5444 9.70913 15.4484 9.70875C13.9823 9.70004 12.4871 9.78423 11.1517 9.24423C9.13101 8.42262 8.07714 7.00294 7.23811 4.84294C6.53165 3.02165 5.9723 1.5081 5.56004 0.302296C5.55171 0.278233 5.54925 0.252526 5.55287 0.227319C5.55649 0.202112 5.56609 0.178138 5.58087 0.157396C5.59564 0.136655 5.61517 0.119748 5.63781 0.108086C5.66044 0.0964249 5.68554 0.0903486 5.71101 0.090362C6.21617 0.0922975 7.34262 0.0874579 9.09036 0.075845C11.9094 0.0555224 14.0549 0.50262 15.7097 2.74391C16.572 3.91391 17.0655 5.80101 17.5446 6.79972C17.6684 7.05714 17.8368 7.21488 18.0497 7.27294C18.192 7.31236 18.3456 7.29395 18.4815 7.2212C18.6174 7.14845 18.7261 7.0264 18.7871 6.87811C19.2342 5.77778 19.8033 3.97778 20.5407 2.9152C21.8084 1.09197 23.6113 0.158104 25.9494 0.113588C27.5849 0.0806851 29.1904 0.0874614 30.7659 0.133913C30.7787 0.13444 30.7913 0.138026 30.8026 0.144381C30.8138 0.150736 30.8233 0.159675 30.8304 0.170456C30.8375 0.181236 30.842 0.193549 30.8433 0.206378C30.8447 0.219208 30.8431 0.232183 30.8384 0.244233C29.952 2.62294 29.4623 3.94294 29.3694 4.20423C28.7984 5.80488 28.1917 6.95262 27.5491 7.64746C26.3568 8.93649 24.8423 9.61004 23.0055 9.66811C21.7804 9.70682 21.0652 9.73875 20.86 9.76391C20.72 9.7817 20.59 9.83909 20.4888 9.92779C20.3875 10.0165 20.3203 10.1319 20.2968 10.2575C20.2349 10.6 20.2813 11.0694 20.4362 11.6655C21.0613 14.0849 22.4423 15.6236 24.5791 16.2817C25.2759 16.4984 27.072 16.6068 29.9675 16.6068C51.5075 16.6087 62.5262 16.6126 63.0236 16.6184C64.8623 16.6339 66.0981 17.4033 66.731 18.9265C66.9962 19.5633 67.0629 20.3704 66.9313 21.3478C66.2578 26.3258 63.7436 30.1649 59.3888 32.8649C59.081 33.0565 58.1307 33.4862 56.5378 34.1539C53.6839 35.3471 50.9084 35.8087 47.7178 35.8204C39.0758 35.8513 34.2865 35.8717 33.3497 35.8813C29.2523 35.9239 25.5923 34.6397 22.3697 32.0288C22.1549 31.8565 22.1849 31.7704 22.4597 31.7704H45.9439C46.5246 31.7704 46.8497 31.4791 46.9194 30.8965C46.9213 30.8771 46.9223 30.8646 46.9223 30.8587C46.8933 30.2046 46.5536 29.8775 45.9033 29.8775L13.4655 29.8746C13.301 29.8746 13.2033 29.9549 13.1723 30.1155C13.0058 30.9749 12.6246 31.4336 12.0284 31.4917C11.1381 31.5768 10.2275 31.5787 9.29649 31.4975C8.33553 31.4162 8.01907 30.8994 7.98714 29.9558C7.94649 28.8139 7.94843 28.0146 7.99294 27.5578C8.06262 26.801 8.51069 26.4004 9.33714 26.3558C10.6358 26.2842 11.592 26.3055 12.2055 26.4197C12.79 26.53 13.1055 26.9636 13.152 27.7204C13.1597 27.8655 13.2362 27.9381 13.3813 27.9381L36.6129 27.9468C37.1529 27.9468 37.4704 27.6594 37.5652 27.0846C37.5671 27.071 37.5671 27.0584 37.5652 27.0468C37.4878 26.3907 37.1462 26.0616 36.5404 26.0597L15.2975 26.0481C15.1962 26.0481 15.0961 26.0284 15.0029 25.99C14.9098 25.9517 14.8254 25.8954 14.7546 25.8246L13.1549 24.2249C13.108 24.1771 13.0518 24.1392 12.9894 24.1132C12.9271 24.0873 12.86 24.0739 12.792 24.0739H6.41359C6.3576 24.0739 6.30382 24.0957 6.26369 24.1348C6.22356 24.1738 6.20026 24.227 6.19875 24.2829C6.14649 26.0917 4.16359 25.7636 2.68585 25.7375C1.48101 25.7142 1.03391 25.212 0.981653 24.042C0.937137 23.0007 0.95359 22.2178 1.03101 21.6933C1.15875 20.8049 1.79165 20.5668 2.6452 20.5494C3.10972 20.5397 3.67585 20.5387 4.34359 20.5465C5.44391 20.5552 6.09133 20.77 6.22778 21.9168C6.23488 21.9782 6.2642 22.0348 6.31021 22.076C6.35621 22.1172 6.41571 22.1401 6.47746 22.1404H13.3813C13.5209 22.1404 13.6588 22.1684 13.787 22.2228C13.9152 22.2772 14.031 22.3568 14.1275 22.4568C14.532 22.8788 14.9704 23.322 15.4426 23.7865C15.8113 24.1494 16.3252 24.1523 16.7839 24.0942ZM4.2931 22.6584C4.29429 22.6061 4.27463 22.5554 4.23845 22.5175C4.20228 22.4797 4.15256 22.4578 4.10021 22.4566L3.11338 22.4342C3.06103 22.433 3.01036 22.4526 2.97251 22.4888C2.93466 22.525 2.91273 22.5747 2.91154 22.6271L2.89021 23.5675C2.88902 23.6198 2.90868 23.6705 2.94485 23.7083C2.98103 23.7462 3.03075 23.7681 3.0831 23.7693L4.06993 23.7917C4.12227 23.7929 4.17294 23.7732 4.21079 23.7371C4.24864 23.7009 4.27058 23.6512 4.27176 23.5988L4.2931 22.6584ZM11.2665 28.463C11.2666 28.4356 11.2613 28.4084 11.2509 28.383C11.2405 28.3576 11.2251 28.3345 11.2058 28.315C11.1865 28.2955 11.1635 28.2801 11.1381 28.2695C11.1128 28.2589 11.0857 28.2534 11.0582 28.2533L10.1234 28.25C10.0959 28.2499 10.0687 28.2552 10.0433 28.2657C10.0179 28.2761 9.99482 28.2914 9.97534 28.3107C9.95586 28.3301 9.94038 28.3531 9.92979 28.3784C9.9192 28.4037 9.9137 28.4309 9.9136 28.4583L9.91035 29.3932C9.91026 29.4206 9.91557 29.4478 9.92598 29.4732C9.9364 29.4986 9.95172 29.5217 9.97106 29.5412C9.9904 29.5607 10.0134 29.5761 10.0387 29.5867C10.064 29.5973 10.0912 29.6028 10.1187 29.6029L11.0535 29.6062C11.0809 29.6063 11.1081 29.601 11.1335 29.5905C11.1589 29.5801 11.182 29.5648 11.2015 29.5455C11.221 29.5261 11.2365 29.5031 11.2471 29.4778C11.2577 29.4525 11.2632 29.4253 11.2633 29.3979L11.2665 28.463Z" fill="#999B9D"/>
</g>
<defs>
<clipPath id="clip0_2380_1554">
<rect width="66.1936" height="36" fill="white" transform="translate(0.90332)"/>
</clipPath>
</defs>
</svg>
