<svg width="24" height="36" viewBox="0 0 24 36" fill="none" xmlns="http://www.w3.org/2000/svg">
<g clip-path="url(#clip0_2380_1566)">
<path d="M14.6056 2.88709C15.4339 4.12527 16.062 5.45306 16.4898 6.87046L13.1352 7.3415C12.8594 6.5202 12.4799 5.75111 11.9968 5.03423C11.9119 4.89864 11.8304 4.79579 11.7525 4.72566C11.4661 4.46851 11.0524 4.23007 10.655 4.16111C9.37511 3.94137 8.30095 4.44747 7.35186 5.28786C7.33601 5.30219 7.31531 5.31047 7.29342 5.31124C7.24355 5.31202 7.21394 5.29371 7.20459 5.25631L12.1523 0.0281248C12.1569 0.0232461 12.1626 0.0193644 12.1688 0.0167131C12.175 0.0140618 12.1817 0.0126953 12.1885 0.0126953C12.1953 0.0126953 12.202 0.0140618 12.2082 0.0167131C12.2144 0.0193644 12.22 0.0232461 12.2247 0.0281248C13.0826 0.926566 13.8763 1.87955 14.6056 2.88709Z" fill="#999B9D"/>
<path d="M11.9969 5.03383C10.0427 7.15176 8.07045 9.21474 6.08032 11.2228C5.86292 11.4418 5.50331 11.8598 5.00149 12.477L1.86084 11.1258L2.37513 10.4268C3.53928 8.92487 4.99448 7.63565 6.34214 6.18046C6.62811 5.87111 6.91565 5.56292 7.20474 5.25591C7.21409 5.29331 7.2437 5.31163 7.29357 5.31085C7.31545 5.31008 7.33615 5.3018 7.35201 5.28747C8.3011 4.44708 9.37526 3.94098 10.6551 4.16072C11.0525 4.22968 11.4663 4.46812 11.7527 4.72526C11.8306 4.79539 11.912 4.89825 11.9969 5.03383Z" fill="#999B9D"/>
<path d="M16.4898 6.87012L16.9714 8.9144C17.017 10.1569 17.1093 11.4823 16.8019 12.6734C16.1684 14.591 15.2326 16.3373 13.9944 17.9121C13.5837 18.4341 13.1629 18.9476 12.732 19.4526C11.6731 20.6923 10.8459 22.0665 10.2506 23.5751C9.10983 23.5205 7.98113 23.3725 6.8645 23.1309C7.46528 21.3387 8.34541 19.6899 9.50489 18.1844C10.8759 16.4043 12.5135 14.7901 13.3352 12.5962C13.8214 11.2953 13.8459 9.94765 13.5093 8.61168C13.4018 8.18466 13.2771 7.76116 13.1353 7.34116L16.4898 6.87012Z" fill="#999B9D"/>
<path d="M23.4094 21.0393L20.1425 20.3988C20.3062 19.5604 20.3155 18.7215 20.1706 17.8823C19.7888 15.6693 18.6659 13.9332 16.802 12.674C17.1094 11.483 17.0171 10.1575 16.9715 8.91504C21.3616 11.0154 23.9132 15.1847 23.5625 20.0739C23.5501 20.2461 23.499 20.5679 23.4094 21.0393Z" fill="#999B9D"/>
<path d="M1.86067 11.126L5.00132 12.4771C4.49093 13.1403 4.15664 13.637 3.99846 13.9674C2.94534 16.173 3.20716 18.5948 4.32807 20.7244C3.03145 19.893 1.64638 19.2482 0.172876 18.79C-0.323878 16.0935 0.224304 13.3386 1.86067 11.126Z" fill="#999B9D"/>
<path d="M4.32805 20.7245C4.9561 21.7546 5.76415 22.6098 6.7522 23.29C6.69532 23.6796 6.64155 24.0689 6.5909 24.4577C6.51532 25.0437 6.51025 25.9008 6.57571 27.0291C3.20597 25.436 0.802852 22.4906 0.172852 18.79C1.64636 19.2482 3.03142 19.893 4.32805 20.7245Z" fill="#999B9D"/>
<path d="M23.4093 21.039C23.2145 22.1213 22.8767 23.0603 22.3959 23.8558C21.658 25.0753 20.7908 26.1955 19.7941 27.2162C19.1053 27.9214 18.4169 28.6196 17.7288 29.3108L14.6326 27.7153C15.5996 26.7164 16.5705 25.7225 17.5453 24.7336C17.9544 24.3191 18.4036 23.7756 18.893 23.1031C19.5475 22.2039 19.964 21.3023 20.1424 20.3984L23.4093 21.039Z" fill="#999B9D"/>
<path d="M10.2506 23.575C9.79558 24.6955 9.70636 25.8492 9.98298 27.0359C10.2292 28.0949 10.5935 29.1125 11.0758 30.0889L7.6161 30.5646C7.17584 29.3997 6.82908 28.2211 6.57584 27.0289C6.51038 25.9006 6.51545 25.0435 6.59103 24.4575C6.64168 24.0687 6.69545 23.6794 6.75233 23.2898C6.81155 23.275 6.84896 23.222 6.86454 23.1309C7.98116 23.3724 9.10986 23.5205 10.2506 23.575Z" fill="#999B9D"/>
<path d="M14.6326 27.7158L17.7289 29.3113L16.1135 31.0108C15.9795 30.9804 15.8685 30.9979 15.7804 31.0634C15.0674 31.594 14.1429 31.947 13.2698 31.8605C12.6004 31.795 12.03 31.4993 11.5586 30.9734L14.6326 27.7158Z" fill="#999B9D"/>
<path d="M11.0757 30.0889L11.5584 30.9725C12.0299 31.4985 12.6003 31.7942 13.2696 31.8596C14.1427 31.9461 15.0673 31.5932 15.7803 31.0625C15.8683 30.9971 15.9793 30.9795 16.1134 31.0099L13.5735 33.7169L11.4708 35.9494C11.4636 35.9571 11.4548 35.9632 11.4451 35.9674C11.4354 35.9716 11.425 35.9737 11.4144 35.9736C11.4039 35.9734 11.3934 35.9711 11.3838 35.9668C11.3742 35.9624 11.3656 35.9561 11.3586 35.9482L10.8478 35.386C10.5244 35.0206 10.2084 34.6528 9.89986 34.2826C8.96246 33.159 8.20116 31.9196 7.61597 30.5646L11.0757 30.0889Z" fill="#999B9D"/>
</g>
<defs>
<clipPath id="clip0_2380_1566">
<rect width="23.6104" height="36" fill="white"/>
</clipPath>
</defs>
</svg>
