<svg width="50" height="12" viewBox="0 0 50 12" fill="none" xmlns="http://www.w3.org/2000/svg">
<g clip-path="url(#clip0_638_1577)">
<path fill-rule="evenodd" clip-rule="evenodd" d="M40.7435 3.29802H42.1144V1.92379H40.7435V3.29802ZM33.4564 5.58776C33.719 4.89097 34.389 4.39547 35.1749 4.39547C35.9608 4.39547 36.6327 4.89097 36.8934 5.58776H33.4564ZM35.1749 3.11608C33.4564 3.11608 32.0624 4.51354 32.0624 6.23617C32.0624 7.9588 33.4564 9.35625 35.1749 9.35625C36.3547 9.35625 37.3799 8.69817 37.9071 7.7304L36.7582 7.17103C36.4377 7.71492 35.8488 8.0788 35.1749 8.0788C34.3234 8.0788 33.607 7.49814 33.3985 6.70844H36.9513V6.71037H38.2527C38.2759 6.55553 38.2874 6.39682 38.2874 6.23617C38.2874 4.51354 36.8953 3.11608 35.1749 3.11608ZM38.6504 9.1898H40.0214V7.81557H38.6504V9.1898ZM40.7435 9.1898H42.1144V3.90191H40.7435V9.1898ZM45.9394 8.0788C44.9238 8.0788 44.1013 7.25426 44.1013 6.23617C44.1013 5.21808 44.9238 4.39354 45.9394 4.39354C46.9551 4.39354 47.7776 5.21808 47.7776 6.23617C47.7776 7.25426 46.9551 8.0788 45.9394 8.0788ZM45.9394 3.11608C44.221 3.11608 42.8269 4.51354 42.8269 6.23617C42.8269 7.9588 44.221 9.35625 45.9394 9.35625C47.6579 9.35625 49.052 7.9588 49.052 6.23617C49.052 4.51354 47.6579 3.11608 45.9394 3.11608ZM17.2778 5.08646V6.50714H19.1951C19.0947 6.91361 18.8978 7.27749 18.6139 7.56782C18.1853 8.00718 17.5925 8.24719 16.9437 8.24719C15.596 8.24719 14.4993 7.14781 14.4993 5.79487C14.4993 4.44386 15.596 3.34254 16.9437 3.34254C17.6659 3.34254 18.3301 3.65223 18.7896 4.18644L19.8864 3.28641C19.1584 2.4309 18.0791 1.91992 16.9437 1.91992C14.814 1.91992 13.082 3.65803 13.082 5.79293C13.082 7.92783 14.814 9.66594 16.9437 9.66594C17.9787 9.66594 18.9306 9.29238 19.6276 8.57817C20.2127 7.97815 20.6008 7.142 20.6742 6.30585C20.7108 5.89745 20.7147 5.49099 20.6915 5.08259L17.2778 5.08646ZM24.2598 8.0788C23.2461 8.0788 22.4216 7.25426 22.4216 6.23617C22.4216 5.21808 23.2441 4.39354 24.2598 4.39354C25.2754 4.39354 26.0979 5.21808 26.0979 6.23617C26.0979 7.25426 25.2754 8.0788 24.2598 8.0788ZM26.0979 3.72384C25.5824 3.34448 24.9471 3.12189 24.2598 3.12189C22.5413 3.12189 21.1492 4.51935 21.1492 6.24197C21.1492 7.9646 22.5432 9.36206 24.2598 9.36206C24.9471 9.36206 25.5824 9.13754 26.0979 8.76011V9.19173H27.3723V3.29222H26.0979V3.72384ZM30.1064 1.92379H28.832V3.29802H28.0693V4.50386H28.832V7.65879C28.832 7.98396 28.8726 8.2588 28.9537 8.47365C29.0328 8.68656 29.1564 8.85301 29.3012 8.98269C29.448 9.11431 29.6198 9.21689 29.8245 9.2769C30.033 9.33496 30.2609 9.35819 30.5042 9.35819C30.7552 9.35819 30.9791 9.33303 31.1684 9.28077C31.346 9.23238 31.5159 9.16464 31.6723 9.07947V8.10783C31.4213 8.21622 31.1857 8.25687 30.9174 8.26848C30.6335 8.28203 30.4675 8.20074 30.3284 8.06719C30.1817 7.92783 30.1045 7.74589 30.1045 7.44201V4.50386H31.6723V3.29802H30.1045V1.92379H30.1064Z" fill="white"/>
<path fill-rule="evenodd" clip-rule="evenodd" d="M6.30736 8.59383C4.62945 8.59383 3.26819 7.22928 3.26819 5.5473C3.26819 3.86532 4.62945 2.50077 6.30736 2.50077V0.00585938C3.25468 0.00585938 0.78125 2.48722 0.78125 5.5473C0.78125 8.60738 3.25468 11.0868 6.30736 11.0868C9.35812 11.0868 11.8335 8.60545 11.8335 5.5473H9.34653C9.34653 7.23122 7.98528 8.59383 6.30736 8.59383Z" fill="white"/>
<path fill-rule="evenodd" clip-rule="evenodd" d="M6.30859 5.55044H9.34776V2.50391H6.30859V5.55044Z" fill="white"/>
</g>
<defs>
<clipPath id="clip0_638_1577">
<rect width="48.7826" height="11.087" fill="white" transform="translate(0.783203)"/>
</clipPath>
</defs>
</svg>
