<svg width="43" height="12" viewBox="0 0 43 12" fill="none" xmlns="http://www.w3.org/2000/svg">
<g clip-path="url(#clip0_638_1582)">
<path opacity="0.5" d="M15.6037 7.24966L12.7881 2.36567C12.1708 1.34772 10.6655 1.33689 10.0699 2.40898L7.11356 7.4879C6.56125 8.41921 7.24349 9.58875 8.34809 9.58875H14.2716C15.3871 9.58875 16.2209 8.3867 15.6037 7.24966Z" fill="white"/>
<path d="M11.543 7.62836L11.3698 7.32514C11.2073 7.04357 10.85 6.43713 10.85 6.43713L8.46755 2.30039C7.85028 1.3799 6.38835 1.3041 5.77108 2.46282L2.9988 7.26016C2.42486 8.26727 3.1071 9.5776 4.35246 9.58846H10.2435H12.7559H14.2504C12.7234 9.59928 12.2361 8.80873 11.543 7.62836Z" fill="white"/>
<path d="M11.5418 7.62701L11.3685 7.32383C11.2061 7.04226 10.8487 6.43582 10.8487 6.43582L9.31098 3.72852L7.10181 7.49709C6.54956 8.4284 7.23178 9.59794 8.33638 9.59794H10.2315H12.7438H14.2491C12.7114 9.58712 12.2349 8.80742 11.5418 7.62701Z" fill="white"/>
<path d="M25.1602 9.15374V3.51172H29.8492V3.86908C29.8492 4.15064 29.6218 4.37805 29.3402 4.37805H26.3297V5.89413H29.3402V6.7605H26.3297V8.27655H29.3402C29.6218 8.27655 29.8492 8.50397 29.8492 8.78554V9.14292L25.1602 9.15374Z" fill="white"/>
<path d="M36.5886 3.51172H35.484C35.2782 3.51172 35.0941 3.59835 34.9641 3.76079L33.6322 5.43932L32.3002 3.77162C32.1702 3.60918 31.9861 3.52255 31.7804 3.52255H30.6758L32.9174 6.33814L30.6758 9.15374H31.7804C31.9861 9.15374 32.1702 9.06711 32.3002 8.90468L33.6322 7.23697L34.975 8.9155C35.1049 9.06711 35.2891 9.16456 35.4948 9.16456H36.5994L34.3577 6.34896L36.5886 3.51172Z" fill="white"/>
<path d="M21.4913 8.55919L23.029 5.87355V9.14398H24.1986V3.50195H23.473C23.2456 3.50195 23.029 3.62107 22.9207 3.82683L21.0798 7.18388L19.2388 3.82683C19.1305 3.62107 18.9139 3.50195 18.6865 3.50195H17.9609V9.14398H19.1305V5.87355L20.6682 8.55919H21.4913Z" fill="white"/>
<path d="M39.6399 9.22032C38.0156 9.24196 36.6944 7.9641 36.6836 6.33973C36.6836 5.45174 36.9543 4.71535 37.4633 4.20638C37.9723 3.70823 38.7086 3.4375 39.5858 3.4375C40.6146 3.4375 41.4268 3.79487 42.0115 4.48794L41.6434 4.80198C41.416 4.99691 41.0802 5.00774 40.8312 4.82364C40.5063 4.57457 40.0948 4.45545 39.6291 4.45545C38.4812 4.45545 37.799 5.14852 37.799 6.31808C37.799 7.49845 38.5029 8.22403 39.6291 8.22403C40.1056 8.22403 40.5063 8.09407 40.8312 7.85583C41.0694 7.67171 41.4051 7.68257 41.6434 7.87748L42.0115 8.19152C41.4268 8.87376 40.6471 9.22032 39.6399 9.22032Z" fill="white"/>
</g>
<defs>
<clipPath id="clip0_638_1582">
<rect width="42.1305" height="11.8261" fill="white"/>
</clipPath>
</defs>
</svg>
