<svg width="79" height="14" viewBox="0 0 79 14" fill="none" xmlns="http://www.w3.org/2000/svg">
<path d="M16.3545 11.0234C16.2882 11.0234 16.234 11.0024 16.1918 10.9602C16.1497 10.912 16.1286 10.8578 16.1286 10.7975V4.92442C16.1286 4.85815 16.1497 4.80394 16.1918 4.76177C16.234 4.71961 16.2882 4.69853 16.3545 4.69853H18.8844C19.3844 4.69853 19.8181 4.77683 20.1856 4.93345C20.559 5.08404 20.8482 5.31295 21.053 5.62016C21.2638 5.92737 21.3692 6.3159 21.3692 6.78575C21.3692 7.24957 21.2638 7.63208 21.053 7.93327C20.8482 8.23445 20.559 8.45733 20.1856 8.6019C19.8181 8.74647 19.3844 8.81875 18.8844 8.81875H17.8092V10.7975C17.8092 10.8578 17.7851 10.912 17.7369 10.9602C17.6948 11.0024 17.6405 11.0234 17.5743 11.0234H16.3545ZM17.7821 7.57184H18.8393C19.0983 7.57184 19.3031 7.50558 19.4537 7.37306C19.6103 7.24054 19.6886 7.03874 19.6886 6.76768C19.6886 6.53877 19.6223 6.34601 19.4898 6.1894C19.3573 6.03278 19.1404 5.95447 18.8393 5.95447H17.7821V7.57184ZM23.4478 11.1138C23.1225 11.1138 22.8303 11.0536 22.5713 10.9331C22.3183 10.8066 22.1165 10.6379 21.9659 10.4271C21.8153 10.2163 21.74 9.97832 21.74 9.71328C21.74 9.28559 21.9147 8.94826 22.2641 8.70129C22.6135 8.44829 23.0773 8.27662 23.6556 8.18626L24.785 8.01459V7.88809C24.785 7.67123 24.7399 7.50558 24.6495 7.39113C24.5591 7.27668 24.3935 7.21945 24.1525 7.21945C23.9839 7.21945 23.8453 7.25259 23.7369 7.31885C23.6345 7.38511 23.5532 7.47546 23.4929 7.58991C23.4387 7.66822 23.3634 7.70738 23.2671 7.70738H22.2551C22.1888 7.70738 22.1376 7.68931 22.1015 7.65316C22.0653 7.611 22.0503 7.56281 22.0563 7.50859C22.0563 7.40017 22.0954 7.27668 22.1737 7.13813C22.2581 6.99356 22.3846 6.85201 22.5532 6.71346C22.7219 6.57492 22.9388 6.46047 23.2038 6.37011C23.4688 6.27975 23.7911 6.23458 24.1706 6.23458C24.5561 6.23458 24.8874 6.27975 25.1645 6.37011C25.4416 6.46047 25.6675 6.58696 25.8422 6.7496C26.0169 6.91224 26.1434 7.105 26.2217 7.32788C26.306 7.54474 26.3482 7.78568 26.3482 8.05073V10.7975C26.3482 10.8578 26.3241 10.912 26.2759 10.9602C26.2337 11.0024 26.1825 11.0234 26.1223 11.0234H25.0742C25.0079 11.0234 24.9537 11.0024 24.9115 10.9602C24.8694 10.912 24.8483 10.8578 24.8483 10.7975V10.4813C24.77 10.5958 24.6646 10.7012 24.532 10.7975C24.3995 10.8939 24.2429 10.9692 24.0622 11.0234C23.8875 11.0837 23.6827 11.1138 23.4478 11.1138ZM23.8724 10.0837C24.0471 10.0837 24.2037 10.0476 24.3423 9.97531C24.4869 9.897 24.5983 9.77954 24.6766 9.62292C24.7609 9.46028 24.8031 9.25849 24.8031 9.01754V8.89104L24.0351 9.02657C23.752 9.07476 23.5441 9.15006 23.4116 9.25246C23.2851 9.34884 23.2219 9.46329 23.2219 9.59581C23.2219 9.69822 23.252 9.78556 23.3122 9.85785C23.3725 9.93013 23.4508 9.98736 23.5472 10.0295C23.6496 10.0657 23.758 10.0837 23.8724 10.0837ZM27.5937 11.0234C27.5274 11.0234 27.4732 11.0024 27.431 10.9602C27.3889 10.912 27.3678 10.8578 27.3678 10.7975V6.55082C27.3678 6.48456 27.3889 6.43035 27.431 6.38818C27.4732 6.34601 27.5274 6.32493 27.5937 6.32493H28.6328C28.699 6.32493 28.7533 6.34601 28.7954 6.38818C28.8436 6.43035 28.8677 6.48456 28.8677 6.55082V6.89417C29.0183 6.70744 29.2201 6.55082 29.4731 6.42432C29.7261 6.29782 30.0243 6.23458 30.3676 6.23458C30.717 6.23458 31.0242 6.31288 31.2892 6.4695C31.5603 6.62612 31.7711 6.85502 31.9217 7.15621C32.0784 7.45739 32.1567 7.83086 32.1567 8.27662V10.7975C32.1567 10.8578 32.1356 10.912 32.0934 10.9602C32.0512 11.0024 31.997 11.0234 31.9308 11.0234H30.7923C30.732 11.0234 30.6778 11.0024 30.6296 10.9602C30.5875 10.912 30.5664 10.8578 30.5664 10.7975V8.33083C30.5664 8.04772 30.4971 7.83086 30.3586 7.68027C30.2261 7.52365 30.0273 7.44534 29.7622 7.44534C29.5153 7.44534 29.3165 7.52365 29.1659 7.68027C29.0213 7.83086 28.949 8.04772 28.949 8.33083V10.7975C28.949 10.8578 28.9249 10.912 28.8767 10.9602C28.8346 11.0024 28.7834 11.0234 28.7231 11.0234H27.5937ZM35.3334 11.1138C34.8876 11.1138 34.4931 11.0325 34.1497 10.8698C33.8064 10.7072 33.5323 10.4723 33.3275 10.1651C33.1287 9.85182 33.0203 9.47835 33.0022 9.04464C32.9962 8.94826 32.9932 8.82779 32.9932 8.68322C32.9932 8.53263 32.9962 8.40914 33.0022 8.31276C33.0203 7.87303 33.1287 7.49956 33.3275 7.19235C33.5263 6.87911 33.7973 6.64118 34.1407 6.47854C34.4901 6.3159 34.8876 6.23458 35.3334 6.23458C35.749 6.23458 36.1044 6.29481 36.3996 6.41529C36.7008 6.52974 36.9417 6.67431 37.1224 6.849C37.3092 7.02368 37.4477 7.2044 37.5381 7.39113C37.6344 7.57184 37.6856 7.73147 37.6917 7.87002C37.6977 7.93025 37.6766 7.98447 37.6284 8.03266C37.5802 8.07482 37.526 8.09591 37.4658 8.09591H36.3183C36.252 8.09591 36.2008 8.08085 36.1646 8.05073C36.1285 8.02061 36.0954 7.97543 36.0653 7.9152C35.993 7.72846 35.8996 7.59594 35.7852 7.51763C35.6767 7.43932 35.5352 7.40017 35.3605 7.40017C35.1195 7.40017 34.9328 7.47847 34.8003 7.63509C34.6738 7.79171 34.6045 8.03266 34.5925 8.35794C34.5864 8.59889 34.5864 8.81273 34.5925 8.99947C34.6105 9.33077 34.6828 9.57172 34.8093 9.72231C34.9358 9.87291 35.1195 9.9482 35.3605 9.9482C35.5472 9.9482 35.6948 9.90905 35.8032 9.83074C35.9117 9.74641 35.999 9.61389 36.0653 9.43317C36.0954 9.37294 36.1285 9.32776 36.1646 9.29764C36.2008 9.26752 36.252 9.25246 36.3183 9.25246H37.4658C37.526 9.25246 37.5802 9.27355 37.6284 9.31571C37.6766 9.35788 37.6977 9.41209 37.6917 9.47835C37.6856 9.57473 37.6555 9.69219 37.6013 9.83074C37.5471 9.96929 37.4628 10.1139 37.3483 10.2644C37.2339 10.415 37.0833 10.5536 36.8965 10.6801C36.7158 10.8066 36.496 10.912 36.2369 10.9963C35.9779 11.0746 35.6767 11.1138 35.3334 11.1138ZM39.913 11.1138C39.5877 11.1138 39.2956 11.0536 39.0366 10.9331C38.7836 10.8066 38.5818 10.6379 38.4312 10.4271C38.2806 10.2163 38.2053 9.97832 38.2053 9.71328C38.2053 9.28559 38.38 8.94826 38.7293 8.70129C39.0787 8.44829 39.5425 8.27662 40.1208 8.18626L41.2503 8.01459V7.88809C41.2503 7.67123 41.2051 7.50558 41.1147 7.39113C41.0244 7.27668 40.8587 7.21945 40.6178 7.21945C40.4491 7.21945 40.3106 7.25259 40.2021 7.31885C40.0997 7.38511 40.0184 7.47546 39.9582 7.58991C39.904 7.66822 39.8287 7.70738 39.7323 7.70738H38.7203C38.654 7.70738 38.6028 7.68931 38.5667 7.65316C38.5306 7.611 38.5155 7.56281 38.5215 7.50859C38.5215 7.40017 38.5607 7.27668 38.639 7.13813C38.7233 6.99356 38.8498 6.85201 39.0185 6.71346C39.1871 6.57492 39.404 6.46047 39.669 6.37011C39.9341 6.27975 40.2564 6.23458 40.6359 6.23458C41.0214 6.23458 41.3527 6.27975 41.6298 6.37011C41.9069 6.46047 42.1327 6.58696 42.3074 6.7496C42.4821 6.91224 42.6086 7.105 42.6869 7.32788C42.7713 7.54474 42.8134 7.78568 42.8134 8.05073V10.7975C42.8134 10.8578 42.7893 10.912 42.7411 10.9602C42.699 11.0024 42.6478 11.0234 42.5875 11.0234H41.5394C41.4732 11.0234 41.4189 11.0024 41.3768 10.9602C41.3346 10.912 41.3135 10.8578 41.3135 10.7975V10.4813C41.2352 10.5958 41.1298 10.7012 40.9973 10.7975C40.8648 10.8939 40.7081 10.9692 40.5274 11.0234C40.3527 11.0837 40.1479 11.1138 39.913 11.1138ZM40.3377 10.0837C40.5124 10.0837 40.669 10.0476 40.8075 9.97531C40.9521 9.897 41.0635 9.77954 41.1418 9.62292C41.2262 9.46028 41.2683 9.25849 41.2683 9.01754V8.89104L40.5003 9.02657C40.2172 9.07476 40.0094 9.15006 39.8769 9.25246C39.7504 9.34884 39.6871 9.46329 39.6871 9.59581C39.6871 9.69822 39.7172 9.78556 39.7775 9.85785C39.8377 9.93013 39.916 9.98736 40.0124 10.0295C40.1148 10.0657 40.2232 10.0837 40.3377 10.0837ZM44.0589 11.0234C43.9927 11.0234 43.9385 11.0024 43.8963 10.9602C43.8541 10.912 43.833 10.8578 43.833 10.7975V4.83406C43.833 4.7678 43.8541 4.71358 43.8963 4.67142C43.9385 4.62925 43.9927 4.60817 44.0589 4.60817H45.1071C45.1673 4.60817 45.2185 4.62925 45.2607 4.67142C45.3089 4.71358 45.3329 4.7678 45.3329 4.83406V7.86098L46.5889 6.47854C46.625 6.43637 46.6642 6.40023 46.7064 6.37011C46.7485 6.33999 46.8088 6.32493 46.8871 6.32493H48.0978C48.1521 6.32493 48.1972 6.34601 48.2334 6.38818C48.2755 6.42432 48.2966 6.4695 48.2966 6.52371C48.2966 6.54781 48.2906 6.57492 48.2785 6.60503C48.2725 6.63515 48.2545 6.65925 48.2243 6.67732L46.5979 8.43022L48.4502 10.6801C48.4984 10.7283 48.5225 10.7735 48.5225 10.8156C48.5225 10.8759 48.5014 10.9271 48.4593 10.9692C48.4231 11.0054 48.3749 11.0234 48.3147 11.0234H47.0768C46.9865 11.0234 46.9202 11.0084 46.878 10.9783C46.8359 10.9421 46.7967 10.906 46.7606 10.8698L45.3329 9.15307V10.7975C45.3329 10.8578 45.3089 10.912 45.2607 10.9602C45.2185 11.0024 45.1673 11.0234 45.1071 11.0234H44.0589ZM51.0753 11.1138C50.3645 11.1138 49.7982 10.921 49.3766 10.5355C48.9549 10.15 48.7351 9.57774 48.717 8.81875C48.717 8.77659 48.717 8.72237 48.717 8.65611C48.717 8.58985 48.717 8.53865 48.717 8.50251C48.7351 8.02663 48.8405 7.62003 49.0332 7.2827C49.232 6.93935 49.5031 6.68033 49.8464 6.50564C50.1958 6.32493 50.6024 6.23458 51.0662 6.23458C51.5963 6.23458 52.033 6.33999 52.3764 6.55082C52.7258 6.76165 52.9878 7.04778 53.1625 7.4092C53.3372 7.77063 53.4245 8.18325 53.4245 8.64708V8.86393C53.4245 8.93019 53.4034 8.98441 53.3613 9.02657C53.3191 9.06874 53.2649 9.08982 53.1986 9.08982H50.3073C50.3073 9.09585 50.3073 9.10488 50.3073 9.11693C50.3073 9.12898 50.3073 9.14102 50.3073 9.15307C50.3133 9.32776 50.3434 9.48739 50.3976 9.63196C50.4578 9.77653 50.5422 9.89098 50.6506 9.97531C50.7651 10.0596 50.9036 10.1018 51.0662 10.1018C51.1867 10.1018 51.2861 10.0837 51.3644 10.0476C51.4487 10.0054 51.518 9.96025 51.5722 9.91206C51.6264 9.85785 51.6686 9.81267 51.6987 9.77653C51.7529 9.71027 51.7951 9.67111 51.8252 9.65906C51.8614 9.64099 51.9156 9.63196 51.9879 9.63196H53.1083C53.1685 9.63196 53.2167 9.65003 53.2529 9.68617C53.295 9.72231 53.3131 9.7705 53.3071 9.83074C53.301 9.93314 53.2498 10.0566 53.1535 10.2012C53.0571 10.3458 52.9155 10.4903 52.7288 10.6349C52.5481 10.7735 52.3192 10.8879 52.0421 10.9783C51.765 11.0686 51.4427 11.1138 51.0753 11.1138ZM50.3073 8.1953H51.8343V8.17723C51.8343 7.97844 51.8041 7.80978 51.7439 7.67123C51.6897 7.52666 51.6024 7.41523 51.4819 7.33692C51.3674 7.25861 51.2289 7.21945 51.0662 7.21945C50.9096 7.21945 50.7741 7.25861 50.6596 7.33692C50.5452 7.41523 50.4578 7.52666 50.3976 7.67123C50.3374 7.80978 50.3073 7.97844 50.3073 8.17723V8.1953ZM56.7293 11.1138C56.1269 11.1138 55.627 11.0295 55.2294 10.8608C54.8318 10.6861 54.5306 10.4602 54.3258 10.1831C54.121 9.90604 54.0126 9.61087 54.0005 9.29764C54.0005 9.24945 54.0186 9.20728 54.0548 9.17114C54.0969 9.12898 54.1451 9.10789 54.1993 9.10789H55.3378C55.4221 9.10789 55.4854 9.12295 55.5276 9.15307C55.5758 9.18319 55.6179 9.22234 55.6541 9.27053C55.7022 9.36089 55.7685 9.44823 55.8528 9.53257C55.9432 9.6169 56.0607 9.68617 56.2052 9.74038C56.3498 9.78857 56.5245 9.81267 56.7293 9.81267C57.0787 9.81267 57.3407 9.75846 57.5154 9.65003C57.6961 9.5416 57.7865 9.39402 57.7865 9.20728C57.7865 9.06874 57.7383 8.9573 57.6419 8.87297C57.5455 8.78864 57.3889 8.71334 57.172 8.64708C56.9612 8.57479 56.6781 8.50251 56.3227 8.43022C55.8649 8.33384 55.4733 8.21036 55.1481 8.05976C54.8288 7.90315 54.5848 7.70135 54.4162 7.45438C54.2475 7.20138 54.1632 6.88815 54.1632 6.51468C54.1632 6.14723 54.2656 5.81894 54.4704 5.5298C54.6812 5.24066 54.9734 5.01477 55.3468 4.85213C55.7203 4.68949 56.1631 4.60817 56.6751 4.60817C57.0907 4.60817 57.4552 4.66238 57.7684 4.77081C58.0876 4.87924 58.3557 5.02381 58.5726 5.20452C58.7894 5.38523 58.952 5.57799 59.0605 5.7828C59.1749 5.98158 59.2352 6.17735 59.2412 6.37011C59.2412 6.4183 59.2231 6.46348 59.187 6.50564C59.1569 6.54179 59.1117 6.55986 59.0514 6.55986H57.8587C57.7925 6.55986 57.7353 6.54781 57.6871 6.52371C57.6389 6.49962 57.5967 6.46047 57.5606 6.40625C57.5244 6.27373 57.428 6.15928 57.2714 6.0629C57.1208 5.9605 56.9221 5.90929 56.6751 5.90929C56.41 5.90929 56.2022 5.95748 56.0516 6.05386C55.9071 6.14422 55.8348 6.28578 55.8348 6.47854C55.8348 6.59901 55.8739 6.70443 55.9522 6.79478C56.0366 6.88514 56.1721 6.96345 56.3588 7.02971C56.5516 7.09597 56.8136 7.16524 57.1449 7.23753C57.6931 7.33993 58.1358 7.46944 58.4732 7.62606C58.8105 7.77665 59.0575 7.97543 59.2141 8.22241C59.3767 8.46335 59.458 8.76755 59.458 9.135C59.458 9.54461 59.3406 9.897 59.1057 10.1922C58.8707 10.4873 58.5485 10.7162 58.1388 10.8789C57.7353 11.0355 57.2654 11.1138 56.7293 11.1138ZM61.5731 11.0234C61.4828 11.0234 61.4165 11.0024 61.3744 10.9602C61.3322 10.912 61.2991 10.8578 61.275 10.7975L59.9738 6.61407C59.9618 6.58395 59.9558 6.55383 59.9558 6.52371C59.9558 6.4695 59.9769 6.42432 60.019 6.38818C60.0612 6.34601 60.1094 6.32493 60.1636 6.32493H61.0943C61.1726 6.32493 61.2328 6.34601 61.275 6.38818C61.3232 6.43035 61.3533 6.47251 61.3653 6.51468L62.1243 9.09886L62.9375 6.52371C62.9496 6.48155 62.9767 6.43938 63.0188 6.39722C63.067 6.34903 63.1333 6.32493 63.2176 6.32493H63.814C63.8983 6.32493 63.9646 6.34903 64.0128 6.39722C64.0609 6.43938 64.0881 6.48155 64.0941 6.52371L64.9073 9.09886L65.6663 6.51468C65.6783 6.47251 65.7054 6.43035 65.7476 6.38818C65.7958 6.34601 65.859 6.32493 65.9373 6.32493H66.868C66.9222 6.32493 66.9704 6.34601 67.0126 6.38818C67.0547 6.42432 67.0758 6.4695 67.0758 6.52371C67.0758 6.55383 67.0698 6.58395 67.0577 6.61407L65.7566 10.7975C65.7386 10.8578 65.7054 10.912 65.6572 10.9602C65.6151 11.0024 65.5488 11.0234 65.4584 11.0234H64.6452C64.5609 11.0234 64.4947 11.0024 64.4465 10.9602C64.3983 10.912 64.3651 10.8578 64.3471 10.7975L63.5158 8.3218L62.6845 10.7975C62.6665 10.8578 62.6333 10.912 62.5851 10.9602C62.5369 11.0024 62.4707 11.0234 62.3863 11.0234H61.5731ZM69.0845 11.1138C68.7593 11.1138 68.4671 11.0536 68.2081 10.9331C67.9551 10.8066 67.7533 10.6379 67.6027 10.4271C67.4521 10.2163 67.3768 9.97832 67.3768 9.71328C67.3768 9.28559 67.5515 8.94826 67.9009 8.70129C68.2503 8.44829 68.7141 8.27662 69.2924 8.18626L70.4218 8.01459V7.88809C70.4218 7.67123 70.3766 7.50558 70.2863 7.39113C70.1959 7.27668 70.0303 7.21945 69.7893 7.21945C69.6207 7.21945 69.4821 7.25259 69.3737 7.31885C69.2713 7.38511 69.19 7.47546 69.1297 7.58991C69.0755 7.66822 69.0002 7.70738 68.9038 7.70738H67.8918C67.8256 7.70738 67.7744 7.68931 67.7382 7.65316C67.7021 7.611 67.687 7.56281 67.6931 7.50859C67.6931 7.40017 67.7322 7.27668 67.8105 7.13813C67.8949 6.99356 68.0214 6.85201 68.19 6.71346C68.3587 6.57492 68.5755 6.46047 68.8406 6.37011C69.1056 6.27975 69.4279 6.23458 69.8074 6.23458C70.1929 6.23458 70.5242 6.27975 70.8013 6.37011C71.0784 6.46047 71.3043 6.58696 71.479 6.7496C71.6537 6.91224 71.7802 7.105 71.8585 7.32788C71.9428 7.54474 71.985 7.78568 71.985 8.05073V10.7975C71.985 10.8578 71.9609 10.912 71.9127 10.9602C71.8705 11.0024 71.8193 11.0234 71.7591 11.0234H70.7109C70.6447 11.0234 70.5905 11.0024 70.5483 10.9602C70.5061 10.912 70.4851 10.8578 70.4851 10.7975V10.4813C70.4068 10.5958 70.3013 10.7012 70.1688 10.7975C70.0363 10.8939 69.8797 10.9692 69.699 11.0234C69.5243 11.0837 69.3195 11.1138 69.0845 11.1138ZM69.5092 10.0837C69.6839 10.0837 69.8405 10.0476 69.9791 9.97531C70.1236 9.897 70.2351 9.77954 70.3134 9.62292C70.3977 9.46028 70.4399 9.25849 70.4399 9.01754V8.89104L69.6719 9.02657C69.3887 9.07476 69.1809 9.15006 69.0484 9.25246C68.9219 9.34884 68.8587 9.46329 68.8587 9.59581C68.8587 9.69822 68.8888 9.78556 68.949 9.85785C69.0092 9.93013 69.0876 9.98736 69.1839 10.0295C69.2863 10.0657 69.3948 10.0837 69.5092 10.0837ZM73.2305 12.7402C73.1642 12.7402 73.11 12.7161 73.0678 12.6679C73.0257 12.6257 73.0046 12.5745 73.0046 12.5143V6.55082C73.0046 6.48456 73.0257 6.43035 73.0678 6.38818C73.11 6.34601 73.1642 6.32493 73.2305 6.32493H74.2515C74.3117 6.32493 74.3629 6.34601 74.4051 6.38818C74.4533 6.43035 74.4774 6.48456 74.4774 6.55082V6.8761C74.6219 6.69539 74.8087 6.5448 75.0376 6.42432C75.2665 6.29782 75.5466 6.23458 75.8779 6.23458C76.1791 6.23458 76.4441 6.28277 76.673 6.37915C76.9019 6.4695 77.0977 6.60503 77.2603 6.78575C77.429 6.96646 77.5585 7.18632 77.6489 7.44534C77.7392 7.70436 77.7904 8.00254 77.8025 8.33987C77.8085 8.46034 77.8115 8.57178 77.8115 8.67418C77.8115 8.77659 77.8085 8.88803 77.8025 9.0085C77.7904 9.33378 77.7392 9.62593 77.6489 9.88495C77.5585 10.144 77.432 10.3638 77.2694 10.5446C77.1067 10.7253 76.908 10.8668 76.673 10.9692C76.4441 11.0656 76.1791 11.1138 75.8779 11.1138C75.5827 11.1138 75.3237 11.0626 75.1008 10.9602C74.884 10.8518 74.7033 10.7012 74.5587 10.5084V12.5143C74.5587 12.5745 74.5376 12.6257 74.4954 12.6679C74.4533 12.7161 74.3991 12.7402 74.3328 12.7402H73.2305ZM75.39 9.90302C75.5948 9.90302 75.7544 9.86086 75.8689 9.77653C75.9833 9.69219 76.0646 9.57774 76.1128 9.43317C76.167 9.2886 76.2002 9.12898 76.2122 8.95429C76.2243 8.76755 76.2243 8.58082 76.2122 8.39408C76.2002 8.21939 76.167 8.05976 76.1128 7.9152C76.0646 7.77063 75.9833 7.65617 75.8689 7.57184C75.7544 7.48751 75.5948 7.44534 75.39 7.44534C75.1972 7.44534 75.0406 7.49052 74.9201 7.58088C74.7996 7.66521 74.7123 7.77665 74.6581 7.9152C74.6039 8.05374 74.5707 8.20433 74.5587 8.36697C74.5527 8.48143 74.5497 8.59286 74.5497 8.70129C74.5497 8.80972 74.5527 8.92417 74.5587 9.04464C74.5647 9.19524 74.5979 9.33679 74.6581 9.46932C74.7183 9.59581 74.8087 9.70123 74.9292 9.78556C75.0496 9.86387 75.2032 9.90302 75.39 9.90302Z" fill="white"/>
<path d="M4.26198 4.97274L5.44868 4.67607C6.4371 4.42896 7.46806 4.40443 8.46711 4.60424L8.52999 4.61681C8.90029 4.69088 9.26304 4.79871 9.61367 4.93896L10.1266 5.14414C10.844 5.43109 11.4686 5.90978 11.9322 6.52787L12.0774 6.72154C12.3592 7.09727 12.5533 7.53134 12.6454 7.99188C12.8276 8.90299 12.5977 9.84804 12.0172 10.5736L11.771 10.8814C11.4102 11.3323 10.9559 11.6996 10.4394 11.9579L9.98756 12.1838C9.11403 12.6206 8.1508 12.848 7.17417 12.848H6.83048C5.78135 12.848 4.74316 12.6349 3.77886 12.2216L2.77779 11.7926C2.42839 11.6428 2.11077 11.4278 1.84197 11.159C1.28161 10.5986 0.966797 9.8386 0.966797 9.04612V8.79218C0.966797 7.58814 1.56854 6.46377 2.57036 5.79589L2.90398 5.57348C3.31887 5.29689 3.77823 5.09368 4.26198 4.97274Z" fill="#464646"/>
<path fill-rule="evenodd" clip-rule="evenodd" d="M2.81466 2.42894C2.61727 1.40253 3.40682 0.455078 4.43323 0.455078C5.3412 0.455078 6.09127 1.20515 6.09127 2.11312V4.16594C6.32814 4.16594 6.565 4.12647 6.80186 4.12647C7.03873 4.12647 7.23611 4.12646 7.47298 4.16594V2.11312C7.47298 1.20515 8.22305 0.455078 9.13102 0.455078C10.1574 0.455078 10.947 1.40253 10.7891 2.42894L10.3548 4.83706C11.8944 5.50817 13.0788 6.69249 13.0788 8.15315V9.06112C13.0788 10.2849 12.2892 11.3113 11.1444 11.9824C9.99952 12.693 8.49939 13.0878 6.80186 13.0878C5.10434 13.0878 3.6042 12.693 2.45936 11.9824C1.354 11.3113 0.564453 10.2849 0.564453 9.06112V8.15315C0.564453 6.69249 1.70929 5.50817 3.24891 4.83706L2.81466 2.42894ZM9.76266 5.15287L10.2759 2.31051C10.3943 1.59992 9.88109 0.928806 9.13102 0.928806C8.49939 0.928806 7.98618 1.44201 7.98618 2.07365V4.67915C7.82827 4.63967 7.63089 4.63967 7.47298 4.63967C7.23611 4.63967 7.03873 4.60019 6.80186 4.60019C6.565 4.60019 6.32814 4.60019 6.09127 4.63967C5.93336 4.63967 5.73598 4.67915 5.57807 4.67915V2.11312C5.57807 1.48149 5.06486 0.968283 4.43323 0.968283C3.72264 0.968283 3.16995 1.6394 3.32786 2.34999L3.84107 5.19235C2.18302 5.82399 1.07766 6.92935 1.07766 8.19263V9.1006C1.07766 11.035 3.64368 12.6141 6.80186 12.6141C9.96005 12.6141 12.5261 11.035 12.5261 9.1006V8.19263C12.5655 6.88987 11.4602 5.78451 9.76266 5.15287Z" fill="#464646"/>
<path d="M12.5656 9.06032C12.5656 10.9947 9.99958 12.5738 6.84139 12.5738C3.68321 12.5738 1.11719 10.9947 1.11719 9.06032V8.15234H12.6051V9.06032H12.5656Z" fill="#464646"/>
<path fill-rule="evenodd" clip-rule="evenodd" d="M3.32792 2.35045C3.17001 1.63986 3.72269 0.96875 4.43328 0.96875C5.06492 0.96875 5.57812 1.48195 5.57812 2.11359V4.71909C5.97289 4.67961 6.36767 4.64014 6.80192 4.64014C7.19669 4.64014 7.59146 4.67961 7.98623 4.71909V2.11359C7.98623 1.48195 8.49944 0.96875 9.13108 0.96875C9.84167 0.96875 10.3943 1.63986 10.2759 2.35045L9.76271 5.19282C11.4208 5.82446 12.5656 6.92982 12.5656 8.19309C12.5656 10.1275 9.99958 11.7066 6.84139 11.7066C3.68321 11.7066 1.11719 10.1275 1.11719 8.19309C1.11719 6.92982 2.22255 5.82446 3.8806 5.19282L3.32792 2.35045Z" fill="white"/>
<path d="M5.22226 7.9162C5.22226 8.42941 4.94592 8.86366 4.59062 8.86366C4.23533 8.86366 3.95898 8.42941 3.95898 7.9162C3.95898 7.403 4.23533 6.96875 4.59062 6.96875C4.94592 6.96875 5.22226 7.403 5.22226 7.9162Z" fill="#464646"/>
<path d="M9.60312 7.9162C9.60312 8.42941 9.32678 8.86366 8.97148 8.86366C8.61618 8.86366 8.33984 8.42941 8.33984 7.9162C8.33984 7.403 8.61618 6.96875 8.97148 6.96875C9.32678 6.96875 9.60312 7.403 9.60312 7.9162Z" fill="#464646"/>
</svg>
